<svg width="362" height="98" fill="none" xmlns="http://www.w3.org/2000/svg"><path fill-rule="evenodd" clip-rule="evenodd" d="M32.75 58.313h32.813S67.291 62.86 67 66.5c-.29 3.608-1.063 6.47-2.688 8.313-2.166 2.416-4.562 4.104-7.187 5.062-2.625.958-7.188 1.438-13.688 1.438H37.25c-5.458 0-8.708-.209-9.75-.626-1.042-.416-1.813-1.062-2.313-1.937a4.988 4.988 0 01-.251-.583c.199-1.584.887-3.744 2.064-6.48l5.75-13.374zm-8.563 6.173L51.75 0h2.188l29.5 70.5c2.374 5.667 4.52 9.354 6.437 11.063 1.958 1.666 4.667 2.604 8.125 2.812v2.313H0v-2.313h3.188c3.583 0 6.145-1.167 7.687-3.5.875-1.333 1.313-4.417 1.313-9.25V16.937c0-5.291-.584-8.604-1.75-9.937-1.626-1.833-4.042-2.75-7.25-2.75H0V1.937h38.375V4.25c-4.5-.042-7.667.375-9.5 1.25-1.792.875-3.02 1.98-3.688 3.313-.666 1.333-1 4.52-1 9.562v46.11zm25.25-45.049l14.376 34.25H34.686l14.75-34.25z" fill="#fff"/><path d="M125.555 54.18c4.125 0 7.695 1.57 10.711 4.71 3.031 3.126 4.546 7.032 4.546 11.72 0 4.828-1.523 8.835-4.57 12.023-3.047 3.187-6.734 4.781-11.062 4.781-4.375 0-8.055-1.555-11.039-4.664-2.969-3.11-4.453-7.133-4.453-12.07 0-5.047 1.718-9.164 5.156-12.352 2.984-2.766 6.554-4.148 10.711-4.148zm-.446 1.71c-2.843 0-5.125 1.055-6.843 3.165-2.141 2.625-3.211 6.468-3.211 11.53 0 5.188 1.109 9.18 3.328 11.978 1.703 2.124 3.953 3.187 6.75 3.187 2.984 0 5.445-1.164 7.383-3.492 1.953-2.328 2.929-6 2.929-11.016 0-5.437-1.07-9.492-3.211-12.164-1.718-2.125-4.093-3.187-7.125-3.187zm17.532 11.462l6.609-2.672h.891v5.015c1.109-1.89 2.218-3.21 3.328-3.96 1.125-.766 2.304-1.15 3.539-1.15 2.156 0 3.953.845 5.39 2.532 1.766 2.063 2.649 4.75 2.649 8.063 0 3.703-1.063 6.765-3.188 9.187-1.75 1.985-3.953 2.977-6.609 2.977-1.156 0-2.156-.164-3-.492-.625-.235-1.328-.704-2.109-1.407v6.54c0 1.468.086 2.398.257 2.788.188.407.5.727.938.961.453.235 1.266.352 2.437.352v.867h-11.25v-.867h.586c.86.016 1.594-.148 2.203-.492.297-.172.524-.453.68-.844.172-.375.258-1.344.258-2.906V71.547c0-1.39-.062-2.274-.188-2.649-.124-.375-.328-.656-.609-.843-.265-.188-.633-.282-1.101-.282-.375 0-.852.11-1.43.329l-.281-.75zm7.5 3.726v8.016c0 1.734.07 2.875.211 3.422.218.906.75 1.703 1.593 2.39.86.688 1.938 1.031 3.235 1.031 1.562 0 2.828-.609 3.797-1.828 1.265-1.593 1.898-3.836 1.898-6.726 0-3.281-.719-5.805-2.156-7.57-1-1.22-2.188-1.829-3.563-1.829-.75 0-1.492.188-2.226.563-.563.281-1.492 1.125-2.789 2.531zm24.281-12.914v7.055h5.016v1.64h-5.016v13.922c0 1.39.195 2.328.586 2.813.406.484.922.726 1.547.726.515 0 1.015-.156 1.5-.468.484-.329.859-.805 1.125-1.43h.914c-.547 1.531-1.321 2.687-2.321 3.469-1 .765-2.031 1.148-3.093 1.148-.719 0-1.422-.195-2.11-.586a3.687 3.687 0 01-1.523-1.71c-.328-.75-.492-1.9-.492-3.446V66.859h-3.399v-.773c.86-.344 1.735-.922 2.625-1.734a13.935 13.935 0 002.414-2.93c.36-.594.86-1.68 1.5-3.258h.727zm12.586-4.805c.656 0 1.211.235 1.664.703.469.454.703 1.008.703 1.665a2.3 2.3 0 01-.703 1.687 2.225 2.225 0 01-1.664.703 2.304 2.304 0 01-1.688-.703 2.304 2.304 0 01-.703-1.687c0-.657.227-1.211.68-1.664a2.33 2.33 0 011.711-.704zm1.945 11.227v17.25c0 1.344.094 2.242.281 2.695.204.438.493.766.868.985.39.218 1.093.328 2.109.328v.844h-10.43v-.844c1.047 0 1.75-.102 2.11-.305.359-.203.64-.539.843-1.008.219-.469.328-1.367.328-2.695v-8.273c0-2.329-.07-3.836-.21-4.524-.11-.5-.282-.844-.516-1.031-.234-.203-.555-.305-.961-.305-.437 0-.969.117-1.594.352l-.328-.844 6.469-2.625h1.031zm12.328 4.57c1.563-1.562 2.485-2.46 2.766-2.695a8.373 8.373 0 012.273-1.383 6.416 6.416 0 012.414-.492c1.344 0 2.5.39 3.469 1.172.969.781 1.617 1.914 1.945 3.398 1.61-1.875 2.969-3.101 4.079-3.68 1.109-.593 2.25-.89 3.421-.89 1.141 0 2.149.297 3.024.89.89.579 1.594 1.532 2.109 2.86.344.906.516 2.328.516 4.266v9.234c0 1.344.101 2.266.305 2.766.156.343.445.64.867.89.422.235 1.109.352 2.062.352v.844h-10.593v-.844h.445c.922 0 1.64-.18 2.156-.54.359-.25.617-.648.773-1.195.063-.265.094-1.023.094-2.273v-9.234c0-1.75-.211-2.985-.633-3.704-.609-1-1.585-1.5-2.929-1.5-.828 0-1.664.211-2.508.633-.828.406-1.836 1.172-3.024 2.297l-.046.258.046 1.008v10.242c0 1.469.079 2.383.235 2.742.172.36.484.664.937.914.454.235 1.227.352 2.321.352v.844h-10.852v-.844c1.188 0 2-.14 2.438-.422.453-.281.765-.703.937-1.266.078-.265.117-1.039.117-2.32v-9.234c0-1.75-.257-3.008-.773-3.774-.688-1-1.649-1.5-2.883-1.5-.844 0-1.68.227-2.508.68-1.297.687-2.297 1.46-3 2.32v11.508c0 1.406.094 2.32.281 2.742.204.422.493.742.868.961.39.203 1.172.305 2.343.305v.844h-10.617v-.844c.985 0 1.672-.102 2.063-.305.39-.219.687-.555.89-1.008.203-.469.305-1.367.305-2.695v-8.203c0-2.36-.07-3.883-.211-4.57-.109-.516-.281-.868-.515-1.055-.235-.203-.555-.305-.961-.305-.438 0-.961.117-1.571.352l-.351-.844 6.468-2.625h1.008v4.57zm36.446-15.797c.656 0 1.211.235 1.664.703a2.23 2.23 0 01.703 1.665c0 .656-.235 1.218-.703 1.687a2.225 2.225 0 01-1.664.703 2.302 2.302 0 01-1.688-.703 2.3 2.3 0 01-.703-1.687c0-.657.226-1.211.68-1.664a2.328 2.328 0 011.711-.704zm1.945 11.227v17.25c0 1.344.094 2.242.281 2.695.203.438.492.766.867.985.391.218 1.094.328 2.11.328v.844H232.5v-.844c1.047 0 1.75-.102 2.109-.305.36-.203.641-.539.844-1.008.219-.469.328-1.367.328-2.695v-8.273c0-2.329-.07-3.836-.211-4.524-.109-.5-.281-.844-.515-1.031-.235-.203-.555-.305-.961-.305-.438 0-.969.117-1.594.352l-.328-.844 6.469-2.625h1.031zm24.609 15.516l-.258 6.585h-18.937v-.843l14.25-18.985h-7.031c-1.516 0-2.508.102-2.977.305-.469.188-.851.555-1.148 1.102-.422.78-.664 1.75-.727 2.906h-.937l.14-5.953h18v.867l-14.39 19.031h7.828c1.64 0 2.75-.133 3.328-.398.594-.281 1.07-.766 1.43-1.453.25-.5.46-1.555.632-3.164h.797zm14.836 3.492c-2.203 1.703-3.586 2.687-4.148 2.953a6.34 6.34 0 01-2.696.586c-1.484 0-2.711-.508-3.679-1.524-.953-1.015-1.43-2.351-1.43-4.007 0-1.047.234-1.954.703-2.72.641-1.062 1.75-2.062 3.328-3 1.594-.937 4.235-2.077 7.922-3.421v-.844c0-2.14-.344-3.61-1.031-4.406-.672-.797-1.656-1.195-2.953-1.195-.985 0-1.766.265-2.344.796-.594.532-.891 1.141-.891 1.829l.047 1.359c0 .719-.187 1.273-.562 1.664-.36.39-.836.586-1.43.586-.578 0-1.055-.203-1.43-.61-.359-.406-.539-.96-.539-1.663 0-1.344.688-2.579 2.063-3.704 1.375-1.125 3.305-1.687 5.789-1.687 1.906 0 3.469.32 4.687.96.922.485 1.602 1.243 2.039 2.274.282.672.422 2.047.422 4.125v7.29c0 2.046.039 3.304.118 3.773.078.453.203.758.375.914a.96.96 0 00.632.234c.25 0 .469-.054.657-.164.328-.203.961-.773 1.898-1.71v1.312c-1.75 2.344-3.422 3.515-5.016 3.515-.765 0-1.375-.265-1.828-.796-.453-.532-.687-1.438-.703-2.72zm0-1.524v-8.18c-2.359.938-3.883 1.602-4.57 1.993-1.235.687-2.117 1.406-2.649 2.156a4.168 4.168 0 00-.796 2.461c0 1.125.336 2.063 1.007 2.813.672.734 1.446 1.101 2.321 1.101 1.187 0 2.75-.781 4.687-2.344zm15.399-23.906v7.055h5.015v1.64h-5.015v13.922c0 1.39.195 2.328.586 2.813a1.93 1.93 0 001.546.726c.516 0 1.016-.156 1.5-.468.485-.329.86-.805 1.125-1.43h.915c-.547 1.531-1.321 2.687-2.321 3.469-1 .765-2.031 1.148-3.094 1.148-.718 0-1.421-.195-2.109-.586a3.687 3.687 0 01-1.523-1.71c-.329-.75-.493-1.9-.493-3.446V66.859h-3.398v-.773c.859-.344 1.734-.922 2.625-1.734a13.966 13.966 0 002.414-2.93c.359-.594.859-1.68 1.5-3.258h.727zm12.586-4.805c.656 0 1.21.235 1.664.703a2.23 2.23 0 01.703 1.665c0 .656-.235 1.218-.703 1.687a2.227 2.227 0 01-1.664.703 2.302 2.302 0 01-1.688-.703 2.3 2.3 0 01-.703-1.687c0-.657.227-1.211.68-1.664a2.328 2.328 0 011.711-.704zm1.945 11.227v17.25c0 1.344.094 2.242.281 2.695.203.438.492.766.867.985.391.218 1.094.328 2.11.328v.844h-10.43v-.844c1.047 0 1.75-.102 2.109-.305.36-.203.641-.539.844-1.008.219-.469.328-1.367.328-2.695v-8.273c0-2.329-.07-3.836-.211-4.524-.109-.5-.281-.844-.515-1.031-.235-.203-.555-.305-.961-.305-.438 0-.969.117-1.594.352l-.328-.844 6.469-2.625h1.031zm16.453 0c3.25 0 5.859 1.234 7.828 3.703 1.672 2.11 2.508 4.531 2.508 7.266 0 1.922-.461 3.867-1.383 5.836-.922 1.968-2.195 3.453-3.82 4.453-1.61 1-3.406 1.5-5.391 1.5-3.234 0-5.804-1.29-7.711-3.867-1.609-2.172-2.414-4.61-2.414-7.313 0-1.969.485-3.922 1.453-5.86.985-1.952 2.274-3.39 3.868-4.312 1.593-.937 3.281-1.406 5.062-1.406zm-.727 1.523c-.828 0-1.664.25-2.507.75-.828.485-1.5 1.344-2.016 2.579-.516 1.234-.773 2.82-.773 4.757 0 3.125.617 5.82 1.851 8.086 1.25 2.266 2.891 3.399 4.922 3.399 1.516 0 2.766-.625 3.75-1.875s1.477-3.399 1.477-6.446c0-3.812-.821-6.812-2.461-9-1.11-1.5-2.524-2.25-4.243-2.25zm20.485 3.024c2.515-3.031 4.914-4.547 7.195-4.547 1.172 0 2.18.297 3.024.89.843.579 1.515 1.54 2.015 2.883.344.938.516 2.375.516 4.313v9.164c0 1.36.109 2.281.328 2.766.172.39.445.695.82.914.391.218 1.102.328 2.133.328v.844h-10.617v-.844h.445c1 0 1.695-.149 2.086-.446.406-.312.688-.765.844-1.359.062-.234.094-.969.094-2.203v-8.79c0-1.952-.258-3.366-.774-4.241-.5-.89-1.351-1.336-2.555-1.336-1.859 0-3.71 1.015-5.554 3.047v11.32c0 1.453.086 2.352.258 2.695.218.453.515.79.89 1.008.391.203 1.172.305 2.344.305v.844h-10.617v-.844h.469c1.093 0 1.828-.274 2.203-.82.39-.563.586-1.626.586-3.188v-7.969c0-2.578-.063-4.148-.188-4.71-.109-.563-.289-.946-.539-1.15-.234-.202-.555-.304-.961-.304-.437 0-.961.117-1.57.352l-.352-.844 6.469-2.625h1.008v4.547z" fill="#fff"/></svg>