<svg width="126" height="76" fill="none" xmlns="http://www.w3.org/2000/svg"><path fill-rule="evenodd" clip-rule="evenodd" d="M54.77 29.157h16.407s.864 2.274.718 4.094c-.144 1.804-.531 3.235-1.343 4.156-1.084 1.209-2.282 2.053-3.594 2.532-1.313.479-3.594.718-6.844.718H57.02c-2.73 0-4.354-.104-4.875-.312-.52-.208-.906-.531-1.156-.969a2.517 2.517 0 01-.126-.291c.1-.792.443-1.872 1.032-3.24l2.875-6.688zm-4.281 3.087L64.27 0h1.094l14.75 35.251c1.188 2.833 2.261 4.677 3.22 5.531.978.834 2.333 1.303 4.062 1.407v1.156H38.395v-1.156h1.593c1.792 0 3.073-.584 3.844-1.75.438-.667.657-2.209.657-4.626V8.47c0-2.646-.292-4.302-.876-4.969-.812-.917-2.02-1.375-3.625-1.375h-1.593V.97h19.188v1.156c-2.25-.02-3.834.188-4.75.625-.896.438-1.511.99-1.844 1.656-.334.667-.5 2.26-.5 4.782v23.056zM63.114 9.719l7.188 17.126H55.739l7.375-17.126z" fill="#fff"/><path d="M7.933 53.755c2.062 0 3.847.785 5.355 2.355 1.515 1.563 2.273 3.516 2.273 5.86 0 2.413-.761 4.417-2.285 6.01-1.523 1.594-3.367 2.39-5.53 2.39-2.188 0-4.028-.776-5.52-2.331C.742 66.484 0 64.473 0 62.004c0-2.523.86-4.581 2.578-6.175 1.492-1.383 3.277-2.074 5.355-2.074zm-.223.855c-1.421 0-2.562.528-3.421 1.582-1.07 1.313-1.606 3.234-1.606 5.766 0 2.593.555 4.589 1.664 5.987.852 1.063 1.977 1.594 3.375 1.594 1.492 0 2.722-.582 3.691-1.746.977-1.164 1.465-3 1.465-5.507 0-2.719-.535-4.746-1.605-6.082-.86-1.062-2.047-1.593-3.563-1.593zm8.765 5.73l3.304-1.335h.446v2.507c.554-.945 1.11-1.605 1.664-1.98.562-.383 1.152-.574 1.77-.574 1.077 0 1.976.422 2.694 1.265.883 1.032 1.324 2.375 1.324 4.031 0 1.852-.53 3.383-1.593 4.594-.875.992-1.977 1.488-3.305 1.488-.578 0-1.078-.082-1.5-.246-.312-.118-.664-.352-1.054-.703v3.269c0 .734.043 1.199.129 1.394.094.203.25.364.468.48.227.118.633.176 1.22.176v.434h-5.625v-.434h.292c.43.008.797-.074 1.102-.246a.814.814 0 00.34-.421c.086-.188.129-.672.129-1.454V62.438c0-.695-.032-1.137-.094-1.324a.785.785 0 00-.305-.422c-.133-.094-.316-.14-.55-.14-.188 0-.426.054-.715.163l-.14-.375zm3.75 1.864v4.007c0 .867.035 1.438.105 1.71.11.454.375.852.797 1.196.43.344.969.516 1.617.516.781 0 1.414-.305 1.898-.914.633-.797.95-1.918.95-3.363 0-1.64-.36-2.902-1.078-3.785-.5-.61-1.094-.914-1.782-.914-.374 0-.746.094-1.113.281-.281.14-.746.563-1.394 1.266zm12.139-6.457v3.527h2.508v.82h-2.508v6.96c0 .696.098 1.165.293 1.407a.968.968 0 00.774.363c.258 0 .508-.078.75-.234a1.58 1.58 0 00.562-.715h.457c-.273.766-.66 1.344-1.16 1.734-.5.383-1.015.574-1.547.574-.359 0-.71-.097-1.054-.293a1.844 1.844 0 01-.762-.855c-.164-.375-.246-.95-.246-1.722v-7.219h-1.7v-.386c.43-.172.868-.461 1.313-.867a6.976 6.976 0 001.207-1.465c.18-.297.43-.84.75-1.629h.363zm6.293-2.402c.328 0 .605.117.832.352.234.226.351.503.351.831 0 .329-.117.61-.351.844a1.113 1.113 0 01-.832.352 1.15 1.15 0 01-.844-.352 1.15 1.15 0 01-.351-.843c0-.329.113-.606.34-.833.234-.234.519-.351.855-.351zm.972 5.613v8.624c0 .672.047 1.121.141 1.348.102.218.246.382.434.492.195.11.546.164 1.054.164v.422h-5.214v-.422c.523 0 .875-.051 1.054-.153.18-.101.32-.269.422-.503.11-.235.164-.684.164-1.348v-4.136c0-1.164-.035-1.918-.105-2.262-.055-.25-.14-.422-.258-.515-.117-.102-.277-.153-.48-.153-.22 0-.485.059-.797.176l-.164-.422 3.234-1.312h.515zm6.164 2.285c.781-.781 1.242-1.23 1.383-1.348a4.17 4.17 0 011.136-.691 3.204 3.204 0 011.207-.246c.672 0 1.25.195 1.734.586.485.39.809.957.973 1.699.805-.938 1.484-1.55 2.039-1.84a3.583 3.583 0 011.71-.445c.57 0 1.075.148 1.512.445.445.29.797.766 1.055 1.43.172.453.258 1.164.258 2.132v4.617c0 .672.05 1.133.152 1.383.078.172.223.32.434.445.21.117.554.176 1.03.176v.422H55.12v-.422h.223c.46 0 .82-.09 1.078-.27.18-.125.309-.324.387-.597.03-.133.047-.512.047-1.137v-4.617c0-.875-.106-1.492-.317-1.851-.305-.5-.793-.75-1.465-.75-.414 0-.832.105-1.253.316-.414.203-.918.586-1.512 1.149l-.023.129.023.503v5.121c0 .734.04 1.191.117 1.371.086.18.242.332.469.457.226.117.613.176 1.16.176v.422h-5.425v-.422c.593 0 1-.07 1.218-.211.227-.14.383-.352.469-.633.039-.133.059-.52.059-1.16v-4.617c0-.875-.13-1.504-.387-1.886-.344-.5-.824-.75-1.441-.75-.422 0-.84.113-1.254.34-.649.343-1.148.73-1.5 1.16v5.753c0 .703.047 1.16.14 1.371.102.211.247.371.434.48.195.102.586.153 1.172.153v.422H42.23v-.422c.492 0 .836-.051 1.03-.153a1.04 1.04 0 00.446-.503c.102-.235.152-.684.152-1.348v-4.101c0-1.18-.035-1.941-.105-2.285-.055-.258-.14-.434-.258-.527-.117-.102-.277-.153-.48-.153-.219 0-.48.059-.785.176l-.176-.422 3.234-1.312h.504v2.285zm18.221-7.898c.328 0 .605.117.832.352.234.226.352.503.352.831 0 .329-.118.61-.352.844a1.113 1.113 0 01-.832.352 1.15 1.15 0 01-.844-.352 1.15 1.15 0 01-.351-.843c0-.329.113-.606.34-.833.234-.234.52-.351.855-.351zm.973 5.613v8.624c0 .672.047 1.121.14 1.348.102.218.246.382.434.492.195.11.547.164 1.054.164v.422h-5.214v-.422c.523 0 .875-.051 1.055-.153.18-.101.32-.269.421-.503.11-.235.164-.684.164-1.348v-4.136c0-1.164-.035-1.918-.105-2.262-.055-.25-.14-.422-.258-.515-.117-.102-.277-.153-.48-.153-.219 0-.485.059-.797.176l-.164-.422 3.234-1.312h.516zm12.303 7.757l-.129 3.293h-9.468v-.422l7.125-9.492h-3.516c-.757 0-1.253.051-1.488.153-.234.093-.425.277-.574.55-.21.391-.332.875-.363 1.454h-.469l.07-2.977h9v.434l-7.195 9.514h3.914c.82 0 1.375-.066 1.664-.199.296-.14.535-.382.714-.726.125-.25.23-.777.317-1.582h.398zm7.418 1.745c-1.102.852-1.793 1.345-2.075 1.477a3.169 3.169 0 01-1.347.293c-.742 0-1.355-.254-1.84-.761-.476-.508-.715-1.176-.715-2.004 0-.523.118-.977.352-1.36.32-.53.875-1.03 1.664-1.5.797-.468 2.117-1.038 3.96-1.71v-.422c0-1.07-.171-1.804-.515-2.203-.336-.398-.828-.597-1.476-.597-.493 0-.883.132-1.172.398-.297.266-.445.57-.445.914l.023.68c0 .359-.094.636-.281.832-.18.195-.418.292-.715.292a.93.93 0 01-.715-.304c-.18-.203-.27-.48-.27-.832 0-.672.344-1.29 1.032-1.852.687-.562 1.652-.843 2.894-.843.953 0 1.734.16 2.344.48.46.242.8.621 1.02 1.137.14.336.21 1.023.21 2.062v3.644c0 1.024.02 1.653.059 1.887.039.226.101.379.187.457a.48.48 0 00.316.117.639.639 0 00.328-.082c.165-.102.481-.387.95-.855v.656c-.875 1.172-1.711 1.758-2.508 1.758-.383 0-.687-.133-.914-.399-.227-.265-.344-.718-.351-1.36zm0-.76v-4.09c-1.18.469-1.942.8-2.285.996-.618.344-1.059.703-1.325 1.078a2.083 2.083 0 00-.398 1.23c0 .563.168 1.031.504 1.406.336.367.723.551 1.16.551.594 0 1.375-.39 2.344-1.172zm7.698-11.953v3.527h2.508v.82h-2.508v6.96c0 .696.098 1.165.293 1.407a.966.966 0 00.773.363c.258 0 .508-.078.75-.234.243-.164.43-.403.563-.715h.457c-.274.766-.66 1.344-1.16 1.734-.5.383-1.016.574-1.547.574-.36 0-.71-.097-1.055-.293a1.843 1.843 0 01-.761-.855c-.164-.375-.246-.95-.246-1.722v-7.219h-1.7v-.386c.43-.172.868-.461 1.313-.867a6.976 6.976 0 001.207-1.465c.18-.297.43-.84.75-1.629h.363zm6.292-2.402c.329 0 .606.117.833.352.234.226.351.503.351.831 0 .329-.117.61-.352.844a1.113 1.113 0 01-.832.352 1.15 1.15 0 01-.843-.352 1.15 1.15 0 01-.352-.843c0-.329.114-.606.34-.833.234-.234.52-.351.855-.351zm.973 5.613v8.624c0 .672.047 1.121.14 1.348.102.218.247.382.434.492.196.11.547.164 1.055.164v.422h-5.215v-.422c.524 0 .875-.051 1.055-.153.18-.101.32-.269.422-.503.11-.235.164-.684.164-1.348v-4.136c0-1.164-.035-1.918-.105-2.262-.055-.25-.141-.422-.258-.515-.117-.102-.278-.153-.48-.153-.22 0-.485.059-.797.176l-.165-.422 3.234-1.312h.516zm8.226 0c1.625 0 2.929.617 3.914 1.851.836 1.055 1.253 2.266 1.253 3.633 0 .96-.23 1.933-.691 2.917-.461.985-1.097 1.727-1.91 2.227-.804.5-1.703.75-2.695.75-1.617 0-2.902-.645-3.855-1.934a5.988 5.988 0 01-1.207-3.656c0-.984.242-1.96.727-2.93.492-.976 1.136-1.694 1.933-2.155a4.913 4.913 0 012.531-.703zm-.363.761c-.414 0-.832.125-1.254.375-.414.243-.75.672-1.008 1.29-.258.617-.386 1.41-.386 2.378 0 1.562.308 2.91.925 4.043.625 1.132 1.445 1.699 2.461 1.699.758 0 1.383-.313 1.875-.938s.738-1.699.738-3.222c0-1.906-.41-3.406-1.23-4.5-.555-.75-1.262-1.125-2.121-1.125zm10.241 1.512c1.258-1.516 2.457-2.273 3.597-2.273.586 0 1.09.148 1.512.445.422.29.758.77 1.008 1.441.172.47.257 1.188.257 2.156v4.582c0 .68.055 1.14.165 1.383a.962.962 0 00.41.457c.195.11.55.164 1.066.164v.422h-5.308v-.422h.222c.5 0 .848-.074 1.043-.223.203-.156.344-.383.422-.68.031-.117.047-.484.047-1.1v-4.395c0-.977-.129-1.684-.387-2.121-.25-.445-.675-.668-1.277-.668-.929 0-1.855.508-2.777 1.523v5.66c0 .727.043 1.176.129 1.348.109.226.258.394.445.503.195.102.586.153 1.172.153v.422h-5.308v-.422h.234c.547 0 .914-.137 1.102-.41.195-.282.293-.813.293-1.594v-3.984c0-1.289-.032-2.074-.094-2.355-.055-.282-.145-.473-.27-.574-.117-.102-.277-.153-.48-.153-.219 0-.481.059-.785.176l-.176-.422 3.234-1.312h.504v2.273z" fill="#fff"/></svg>