<svg width="40" height="36" fill="none" xmlns="http://www.w3.org/2000/svg"><path fill-rule="evenodd" clip-rule="evenodd" d="M13.367 23.801H26.76s.706 1.857.587 3.342c-.118 1.472-.434 2.64-1.097 3.393-.884.986-1.862 1.675-2.934 2.066-1.071.391-2.933.587-5.586.587h-2.526c-2.228 0-3.554-.085-3.98-.255-.425-.17-.74-.434-.943-.791a2.054 2.054 0 01-.103-.238c.081-.647.362-1.528.842-2.645l2.347-5.459zm-3.495 2.52L21.122 0h.893l12.041 28.776c.97 2.312 1.845 3.817 2.628 4.515.799.68 1.904 1.063 3.316 1.148v.944H0v-.944h1.301c1.463 0 2.509-.476 3.138-1.429.357-.544.535-1.802.535-3.775V6.913c0-2.16-.238-3.512-.714-4.056-.663-.748-1.65-1.122-2.959-1.122H0V.79h15.663v.944c-1.837-.017-3.129.153-3.877.51-.732.357-1.233.808-1.505 1.352-.273.544-.409 1.845-.409 3.903v18.82zM20.18 7.934l5.867 13.98H14.158l6.02-13.98z" fill="#CCC"/></svg>