<svg width="40" height="40" viewBox="0 0 40 40" fill="none" xmlns="http://www.w3.org/2000/svg">
<path fill-rule="evenodd" clip-rule="evenodd" d="M13.3673 25.801H26.7602C26.7602 25.801 27.466 27.6577 27.3469 29.1429C27.2289 30.6154 26.913 31.7834 26.25 32.5357C25.3656 33.5221 24.3878 34.2109 23.3163 34.602C22.2449 34.9932 20.3827 35.1888 17.7296 35.1888H15.2041C12.9762 35.1888 11.6497 35.1037 11.2245 34.9337C10.7993 34.7636 10.4847 34.5 10.2806 34.1429C10.2439 34.0717 10.2096 33.9924 10.1778 33.9051C10.259 33.2584 10.5399 32.3767 11.0204 31.2602L13.3673 25.801ZM9.87245 28.3208L21.1224 2H22.0153L34.0561 30.7755C35.0255 33.0884 35.9014 34.5935 36.6837 35.2908C37.483 35.9711 38.5884 36.3537 40 36.4388V37.3827H26.7857H26.352H14.1582H3.26531H0V36.4388H1.30102C2.76361 36.4388 3.80952 35.9626 4.43878 35.0102C4.79592 34.466 4.97449 33.2075 4.97449 31.2347V8.91327C4.97449 6.7534 4.73639 5.40136 4.2602 4.85714C3.59694 4.10884 2.61054 3.73469 1.30102 3.73469H0V2.79082H15.6633V3.73469C13.8265 3.71769 12.534 3.88776 11.7857 4.2449C11.0544 4.60204 10.5527 5.05272 10.2806 5.59694C10.0085 6.14116 9.87245 7.44218 9.87245 9.5V28.3208ZM20.1786 9.93367L26.0459 23.9133H14.1582L20.1786 9.93367Z" fill="white"/>
</svg>
