<svg width="380" height="520" fill="none" xmlns="http://www.w3.org/2000/svg"><ellipse opacity=".05" cx="189.603" cy="411.12" rx="189.603" ry="108.881" fill="#fff"/><path d="M78.845 336.03l108.881-63.827 108.88 63.827-108.88 61.949L78.845 336.03z" fill="#A858F2"/><path d="M187.726 397.98l108.88-61.95 30.037 60.072-138.917 78.845V397.98z" fill="#9B51E0"/><path d="M78.845 336.03l108.881 61.95v76.967L48.809 396.102l30.036-60.072z" fill="#BB6BD9"/><path d="M123.899 227.149l63.827-37.545 63.827 37.545-63.827 35.668-63.827-35.668z" fill="#2D9CDB"/><path d="M187.726 262.816l63.826-35.668 28.159 52.564-91.985 56.317v-73.213z" fill="#2F80ED"/><path d="M123.899 227.148l63.827 35.668v73.213L95.74 279.712l28.159-52.564z" fill="#56CCF2"/><path d="M108.881 168.953l78.845-50.685 78.844 50.685-78.844 46.932-78.845-46.932z" fill="#fff" fill-opacity=".1"/><path fill-rule="evenodd" clip-rule="evenodd" d="M187.319 117.636a.752.752 0 01.813 0l78.844 50.686a.75.75 0 01-.022 1.277L188.11 216.53a.752.752 0 01-.769 0l-78.844-46.931a.75.75 0 01-.022-1.277l78.844-50.686zm-77.011 51.293l77.418 46.082 77.417-46.082-77.417-49.769-77.418 49.769z" fill="#fff"/><path d="M187.726 118.268V7.51l78.844 161.444-78.844-50.686z" fill="#fff" fill-opacity=".1"/><path fill-rule="evenodd" clip-rule="evenodd" d="M187.556 6.778a.75.75 0 01.844.402l78.845 161.444a.75.75 0 01-1.081.961L187.319 118.9a.755.755 0 01-.344-.632V7.51a.75.75 0 01.581-.732zm.92 3.98v107.1l76.241 49.012-76.241-156.112z" fill="#fff"/><path d="M187.726 118.268V7.51l-78.845 161.444 78.845-50.686z" fill="#fff" fill-opacity=".1"/><path fill-rule="evenodd" clip-rule="evenodd" d="M187.895 6.778a.75.75 0 01.581.732v110.758a.752.752 0 01-.344.632l-78.845 50.685a.75.75 0 01-1.081-.961L187.051 7.18a.75.75 0 01.844-.402zM110.734 166.87l76.241-49.012v-107.1L110.734 166.87z" fill="#fff"/><path d="M187.726 35.669l63.826 127.654-63.826 37.545v-165.2z" fill="#EB5757"/><path d="M187.726 35.669l-63.827 127.653 63.827 37.546v-165.2z" fill="#F2994A"/><circle cx="187.726" cy="214.007" fill="#fff" r="7.509"/><circle cx="187.726" cy="7.509" fill="#fff" r="7.509"/><circle cx="266.571" cy="168.953" fill="#fff" r="7.509"/><circle cx="108.881" cy="168.953" fill="#fff" r="7.509"/></svg>