<svg width="257" height="76" fill="none" xmlns="http://www.w3.org/2000/svg"><path fill-rule="evenodd" clip-rule="evenodd" d="M97.923 43.349a1.622 1.622 0 103.243 0 1.622 1.622 0 10-3.243 0zm158.448 1.266a3.376 3.376 0 01-.927-.204 2.133 2.133 0 01-.658-.43 2.935 2.935 0 01-.589-.8 16.86 16.86 0 01-.671-1.415l-7.019-17.118h-1.855l-9.296 21.974h2.904l2.487-5.928h7.776l.604 1.575c.359.97.803 1.764 1.323 2.367.513.595 1.057 1.06 1.609 1.376a5.1 5.1 0 001.655.63c.514.09.955.134 1.351.134a5.15 5.15 0 001.439-.184l.496-.144v-1.773l-.629-.06zm-14.564-6.556l2.823-6.57 2.712 6.57h-5.535zm-21.278 6.55c-.955 0-1.11-.337-1.16-.45-.219-.477-.326-1.142-.326-1.975V24.648h-4.184v17.536c0 .84.044 1.501.136 2.022.1.59.298 1.075.586 1.445.313.406.732.675 1.244.808.421.11.922.163 1.527.163h3.49V44.61h-1.313zm-22.006-5.706a5.22 5.22 0 00-.806-1.492 6.814 6.814 0 00-1.333-1.288 21.385 21.385 0 00-1.786-1.179l-3.827-2.277a25.002 25.002 0 01-1.452-.926 5.942 5.942 0 01-.976-.822 2.63 2.63 0 01-.52-.79 2.523 2.523 0 01-.165-.953c0-.367.074-.69.23-.988.163-.314.369-.57.629-.782a2.93 2.93 0 01.924-.503 3.481 3.481 0 011.112-.183c1.563 0 2.792.39 3.645 1.162.865.783 1.467 2.16 1.791 4.092l.097.58h1.899v-4.032c0-.754-.269-1.439-.797-2.035-.472-.533-1.076-.985-1.795-1.345a9.626 9.626 0 00-2.329-.793 12.24 12.24 0 00-2.489-.265c-.985 0-1.891.14-2.696.413a6.194 6.194 0 00-2.133 1.212 5.583 5.583 0 00-1.401 1.904c-.329.731-.498 1.561-.498 2.469 0 1.3.319 2.428.945 3.353.613.905 1.605 1.758 3.034 2.608l3.831 2.282c1.071.624 1.878 1.238 2.396 1.824.459.518.682 1.135.682 1.88 0 .4-.081.735-.248 1.025-.18.314-.41.572-.706.783a3.26 3.26 0 01-1.061.503 4.973 4.973 0 01-1.344.177c-1.569 0-2.812-.403-3.698-1.196-.896-.803-1.513-2.189-1.833-4.12l-.098-.58h-1.9v4.032c0 .757.277 1.446.818 2.042.483.53 1.106.986 1.856 1.356.721.358 1.54.633 2.433.82.886.186 1.786.281 2.678.281 1.066 0 2.045-.15 2.911-.441.886-.302 1.654-.743 2.281-1.314a5.875 5.875 0 001.463-2.067c.335-.791.507-1.68.507-2.641 0-.658-.092-1.257-.271-1.786zm-27.846 5.712a3.359 3.359 0 01-.927-.204 2.16 2.16 0 01-.66-.43 3.046 3.046 0 01-.592-.8 19.205 19.205 0 01-.669-1.415l-7.018-17.118h-1.854l-9.297 21.974h2.903l2.489-5.928h7.776l.603 1.575c.359.97.805 1.764 1.323 2.367.514.595 1.056 1.06 1.609 1.376a5.117 5.117 0 001.655.63c.514.09.954.134 1.35.134.54 0 1.024-.062 1.438-.184l.499-.144v-1.773l-.628-.06zM156.11 38.06l2.824-6.57 2.711 6.57h-5.535zM84.521 24.648v14.164l-9.66-12.04a5.984 5.984 0 00-1.919-1.551c-.746-.38-1.694-.573-2.814-.573h-2.716v2.01h1.003c.833 0 1.385.188 1.64.558.312.453.468 1.079.468 1.869v17.537h2.628v-15.1l12.352 15.411h1.645V24.648H84.52zM55.25 44.615a3.368 3.368 0 01-.929-.204 2.18 2.18 0 01-.658-.43 2.981 2.981 0 01-.59-.8 18.152 18.152 0 01-.671-1.415l-7.018-17.118h-1.855l-9.297 21.974h2.905l2.488-5.928H47.4l.606 1.575c.355.97.802 1.764 1.321 2.367.514.595 1.057 1.06 1.608 1.376a5.12 5.12 0 001.656.63c.512.09.956.134 1.35.134a5.15 5.15 0 001.439-.184l.496-.144v-1.773l-.626-.06zM40.684 38.06l2.823-6.57 2.71 6.57h-5.533zm56.526.846c0 .898.727 1.626 1.622 1.626a1.626 1.626 0 000-3.251c-.895 0-1.622.729-1.622 1.625zm2.853-2.73c0 .897.727 1.626 1.622 1.626.895 0 1.619-.729 1.619-1.626 0-.898-.724-1.627-1.619-1.627s-1.622.729-1.622 1.627zm-2.853-5.504c0 .897.727 1.625 1.622 1.625a1.625 1.625 0 000-3.251c-.895 0-1.622.728-1.622 1.625zm6.722-.716c0 .898.726 1.626 1.621 1.626.896 0 1.621-.728 1.621-1.626a1.622 1.622 0 10-3.242 0zm-1.209-7.585c0 .897.723 1.626 1.621 1.626a1.625 1.625 0 000-3.251 1.62 1.62 0 00-1.621 1.624zm5.726 1.626c0 .897.727 1.624 1.621 1.624.895 0 1.622-.727 1.622-1.624 0-.9-.727-1.627-1.622-1.627-.894 0-1.621.727-1.621 1.627zm-.497 8.798a1.622 1.622 0 103.242 0 1.622 1.622 0 10-3.242 0zm-3.608 7.737c0 .898.726 1.626 1.621 1.626.894 0 1.619-.728 1.619-1.626 0-.897-.725-1.626-1.619-1.626-.895 0-1.621.73-1.621 1.626zm4.105 1.626c0 .897.727 1.626 1.621 1.626a1.625 1.625 0 000-3.252c-.894 0-1.621.729-1.621 1.626zm0 4.963c0 .897.727 1.625 1.621 1.625a1.625 1.625 0 000-3.25c-.894 0-1.621.727-1.621 1.625zm-5.145 5.614c0 .896.727 1.62 1.622 1.62a1.623 1.623 0 000-3.247 1.627 1.627 0 00-1.622 1.627zm0-5.072a1.622 1.622 0 103.244 0c0-.898-.725-1.626-1.622-1.626-.895 0-1.622.728-1.622 1.626zm6.529 8.645c0 .897.725 1.626 1.621 1.626a1.625 1.625 0 000-3.251c-.896 0-1.621.728-1.621 1.625zm-.821-4.355a1.621 1.621 0 103.242 0 1.62 1.62 0 10-3.242 0zm4.322-24.88c0 .898.726 1.626 1.62 1.626a1.625 1.625 0 000-3.252c-.894 0-1.62.728-1.62 1.627zm-2.701-7.151a1.621 1.621 0 103.242 0c0-.898-.726-1.627-1.621-1.627-.898 0-1.621.729-1.621 1.627zm.258-10.337a1.62 1.62 0 103.241 0 1.62 1.62 0 10-3.241 0zm2.443 4.962c0 .897.726 1.626 1.62 1.626a1.625 1.625 0 000-3.251c-.894 0-1.62.727-1.62 1.625zm-7.781 4.247c0 .899.726 1.627 1.621 1.627.896 0 1.621-.729 1.621-1.627 0-.896-.725-1.624-1.621-1.624-.895 0-1.621.728-1.621 1.624zm11.541 4.128a1.623 1.623 0 103.243 0 1.622 1.622 0 10-3.243 0zm4.084 3.783c0 .897.727 1.626 1.621 1.626.896 0 1.621-.729 1.621-1.626 0-.897-.725-1.626-1.621-1.626-.894 0-1.621.73-1.621 1.626zm0-10.911a1.622 1.622 0 103.242 0c0-.898-.725-1.626-1.621-1.626-.894 0-1.621.728-1.621 1.626zm.823 5.926c0 .897.723 1.626 1.619 1.626s1.621-.729 1.621-1.626a1.62 1.62 0 10-3.24 0zm6.657-14.011c0 .899.727 1.627 1.621 1.627.895 0 1.621-.728 1.621-1.627 0-.898-.726-1.625-1.621-1.625-.894 0-1.621.727-1.621 1.625zm-.26 9.255c0 .897.726 1.625 1.62 1.625.895 0 1.621-.728 1.621-1.625 0-.9-.726-1.626-1.621-1.626-.894 0-1.62.726-1.62 1.626zm-5.599-13.676a1.622 1.622 0 103.242 0 1.621 1.621 0 10-3.242 0zm6.657 19.634c0 .899.726 1.626 1.621 1.626.894 0 1.62-.727 1.62-1.626 0-.897-.726-1.624-1.62-1.624-.895 0-1.621.727-1.621 1.624zm-2.417 8.941c0 .897.725 1.626 1.619 1.626.898 0 1.621-.729 1.621-1.626 0-.897-.723-1.626-1.621-1.626-.894 0-1.619.729-1.619 1.626zm4.773 2.686c0 .899.726 1.627 1.621 1.627s1.621-.728 1.621-1.627c0-.895-.726-1.624-1.621-1.624s-1.621.729-1.621 1.624zm-5.036 8.063a1.622 1.622 0 103.242 0c0-.897-.727-1.626-1.62-1.626-.897 0-1.622.73-1.622 1.627zm11.713-11.442c0 .897.725 1.625 1.621 1.625s1.621-.728 1.621-1.625c0-.898-.725-1.627-1.621-1.627s-1.621.73-1.621 1.627zm-5.792-4.995c0 .897.727 1.623 1.622 1.623a1.625 1.625 0 000-3.25c-.895 0-1.622.728-1.622 1.627zm-5.163.899c0 .897.725 1.625 1.619 1.625s1.621-.728 1.621-1.625c0-.899-.727-1.627-1.621-1.627s-1.619.728-1.619 1.627zm7.995 12.354a1.622 1.622 0 103.242 0 1.62 1.62 0 10-3.242 0zm-18.326 14.15c0 .897.724 1.626 1.621 1.626a1.625 1.625 0 000-3.251c-.897 0-1.621.728-1.621 1.625zm-2.832-6.457c0 .897.726 1.625 1.621 1.625s1.621-.728 1.621-1.625c0-.898-.726-1.626-1.621-1.626s-1.621.728-1.621 1.626zm1.621 10.813c0 .898.727 1.625 1.621 1.625.895 0 1.621-.727 1.621-1.625s-.726-1.626-1.621-1.626c-.894 0-1.621.728-1.621 1.626zm13.486-3.251c0 .897.726 1.625 1.621 1.625a1.625 1.625 0 000-3.251c-.895 0-1.621.729-1.621 1.626zm-6.872 3.078c0 .898.725 1.627 1.619 1.627.896 0 1.621-.729 1.621-1.627s-.725-1.625-1.621-1.625c-.894 0-1.619.727-1.619 1.625zm1.382-4.183c0 .897.726 1.626 1.621 1.626.896 0 1.621-.729 1.621-1.626 0-.897-.725-1.625-1.621-1.625-.895 0-1.621.728-1.621 1.625zm-2.745-6.457c0 .897.727 1.625 1.621 1.625.897 0 1.621-.728 1.621-1.625 0-.898-.724-1.626-1.621-1.626-.894 0-1.621.728-1.621 1.626zm5.533.542a1.622 1.622 0 103.242 0c0-.898-.727-1.626-1.62-1.626-.897 0-1.622.728-1.622 1.626zm3.242 2.383c0 .897.726 1.625 1.621 1.625s1.621-.728 1.621-1.625-.726-1.625-1.621-1.625-1.621.728-1.621 1.625zm6.787-3.511c0 .896.725 1.625 1.621 1.625.894 0 1.619-.729 1.619-1.625 0-.898-.725-1.626-1.619-1.626-.896 0-1.621.728-1.621 1.626zm-37.367.586a1.016 1.016 0 102.03 0 1.016 1.016 0 10-2.03 0zm1.47 2.925a1.016 1.016 0 102.03 0 1.016 1.016 0 10-2.03 0zm1.382-6.263a1.017 1.017 0 102.032 0 1.017 1.017 0 10-2.032 0zm-.605-3.25c0 .56.455 1.018 1.016 1.018a1.018 1.018 0 000-2.037c-.561 0-1.016.456-1.016 1.018zm5.251 14.585c0 .56.457 1.018 1.016 1.018a1.018 1.018 0 000-2.037c-.559 0-1.016.456-1.016 1.019zm-.367-4.637c0 .56.455 1.016 1.015 1.016a1.018 1.018 0 000-2.037c-.56 0-1.015.456-1.015 1.021zm-.604-6.113a1.016 1.016 0 102.031 0 1.016 1.016 0 10-2.031 0zm-1.448-7.759c0 .562.454 1.019 1.015 1.019a1.018 1.018 0 000-2.038c-.561 0-1.015.457-1.015 1.02zm-7.608-1.572c0 .562.455 1.019 1.014 1.019a1.018 1.018 0 000-2.038c-.56 0-1.014.456-1.014 1.019zm2.982-10.673a1.017 1.017 0 102.032 0c0-.561-.455-1.018-1.015-1.018-.562 0-1.017.457-1.017 1.018zm5.057 9.125a1.017 1.017 0 102.033 0 1.017 1.017 0 10-2.033 0zm-3.501-1.063c0 .562.455 1.019 1.016 1.019a1.018 1.018 0 000-2.037c-.561 0-1.016.456-1.016 1.018zm6.59 5.202a1.016 1.016 0 102.033 0 1.016 1.016 0 10-2.033 0zm5.318 20.306c0 .56.455 1.018 1.016 1.018a1.018 1.018 0 000-2.037c-.561 0-1.016.456-1.016 1.019zm-1.901-13.025c0 .563.454 1.021 1.014 1.021a1.02 1.02 0 001.017-1.02c0-.563-.454-1.02-1.017-1.02-.56 0-1.014.457-1.014 1.02zm4.104 5.572a1.017 1.017 0 002.033 0c0-.565-.456-1.021-1.014-1.021a1.02 1.02 0 00-1.019 1.021zm-2.483 2.035a1.015 1.015 0 102.031 0 1.02 1.02 0 00-1.016-1.019c-.561 0-1.015.459-1.015 1.018zm1.469 2.602c0 .56.454 1.018 1.014 1.018a1.02 1.02 0 000-2.037c-.56 0-1.014.456-1.014 1.019zm-2.485-5.831a1.016 1.016 0 102.031 0 1.016 1.016 0 10-2.031 0zm6.353-1.624a1.017 1.017 0 102.033 0 1.017 1.017 0 10-2.033 0zm.583 2.644a1.018 1.018 0 102.033 0 1.02 1.02 0 00-1.018-1.02c-.559 0-1.015.457-1.015 1.02zm1.989 4.81c0 .56.456 1.02 1.017 1.02a1.019 1.019 0 000-2.038c-.561 0-1.017.456-1.017 1.019zm.606-3.62a1.016 1.016 0 101.016-1.016c-.563 0-1.016.453-1.016 1.016zm5.38 5.418a1.016 1.016 0 102.031 0 1.016 1.016 0 10-2.031 0zm-7.173 1.626a1.015 1.015 0 102.03 0 1.014 1.014 0 10-2.03 0zm7.848-6.87a1.014 1.014 0 102.03 0c0-.562-.454-1.02-1.017-1.02-.559 0-1.013.458-1.013 1.02zm-3.16-2.211a1.02 1.02 0 001.016 1.021c.561 0 1.014-.46 1.014-1.021 0-.56-.453-1.019-1.014-1.019a1.02 1.02 0 00-1.016 1.019zm8.819 3.23c0 .561.454 1.019 1.015 1.019a1.018 1.018 0 000-2.038c-.561 0-1.015.455-1.015 1.019zm-3.025-7.195a1.016 1.016 0 102.033 0 1.016 1.016 0 10-2.033 0zm-5.447-.586c0 .563.454 1.021 1.014 1.021.563 0 1.016-.459 1.016-1.02 0-.563-.453-1.02-1.016-1.02-.56 0-1.014.457-1.014 1.02zm10.697 5.137a1.016 1.016 0 102.031 0 1.016 1.016 0 10-2.031 0zm-2.096-2.925a1.016 1.016 0 102.031 0 1.016 1.016 0 10-2.031 0zm1.686-3.771a1.015 1.015 0 102.031 0c0-.561-.454-1.02-1.016-1.02-.561 0-1.015.459-1.015 1.02zm4.452-.737a1.016 1.016 0 102.03 0 1.014 1.014 0 10-2.03 0zM100.908 28.33a1.016 1.016 0 102.03 0c0-.564-.454-1.02-1.015-1.02-.561 0-1.015.456-1.015 1.02zm4.624-2.71c0 .563.455 1.02 1.016 1.02a1.018 1.018 0 000-2.038c-.561 0-1.016.456-1.016 1.018zm26.15 16.991a1.017 1.017 0 102.031 0 1.015 1.015 0 10-2.031 0zm-3.242-3.706c0 .562.455 1.02 1.016 1.02.561 0 1.015-.458 1.015-1.02a1.016 1.016 0 10-2.031 0zm3.977 0c0 .562.455 1.02 1.016 1.02.561 0 1.015-.458 1.015-1.02a1.016 1.016 0 10-2.031 0zm7.801 0c0 .562.456 1.02 1.016 1.02a1.02 1.02 0 000-2.038c-.56 0-1.016.456-1.016 1.018zm0-3.814c0 .563.456 1.02 1.016 1.02a1.02 1.02 0 000-2.038c-.56 0-1.016.455-1.016 1.018zm-9.141-5.549a1.016 1.016 0 102.03 0c0-.562-.454-1.018-1.015-1.018-.561 0-1.015.456-1.015 1.018zm4.721-7.173a1.017 1.017 0 102.035.003 1.017 1.017 0 00-2.035-.003zm-6.797 13.22a1.016 1.016 0 102.031 0 1.016 1.016 0 10-2.031 0zm5.318-4.42c0 .561.454 1.018 1.015 1.018a1.018 1.018 0 000-2.038c-.561 0-1.015.457-1.015 1.02zm1.815 3.922c0 .563.454 1.02 1.016 1.02a1.018 1.018 0 000-2.038c-.562 0-1.016.455-1.016 1.018zm.216-6.761a1.016 1.016 0 102.031 0 1.017 1.017 0 10-2.031 0zm1.405-2.884c0 .563.455 1.02 1.016 1.02.561 0 1.016-.457 1.016-1.02a1.017 1.017 0 10-2.032 0zm-35.444-12.107a1.017 1.017 0 102.035 0 1.017 1.017 0 00-2.035 0zm6.138 14.99a1.017 1.017 0 102.034 0 1.017 1.017 0 10-2.034 0zm3.026 1.213c0 .564.456 1.02 1.015 1.02a1.018 1.018 0 000-2.038c-.559 0-1.015.456-1.015 1.018zM100.69 18.294c0 .564.456 1.02 1.017 1.02a1.018 1.018 0 000-2.037c-.561 0-1.017.456-1.017 1.017zm13.185 4.682c0 .563.453 1.02 1.014 1.02.561 0 1.016-.457 1.016-1.02a1.016 1.016 0 10-2.03 0zm-6.939-10.055a1.018 1.018 0 102.031.002 1.018 1.018 0 00-2.031-.002zm2.68 2.872a1.016 1.016 0 102.031 0c0-.563-.454-1.02-1.014-1.02a1.02 1.02 0 00-1.017 1.02zm9.34 3c0 .563.455 1.02 1.016 1.02a1.018 1.018 0 000-2.037c-.561 0-1.016.455-1.016 1.017zm-9.08-13.88a1.016 1.016 0 102.032 0 1.02 1.02 0 00-1.017-1.02c-.561 0-1.015.457-1.015 1.02zm13.918 3.814a1.016 1.016 0 102.03 0c0-.563-.454-1.02-1.014-1.02-.563 0-1.016.457-1.016 1.02zm-7.217-1.539a1.015 1.015 0 102.028 0 1.014 1.014 0 10-2.028 0zm8.449 11.4a1.015 1.015 0 102.029 0 1.016 1.016 0 10-2.029 0zm-11.151-17.57a1.016 1.016 0 102.03 0 1.015 1.015 0 10-2.03 0zm12.317 22.305a1.017 1.017 0 102.033 0 1.017 1.017 0 10-2.033 0zm5.708-10.576c0 .563.456 1.02 1.018 1.02a1.018 1.018 0 000-2.038c-.562 0-1.018.455-1.018 1.018zm.797 7.065a1.017 1.017 0 102.033 0 1.02 1.02 0 00-1.017-1.02c-.561 0-1.016.457-1.016 1.02zm3.101-3.229a1.017 1.017 0 102.035.002 1.017 1.017 0 00-2.035-.002zm-10.772 12.462a1.015 1.015 0 102.029 0c0-.564-.453-1.02-1.014-1.02-.562 0-1.015.457-1.015 1.02zm1.015-16.124a1.016 1.016 0 102.032 0 1.017 1.017 0 10-2.032 0zm-6.069-2.211c0 .562.455 1.019 1.016 1.019a1.018 1.018 0 000-2.037c-.561 0-1.016.456-1.016 1.018zm-2.101 3.836c0 .563.457 1.02 1.016 1.02.561 0 1.016-.457 1.016-1.02a1.017 1.017 0 10-2.032 0zm-2.809 4.357c0 .562.456 1.018 1.017 1.018a1.018 1.018 0 000-2.037c-.561 0-1.017.456-1.017 1.018zm2.637 7.736a1.016 1.016 0 102.031 0 1.017 1.017 0 10-2.031 0zm-100.59-1.991v14.164l-9.661-12.04a5.994 5.994 0 00-1.917-1.551c-.75-.38-1.697-.573-2.818-.573H0v2.01h1.002c.833 0 1.385.188 1.639.558.312.453.47 1.079.47 1.869v17.537h2.627v-15.1l12.353 15.411h1.644V24.648H17.11zm-.478 49.56h-1.244l-2.665-3.291v3.291h-1.06v-6.494h1.06v3.145l2.62-3.145h1.16L13.89 70.85l2.741 3.358zm8.092-4.53c0 .678-.22 1.198-.663 1.559-.444.362-1.074.542-1.891.542h-.673v2.429h-1.059v-6.494h1.864c.809 0 1.415.165 1.817.497.404.332.605.821.605 1.467zm-3.227 1.21h.562c.543 0 .942-.095 1.196-.285.252-.19.38-.485.38-.888 0-.373-.114-.65-.341-.834-.227-.184-.582-.276-1.063-.276h-.734v2.283zm11.488 3.32l-.647-1.8h-2.474l-.634 1.8h-1.116l2.422-6.522h1.152l2.422 6.522h-1.125zm-.925-2.72l-.606-1.767a9.932 9.932 0 01-.184-.56 12.395 12.395 0 01-.162-.56c-.08.365-.197.762-.35 1.195l-.585 1.692h1.887zm8.612-2.956c-.608 0-1.087.217-1.434.65-.35.431-.523 1.027-.523 1.788 0 .796.168 1.398.503 1.807.334.408.82.612 1.454.612.276 0 .541-.027.798-.082.257-.054.525-.125.802-.21v.913c-.508.192-1.084.29-1.727.29-.949 0-1.676-.29-2.184-.865-.508-.576-.762-1.4-.762-2.473 0-.674.122-1.266.369-1.772a2.633 2.633 0 011.07-1.163c.467-.27 1.014-.404 1.643-.404.663 0 1.275.14 1.835.416l-.38.884a5.43 5.43 0 00-.694-.273 2.492 2.492 0 00-.77-.118zm11.693 2.421c0 1.058-.265 1.88-.79 2.467-.528.586-1.275.88-2.24.88-.976 0-1.728-.292-2.252-.874-.523-.582-.786-1.409-.786-2.48 0-1.074.264-1.897.79-2.471.528-.575 1.28-.861 2.258-.861.961 0 1.706.29 2.23.874.527.584.79 1.406.79 2.465zm-4.942-.001c0 .799.16 1.405.482 1.817.322.414.798.62 1.43.62.63 0 1.104-.204 1.424-.612.32-.41.48-1.017.48-1.825 0-.796-.159-1.4-.477-1.812-.315-.41-.788-.617-1.418-.617-.635 0-1.114.206-1.437.617-.322.412-.484 1.016-.484 1.812zm11.52 3.256h-1.057v-5.585H55.98v-.91h4.867v.91h-1.904v5.585zm9.865 0l-.647-1.8h-2.475l-.633 1.8h-1.116l2.422-6.522h1.152l2.421 6.522h-1.124zm-.925-2.72l-.607-1.767a9.914 9.914 0 01-.184-.56 11.977 11.977 0 01-.162-.56c-.08.365-.197.762-.35 1.196l-.584 1.691h1.887zm12.125 1.81h.5c.428-.785.787-1.666 1.077-2.643a14.74 14.74 0 00.558-2.941h3.342v5.584h.838V76h-1.02v-1.792h-4.276V76h-1.02v-2.702zm3.02-4.666c-.065.673-.23 1.453-.495 2.34a13.847 13.847 0 01-.909 2.326h2.803v-4.666h-1.399zm13.04 2.321c0 1.058-.264 1.88-.79 2.467-.528.587-1.275.88-2.24.88-.976 0-1.728-.292-2.252-.874-.523-.582-.786-1.409-.786-2.48 0-1.074.264-1.897.79-2.471.528-.575 1.28-.861 2.258-.861.961 0 1.707.29 2.231.874.526.584.79 1.406.79 2.465zm-4.942-.001c0 .799.16 1.405.482 1.817.323.414.799.62 1.43.62.63 0 1.104-.204 1.425-.612.319-.41.479-1.017.479-1.825 0-.796-.159-1.4-.476-1.812-.316-.41-.79-.617-1.418-.617-.635 0-1.114.206-1.438.617-.322.413-.484 1.016-.484 1.812zm12.039-2.42c-.607 0-1.086.217-1.434.65-.349.431-.523 1.027-.523 1.788 0 .796.168 1.398.503 1.807.334.408.82.612 1.454.612.276 0 .541-.027.799-.082.257-.054.524-.125.801-.21v.913c-.508.192-1.084.29-1.727.29-.949 0-1.676-.29-2.184-.865-.508-.576-.762-1.4-.762-2.472 0-.675.122-1.266.369-1.773a2.631 2.631 0 011.07-1.162c.467-.27 1.015-.405 1.644-.405.662 0 1.274.14 1.835.416l-.381.885a5.457 5.457 0 00-.694-.273 2.498 2.498 0 00-.77-.119zm8.181 5.676h-1.058v-5.585h-1.905v-.91h4.868v.91h-1.905v5.585zm10.771-6.494l-2.04 4.62c-.252.567-.481.977-.691 1.23-.211.253-.452.44-.729.558-.275.118-.609.177-1.002.177-.344 0-.659-.044-.953-.133v-.958c.291.115.593.172.909.172.267 0 .493-.065.674-.197.182-.132.346-.368.494-.71l-2.387-4.76h1.143l1.58 3.259c.142.307.23.513.261.617h.045c.018-.078.061-.2.132-.369l1.458-3.506h1.106zm8.786 6.494h-1.062v-5.585h-2.858v5.585h-1.058v-6.494h4.978v6.494zm9.763 0h-1.064V71.28h-2.985v2.93h-1.059v-6.495h1.059v2.656h2.985v-2.656h1.064v6.494zm8.671 0l-.647-1.8h-2.475l-.633 1.8h-1.116l2.422-6.522h1.152l2.421 6.522h-1.124zm-.925-2.72l-.607-1.767a9.97 9.97 0 01-.184-.56 11.557 11.557 0 01-.162-.56c-.08.365-.197.762-.349 1.196l-.585 1.692h1.887zm17.307.764c0 1.304-.833 1.956-2.497 1.956h-1.884v-6.494h3.952v.91h-2.892v1.727h.769c1.701 0 2.552.634 2.552 1.901zm-3.321 1.065h.762c.506 0 .88-.083 1.116-.252.235-.167.353-.436.353-.81 0-.357-.118-.617-.356-.774-.238-.16-.652-.238-1.242-.238h-.633v2.074zm11.223.891h-3.664v-6.494h3.664v.9h-2.604v1.765h2.439v.891h-2.439v2.037h2.604v.901zm8.457-4.974c0 .425-.138.77-.417 1.04-.279.27-.666.441-1.159.516v.025c.567.068.999.237 1.295.505.298.269.446.619.446 1.05 0 .606-.235 1.077-.706 1.418-.471.341-1.121.511-1.953.511-.861 0-1.551-.117-2.068-.352v-.929c.286.136.608.241.963.315.357.075.682.111.978.111 1.137 0 1.705-.373 1.705-1.119 0-.342-.17-.604-.511-.785-.341-.18-.848-.27-1.517-.27h-.78v-.855h.73c1.291 0 1.936-.345 1.936-1.035a.768.768 0 00-.329-.654c-.221-.159-.528-.24-.924-.24-.313 0-.612.042-.895.125a3.37 3.37 0 00-.883.422l-.482-.719c.665-.461 1.447-.691 2.348-.691.686 0 1.227.147 1.626.44.399.292.597.683.597 1.171zm16.406-1.52l-2.041 4.62c-.251.567-.481.977-.691 1.23-.21.253-.452.44-.729.558-.275.118-.609.177-1.002.177-.343 0-.659-.044-.952-.133v-.958c.29.115.592.172.908.172.268 0 .493-.065.674-.197.182-.132.347-.368.495-.71l-2.387-4.76h1.143l1.579 3.259c.143.307.23.513.262.617h.044c.018-.078.062-.2.133-.369l1.457-3.506h1.107zm8.775 6.494h-1.244l-2.665-3.291v3.291h-1.06v-6.494h1.06v3.145l2.62-3.145h1.16l-2.612 3.136 2.741 3.358zm9.556-3.254c0 1.058-.265 1.879-.791 2.466-.528.587-1.274.88-2.239.88-.977 0-1.728-.292-2.253-.874-.523-.582-.786-1.409-.786-2.48 0-1.074.265-1.897.791-2.471.527-.575 1.279-.861 2.257-.861.962 0 1.707.29 2.231.874.527.584.79 1.406.79 2.466zm-4.942-.002c0 .799.16 1.405.482 1.817.322.414.798.62 1.43.62.629 0 1.103-.204 1.424-.612.319-.41.479-1.017.479-1.825 0-.796-.158-1.4-.476-1.812-.316-.41-.789-.617-1.418-.617-.635 0-1.114.206-1.438.617-.322.413-.483 1.016-.483 1.812zm14.142 3.256h-1.06v-5.585h-1.841c-.234 1.895-.421 3.185-.56 3.869-.141.684-.339 1.16-.591 1.428-.254.267-.591.397-1.01.388-.216 0-.422-.036-.617-.11v-.883c.17.075.333.111.493.111.212 0 .378-.127.498-.384.119-.256.25-.823.394-1.7.144-.875.313-2.085.511-3.628h3.783v6.494zm10.409-3.254c0 1.058-.265 1.88-.791 2.466-.528.587-1.274.88-2.239.88-.976 0-1.728-.292-2.252-.874-.523-.582-.786-1.409-.786-2.48 0-1.074.264-1.897.79-2.471.528-.575 1.279-.861 2.257-.861.962 0 1.707.29 2.232.874.526.584.789 1.406.789 2.466zm-4.942-.002c0 .799.16 1.406.482 1.818.322.413.798.62 1.43.62.629 0 1.104-.205 1.424-.613.319-.41.479-1.017.479-1.825 0-.796-.158-1.4-.476-1.812-.315-.41-.789-.616-1.418-.616-.635 0-1.114.205-1.437.616-.322.413-.484 1.016-.484 1.812zm9.283-3.238h1.922c.892 0 1.535.13 1.933.391.398.26.596.673.596 1.236 0 .379-.097.694-.292.945-.195.252-.476.412-.842.476v.045c.455.086.789.256 1.004.509.213.253.32.596.32 1.028 0 .582-.202 1.04-.609 1.369-.405.33-.971.495-1.693.495h-2.339v-6.494zm1.06 2.683h1.017c.443 0 .767-.07.969-.21.204-.141.306-.38.306-.716 0-.305-.109-.526-.33-.661-.219-.136-.568-.205-1.046-.205h-.916v1.792zm0 .864v2.056h1.123c.443 0 .777-.085 1.004-.255.225-.171.339-.44.339-.806 0-.338-.117-.589-.347-.75-.229-.163-.579-.245-1.049-.245h-1.07z" fill="#F6F6F6"/></svg>