<svg width="791" height="920" fill="none" xmlns="http://www.w3.org/2000/svg"><ellipse opacity=".05" cx="335.451" cy="727.365" rx="335.451" ry="192.635" fill="#fff"/><path d="M139.495 594.513L332.13 481.589l192.635 112.924L332.13 704.116 139.495 594.513z" fill="#A858F2"/><path d="M332.13 704.116l192.635-109.603 53.141 106.281L332.13 840.289V704.116z" fill="#9B51E0"/><path d="M139.495 594.513L332.13 704.116v136.173L86.354 700.794l53.141-106.281z" fill="#BB6BD9"/><path d="M219.206 401.878l112.924-66.426 112.924 66.426-112.924 63.105-112.924-63.105z" fill="#2D9CDB"/><path d="M332.13 464.983l112.924-63.105 49.82 92.996-162.744 99.639v-129.53z" fill="#2F80ED"/><path d="M219.206 401.878l112.924 63.105v129.53l-162.744-99.639 49.82-92.996z" fill="#56CCF2"/><path d="M192.635 298.917l139.494-89.675 139.495 89.675-139.495 83.033-139.494-83.033z" fill="#fff" fill-opacity=".1"/><path fill-rule="evenodd" clip-rule="evenodd" d="M331.411 208.125a1.33 1.33 0 011.437 0L472.343 297.8a1.329 1.329 0 01-.039 2.259l-139.495 83.033a1.33 1.33 0 01-1.359 0l-139.494-83.033a1.326 1.326 0 01-.039-2.259l139.494-89.675zM195.16 298.874l136.97 81.53 136.97-81.53-136.97-88.052-136.97 88.052z" fill="#fff"/><path d="M332.13 209.242V13.285l139.494 285.632-139.494-89.675z" fill="#fff" fill-opacity=".1"/><path fill-rule="evenodd" clip-rule="evenodd" d="M331.83 11.991a1.328 1.328 0 011.493.712l139.495 285.631a1.33 1.33 0 01-1.913 1.701L331.411 210.36a1.33 1.33 0 01-.61-1.118V13.286a1.33 1.33 0 011.029-1.295zm1.628 7.042v189.484l134.887 86.713L333.458 19.033z" fill="#fff"/><path d="M332.129 209.242V13.285L192.635 298.917l139.494-89.675z" fill="#fff" fill-opacity=".1"/><path fill-rule="evenodd" clip-rule="evenodd" d="M332.429 11.991c.603.14 1.029.676 1.029 1.295v195.956c0 .452-.23.873-.61 1.118l-139.494 89.675a1.33 1.33 0 01-1.913-1.701L330.936 12.703c.271-.556.89-.851 1.493-.712zM195.915 295.23l134.886-86.713V19.033L195.915 295.23z" fill="#fff"/><path d="M332.13 63.105l112.924 225.849L332.13 355.38V63.106z" fill="#EB5757"/><path d="M332.13 63.105L219.206 288.954 332.13 355.38V63.106z" fill="#F2994A"/><circle cx="332.13" cy="378.628" fill="#fff" r="13.285"/><circle cx="332.13" cy="13.285" fill="#fff" r="13.285"/><circle cx="471.625" cy="298.917" fill="#fff" r="13.285"/><circle cx="192.635" cy="298.917" fill="#fff" r="13.285"/><circle cx="472" cy="299" r="12" stroke="#fff" stroke-width="4"/><path stroke="#fff" stroke-width="4" stroke-linecap="round" stroke-dasharray="4 8" d="M491 299h231"/><circle cx="741" cy="299" r="12" fill="#fff" stroke="#fff" stroke-width="4"/><circle cx="492" cy="494" r="12" stroke="#fff" stroke-width="4"/><path stroke="#fff" stroke-width="4" stroke-linecap="round" stroke-dasharray="4 8" d="M511 494h211"/><circle cx="741" cy="494" r="12" fill="#fff" stroke="#fff" stroke-width="4"/><circle cx="574" cy="699" r="12" stroke="#fff" stroke-width="4"/><path stroke="#fff" stroke-width="4" stroke-linecap="round" stroke-dasharray="4 8" d="M593 699h129"/><circle cx="741" cy="699" r="12" fill="#fff" stroke="#fff" stroke-width="4"/></svg>