<svg width="55" height="73" fill="none" xmlns="http://www.w3.org/2000/svg"><path d="M12.385 4.25c.188-2.656 1.688-4.031 4.563-4.031h21.156c2.875 0 4.406 1.375 4.594 4.031H12.385zm-5.437 8.656C7.416 10.062 8.76 8.5 11.885 8.5h31.282c3.124 0 4.468 1.563 4.937 4.406H6.948zm3 59.844c-6.532 0-9.813-3.25-9.813-9.688V27.626c0-6.469 3.282-9.688 9.813-9.688h35.187c6.5 0 9.813 3.25 9.813 9.688v35.438c0 6.437-3.282 9.687-8.875 9.687H9.948zm7.593-18.969c2.594 0 4.75.532 6.47 1.594-2.938 2.688-4.75 6.219-4.75 10 0 .813.093 1.594.28 2.344h3.938c-.375-.531-.594-1.313-.594-2.344 0-5.063 5.625-11.531 14.625-11.531 5.75 0 10.032 2.593 12.407 5.812V27.875c0-3.219-1.782-4.906-4.876-4.906h-35.03c-3.126 0-4.844 1.687-4.844 4.906v33.938c1.437-4.188 6-8.032 12.375-8.032zm19.97-3.718c-3.72 0-6.938-3.344-6.938-7.594-.032-4.25 3.218-7.5 6.937-7.5 3.719 0 6.907 3.156 6.907 7.437 0 4.313-3.188 7.657-6.907 7.657zm-19.97.437c-3.25 0-6.03-2.906-6.062-6.688 0-3.687 2.813-6.5 6.063-6.5 3.218 0 6.03 2.75 6.03 6.47 0 3.812-2.78 6.718-6.03 6.718z" fill="#fff"/></svg>