<svg width="75" height="60" fill="none" xmlns="http://www.w3.org/2000/svg"><path d="M32.594 5.969c-1.407 0-2.563-1.157-2.563-2.532A2.574 2.574 0 0132.594.876c1.375 0 2.531 1.156 2.531 2.563 0 1.374-1.156 2.53-2.531 2.53zm9.843 0c-1.406 0-2.562-1.157-2.562-2.532A2.574 2.574 0 0142.438.876c1.374 0 2.53 1.156 2.53 2.563 0 1.374-1.156 2.53-2.53 2.53zM3.032 5.187c-.969 0-1.75-.812-1.75-1.75 0-.968.782-1.75 1.75-1.75.938 0 1.75.782 1.75 1.75 0 .938-.812 1.75-1.75 1.75zm9.844 0c-.969 0-1.75-.812-1.75-1.75 0-.968.781-1.75 1.75-1.75s1.75.782 1.75 1.75c0 .938-.781 1.75-1.75 1.75zm9.844 0c-.938 0-1.75-.812-1.75-1.75 0-.968.812-1.75 1.75-1.75.968 0 1.75.782 1.75 1.75 0 .938-.782 1.75-1.75 1.75zm29.593 0c-.937 0-1.75-.812-1.75-1.75 0-.968.813-1.75 1.75-1.75.97 0 1.75.782 1.75 1.75 0 .938-.78 1.75-1.75 1.75zm9.876 0c-.97 0-1.782-.812-1.782-1.75 0-.968.813-1.75 1.782-1.75.937 0 1.75.782 1.75 1.75 0 .938-.813 1.75-1.75 1.75zm9.843 0c-.969 0-1.75-.812-1.75-1.75 0-.968.781-1.75 1.75-1.75.938 0 1.75.782 1.75 1.75 0 .938-.812 1.75-1.75 1.75zM12.875 16.75a2.574 2.574 0 01-2.563-2.563c0-1.374 1.157-2.53 2.563-2.53 1.406 0 2.563 1.155 2.563 2.53a2.574 2.574 0 01-2.563 2.563zm9.844 0c-1.375 0-2.532-1.156-2.532-2.563 0-1.374 1.157-2.53 2.532-2.53 1.406 0 2.562 1.155 2.562 2.53-.531.72-1 1.5-1.406 2.282-.344.156-.75.281-1.156.281zm29.593 0c-.312 0-.593-.031-.874-.156a16.862 16.862 0 00-1.657-2.688c.157-1.25 1.219-2.25 2.532-2.25 1.406 0 2.562 1.156 2.562 2.531a2.574 2.574 0 01-2.563 2.563zm9.876 0a2.574 2.574 0 01-2.563-2.563c0-1.374 1.156-2.53 2.563-2.53 1.374 0 2.53 1.155 2.53 2.53 0 1.407-1.156 2.563-2.53 2.563zm9.843-.781c-.969 0-1.75-.813-1.75-1.781 0-.938.781-1.75 1.75-1.75.938 0 1.75.812 1.75 1.75 0 .968-.812 1.78-1.75 1.78zm-69 0c-.969 0-1.75-.813-1.75-1.781 0-.938.782-1.75 1.75-1.75.938 0 1.75.812 1.75 1.75 0 .968-.812 1.78-1.75 1.78zm34.563 20c-5.688 0-10.75-5.219-10.75-11.813 0-6.593 5.062-11.562 10.75-11.562 5.718 0 10.781 4.844 10.781 11.5s-5.063 11.875-10.781 11.875zm-24.719-7.657a3.347 3.347 0 01-3.344-3.343c0-1.844 1.5-3.344 3.344-3.344 1.844 0 3.344 1.5 3.344 3.344 0 1.843-1.5 3.343-3.344 3.343zm49.313 0c-1.844 0-3.376-1.5-3.376-3.343 0-1.844 1.532-3.344 3.376-3.344 1.812 0 3.343 1.5 3.343 3.344 0 1.843-1.531 3.343-3.344 3.343zM19.374 24.97c0-1.688 1.25-3.063 2.875-3.313a16.221 16.221 0 00-.188 2.5c0 1.438.157 2.844.5 4.157-1.75-.063-3.187-1.563-3.187-3.344zm36.313 0c0 1.718-1.376 3.156-3.032 3.343.344-1.343.5-2.75.5-4.218 0-.844-.031-1.625-.156-2.407 1.531.344 2.688 1.688 2.688 3.282zM3.03 27.53a2.574 2.574 0 01-2.56-2.56 2.574 2.574 0 012.562-2.563c1.375 0 2.531 1.157 2.531 2.563 0 1.406-1.156 2.562-2.53 2.562zm69 0a2.574 2.574 0 01-2.562-2.562 2.574 2.574 0 012.562-2.563 2.574 2.574 0 012.563 2.563 2.574 2.574 0 01-2.563 2.562zM12.875 39.094c-1.844 0-3.344-1.532-3.344-3.344 0-1.844 1.5-3.375 3.344-3.375 1.844 0 3.344 1.531 3.344 3.375 0 1.813-1.5 3.344-3.344 3.344zm8.406-.313c-1.093-.562-1.906-1.718-1.906-3.031 0-1.844 1.531-3.375 3.344-3.375 2.125 0 3.687 1.969 3.281 4.031-1.688.688-3.281 1.438-4.719 2.375zm32.594-.093c-1.5-.876-3.094-1.688-4.813-2.313-.406-2.063 1.157-4 3.25-4 1.844 0 3.376 1.531 3.376 3.375 0 1.25-.782 2.375-1.813 2.938zm8.313.406c-1.844 0-3.376-1.532-3.376-3.344 0-1.844 1.532-3.375 3.376-3.375 1.812 0 3.343 1.531 3.343 3.375 0 1.813-1.531 3.344-3.344 3.344zM3.03 38.28c-1.405.001-2.56-1.155-2.56-2.53a2.574 2.574 0 012.562-2.563c1.375 0 2.531 1.157 2.531 2.563 0 1.375-1.156 2.531-2.53 2.531zm69 0c-1.406 0-2.562-1.156-2.562-2.531a2.574 2.574 0 012.562-2.563 2.574 2.574 0 012.563 2.563c0 1.375-1.156 2.531-2.563 2.531zM21.594 59.625c-4.625 0-6-1.313-6-3.625 0-6.75 8.406-16.063 22-16.063 13.625 0 22.031 9.313 22.031 16.063 0 2.313-1.406 3.625-6.031 3.625h-32zM11.78 48.781a2.52 2.52 0 01-1.469-2.281c0-1.375 1.157-2.531 2.563-2.531a2.47 2.47 0 011.625.593c-1.063 1.344-2 2.782-2.719 4.22zm51.625-.031a23.826 23.826 0 00-2.781-4.281c.438-.313.938-.5 1.563-.5 1.374 0 2.53 1.156 2.53 2.531 0 .969-.562 1.813-1.312 2.25zm-60.375-.5c-.969 0-1.75-.781-1.75-1.75 0-.938.782-1.75 1.75-1.75.938 0 1.75.813 1.75 1.75 0 .969-.812 1.75-1.75 1.75zm69 0c-.969 0-1.75-.781-1.75-1.75 0-.938.781-1.75 1.75-1.75.938 0 1.75.813 1.75 1.75 0 .969-.812 1.75-1.75 1.75zm-69 10.781c-.969 0-1.75-.781-1.75-1.75 0-.968.782-1.75 1.75-1.75.938 0 1.75.782 1.75 1.75 0 .969-.812 1.75-1.75 1.75zm69 0c-.969 0-1.75-.781-1.75-1.75 0-.968.781-1.75 1.75-1.75.938 0 1.75.782 1.75 1.75 0 .969-.812 1.75-1.75 1.75z" fill="#fff"/></svg>