<svg width="65" height="65" fill="none" xmlns="http://www.w3.org/2000/svg"><path d="M32.302 64.344C14.896 64.344.427 49.906.427 32.469.427 15.062 14.865.594 32.271.594c17.438 0 31.906 14.469 31.906 31.875 0 17.437-14.437 31.875-31.875 31.875zM14.771 44.625c0 1.563 1 2.563 2.531 2.563H47.99c.968 0 1.812-.813 1.812-1.782 0-1-.843-1.812-1.812-1.812H18.615c-.188 0-.25-.094-.25-.313V36.72l6.281-6.313c.188-.187.344-.187.5 0l5.625 5.782c.781.78 1.594 1.156 2.5 1.156.938 0 1.781-.407 2.531-1.157L41.865 30l2.281 2.344c.781.812 2 .375 2.313-.844l2.343-9.281c.282-1.032-.687-1.938-1.75-1.657l-9.218 2.313c-1.157.281-1.657 1.5-.844 2.281l2.312 2.282-5.781 5.843c-.156.219-.281.219-.438.032l-5.687-5.844c-.75-.782-1.563-1.157-2.5-1.157-.969 0-1.719.407-2.469 1.157l-4.062 4.093V18.688c0-.968-.844-1.812-1.813-1.812-.968 0-1.781.844-1.781 1.813v25.937z" fill="#fff"/></svg>