<svg width="95" height="64" fill="none" xmlns="http://www.w3.org/2000/svg"><path d="M13.51 13.031c-3.405 0-6.156-2.75-6.156-6.187A6.148 6.148 0 0113.511.687a6.155 6.155 0 016.187 6.157 6.162 6.162 0 01-6.187 6.187zm67.72 0a6.155 6.155 0 01-6.157-6.187A6.148 6.148 0 0181.23.687a6.155 6.155 0 016.187 6.157 6.162 6.162 0 01-6.188 6.187zM.166 38.906V26.688c0-6.282 4.594-10.407 11.313-10.407h4.093c6.719 0 11.282 4.125 11.282 10.407v12.218c0 1.375-1.094 2.5-2.5 2.5a2.487 2.487 0 01-2.5-2.5V27.97c0-.5-.438-.907-.938-.907-.5 0-.906.407-.906.907v33.06c0 1.532-1.25 2.75-2.781 2.75a2.734 2.734 0 01-2.75-2.75V40.906c0-.5-.438-.937-.97-.937a.96.96 0 00-.937.937v20.125c0 1.532-1.219 2.75-2.781 2.75a2.734 2.734 0 01-2.75-2.75V27.97c0-.5-.406-.907-.938-.907-.5 0-.906.407-.906.907v10.937c0 1.375-1.125 2.5-2.531 2.5a2.507 2.507 0 01-2.5-2.5zm67.719 0V26.688c0-6.282 4.594-10.407 11.281-10.407h4.125c6.719 0 11.281 4.125 11.281 10.407v12.218c0 1.375-1.093 2.5-2.5 2.5-1.406 0-2.531-1.125-2.531-2.5V27.97c0-.5-.406-.907-.906-.907s-.938.407-.938.907v33.06a2.734 2.734 0 01-2.75 2.75 2.734 2.734 0 01-2.75-2.75V40.906c0-.5-.468-.937-.968-.937-.5 0-.938.437-.938.937v20.125c0 1.532-1.25 2.75-2.781 2.75a2.734 2.734 0 01-2.75-2.75V27.97c0-.5-.406-.907-.938-.907-.5 0-.906.407-.906.907v10.937c0 1.375-1.125 2.5-2.531 2.5a2.507 2.507 0 01-2.5-2.5zM35.01 36.563a4.128 4.128 0 01-4.157-4.126c0-2.312 1.844-4.124 4.157-4.124a4.101 4.101 0 014.125 4.125 4.121 4.121 0 01-4.125 4.124zm12.437 0a4.101 4.101 0 01-4.125-4.126c0-2.312 1.813-4.124 4.125-4.124a4.101 4.101 0 014.125 4.125 4.121 4.121 0 01-4.125 4.124zm12.407 0a4.101 4.101 0 01-4.125-4.126c0-2.312 1.812-4.124 4.125-4.124a4.101 4.101 0 014.125 4.125 4.121 4.121 0 01-4.125 4.124z" fill="#fff"/></svg>