<svg width="74" height="59" fill="none" xmlns="http://www.w3.org/2000/svg"><path d="M10.114 58.219C3.583 58.219.302 55 .302 48.562V10.376c0-6.438 3.281-9.688 9.812-9.688h54.063c6.562 0 9.812 3.25 9.812 9.688v38.188c0 6.437-3.25 9.656-9.812 9.656H10.114zm3.188-33.25c-2.531 1.5-.406 5.375 2.406 3.625l9.25-5.813c1.844-1.156 1.75-3.906 0-5.031l-9.25-5.781c-2.813-1.75-4.969 2.062-2.406 3.625l7.75 4.656-7.75 4.719zm13.593 3.562c0 1.157.907 2.094 2.063 2.094h12.281a2.074 2.074 0 002.094-2.094 2.074 2.074 0 00-2.094-2.093H28.958c-1.156 0-2.063.937-2.063 2.093z" fill="#fff"/></svg>