<svg width="193" height="120" fill="none" xmlns="http://www.w3.org/2000/svg"><path d="M74.63 92.844c-1.547 0-2.765-.703-4.265-2.766-7.172-9.234-10.594-20.062-10.594-31.875 0-11.812 3.515-22.969 10.594-31.922 1.5-2.062 2.718-2.765 4.265-2.765 1.594 0 2.719.984 2.719 2.484 0 .703-.14 1.078-.656 2.063-5.907 8.906-9 19.546-9 30.187 0 11.016 3.28 21.188 9 30.047.515.984.656 1.36.656 2.062 0 1.594-1.125 2.485-2.719 2.485zm47.906 0c-1.593 0-2.718-.985-2.718-2.485 0-.703.14-1.078.656-2.062 5.719-8.86 9-19.031 9-30.047 0-10.64-3.094-21.281-9-30.188-.516-.984-.656-1.359-.656-2.062 0-1.5 1.125-2.484 2.718-2.484 1.547 0 2.766.703 4.266 2.765 7.078 8.953 10.594 20.11 10.594 31.922 0 11.813-3.422 22.64-10.594 31.875-1.5 2.063-2.719 2.766-4.266 2.766zM18.614 92.75c-4.171 0-6.328-1.172-6.328-3.703 0-1.969 1.172-3.14 3.329-3.422a16.747 16.747 0 011.734-.094c5.015 0 6.937-2.25 8.25-8.39l5.156-24.516h-5.297c-2.203 0-3.515-1.266-3.515-3.281 0-2.344 1.734-3.797 4.5-3.797h5.812l1.547-7.5c2.11-10.031 6.703-14.484 15.656-14.484 4.5 0 6.703 1.171 6.703 3.796 0 2.016-1.078 3.094-3.375 3.328a23.6 23.6 0 01-2.062.094c-5.156 0-7.031 2.438-8.297 8.39l-1.313 6.376h7.97c2.155 0 3.468 1.266 3.468 3.281 0 2.344-1.734 3.797-4.453 3.797h-8.484l-5.344 25.64C32.02 88.813 27.802 92.75 18.614 92.75zm65.86-12.328c-1.875 0-3.422-1.406-3.422-3.234 0-.938.14-1.735.797-2.626l12.14-16.734-11.437-15.281c-.61-.797-1.031-1.64-1.031-3 0-1.875 1.64-3.61 3.844-3.61 1.78 0 2.859.797 3.796 2.157L99.1 52.625h.234l9.891-14.484c.891-1.36 1.828-2.203 3.516-2.203 1.921 0 3.609 1.406 3.609 3.421 0 .985-.328 1.828-.891 2.625l-12 16.078 12 16.313c.61.797.844 1.64.844 2.531 0 1.922-1.453 3.516-3.703 3.516-1.125 0-2.25-.328-3.422-1.969l-10.5-14.86h-.188L88.225 78.22c-1.172 1.687-2.25 2.203-3.75 2.203z" fill="#fff"/></svg>