<svg width="79" height="63" fill="none" xmlns="http://www.w3.org/2000/svg"><path d="M8.833 52.156c-5.344 0-8.031-2.531-8.031-8.031V8.312c0-5.468 2.687-8 8.031-8h62.063c5.343 0 8.03 2.532 8.03 8v35.813c0 5.5-2.687 8.031-8.03 8.031H8.832zm32.656-12.968c.594 0 1.032-.407 1.157-1.032 1.78-9.437 2.656-11.218 12.5-12.531.624-.094 1.062-.563 1.062-1.188 0-.593-.438-1.093-1.063-1.187-9.812-1.313-11.093-3.188-12.5-12.5-.093-.625-.562-1.063-1.156-1.063-.625 0-1.062.407-1.218 1.032-1.782 9.5-2.626 11.219-12.47 12.531-.655.094-1.062.594-1.062 1.188 0 .625.406 1.093 1.063 1.187 9.875 1 11.093 3.094 12.468 12.5.094.656.532 1.063 1.22 1.063zm-12.687 5.28c.437 0 .781-.312.906-.75.875-4.687.563-4.906 5.688-5.656a.933.933 0 00.75-.906.876.876 0 00-.75-.875c-5.126-.843-4.813-1.062-5.688-5.625-.125-.468-.438-.843-.906-.843-.469 0-.75.343-.907.843-.937 4.563-.53 4.782-5.656 5.625-.469.063-.75.438-.75.875 0 .5.281.813.813.907 5.062.75 4.656.968 5.593 5.562.157.5.407.844.907.844zM24.145 62.75a2.54 2.54 0 01-2.53-2.531 2.54 2.54 0 012.53-2.532h31.438a2.54 2.54 0 012.531 2.532 2.54 2.54 0 01-2.531 2.531H24.145z" fill="#fff"/></svg>