<svg width="77" height="77" fill="none" xmlns="http://www.w3.org/2000/svg"><path d="M2.844 40.719c-1.25 0-2.25-1-2.25-2.25s1-2.219 2.25-2.219h6.344C10.28 21.75 21.874 10.094 36.343 9V2.719c0-1.25 1-2.25 2.25-2.25s2.218 1 2.218 2.25V9C55.313 10.094 66.906 21.75 68 36.25h6.344c1.25 0 2.25.969 2.25 2.219s-1 2.25-2.25 2.25H68c-1.094 14.5-12.688 26.156-27.188 27.25v6.25c0 1.25-.968 2.25-2.218 2.25s-2.25-1-2.25-2.25v-6.25c-14.469-1.094-26.063-12.75-27.157-27.25H2.845zm35.75-14.594c-1.25 0-2.25-1-2.25-2.25v-9.781C24.625 15.156 15.469 24.375 14.469 36.25H24c1.25 0 2.25.969 2.25 2.219s-1 2.25-2.25 2.25h-9.531c1 11.843 10.156 21.062 21.875 22.125v-9.782c0-1.25 1-2.218 2.25-2.218s2.218.968 2.218 2.218v9.782C52.563 61.78 61.72 52.562 62.72 40.719h-9.532c-1.25 0-2.25-1-2.25-2.25s1-2.219 2.25-2.219h9.532c-1-11.875-10.157-21.094-21.907-22.156v9.781c0 1.25-.968 2.25-2.218 2.25z" fill="#fff"/></svg>