<svg width="103" height="69" fill="none" xmlns="http://www.w3.org/2000/svg"><path d="M59.875 28.125c-6.719 0-12.5-6-12.5-13.813 0-7.718 5.813-13.437 12.5-13.437 6.688 0 12.5 5.844 12.5 13.5 0 7.75-5.781 13.75-12.5 13.75zm-35.969.719C18.063 28.844 13 23.594 13 16.875c-.031-6.656 5.094-11.75 10.906-11.75 5.782 0 10.875 4.969 10.875 11.688 0 6.78-5.062 12.03-10.875 12.03zM6.47 57.062c-3.938 0-5.5-1.562-5.5-4.374 0-8.657 8.812-19.063 22.906-19.063 5.844 0 10.313 1.719 13.781 4.031-6.718 5.188-10.687 14.688-7.437 19.407H6.469zM59.906 33.72c5.313 0 9.969 1.25 13.782 3.187-4.5 3.688-7.407 9.282-7.407 15.532 0 1.562.188 3.156.594 4.624H40.281c-4.937 0-6.687-1.406-6.687-4.156 0-8.062 10.093-19.187 26.312-19.187zm25.219 34.875a1.98 1.98 0 01-1.969-1.563l-.687-3.062a6.72 6.72 0 01-1.375-.563l-2.719 1.625c-.844.531-1.781.531-2.469-.219l-1.812-1.874c-.656-.657-.75-1.594-.219-2.47l1.594-2.718c-.188-.438-.344-.844-.563-1.281l-3.062-.719c-.938-.25-1.563-1-1.563-1.969v-2.656c0-.906.625-1.625 1.563-1.875l3.031-.75c.219-.469.406-.906.563-1.281l-1.72-2.782c-.53-.812-.312-1.78.344-2.437l1.844-1.844c.688-.718 1.688-.812 2.406-.343l2.72 1.718c.468-.281.874-.406 1.437-.593l.687-3.094c.219-.907 1-1.563 1.969-1.563h2.688c.968 0 1.718.625 1.937 1.563l.75 3.125c.438.156.844.281 1.375.562l2.719-1.718c.781-.5 1.719-.376 2.437.343L98.937 42c.657.625.75 1.625.25 2.438l-1.687 2.78c.156.376.344.75.563 1.282l3.031.75c.937.25 1.594.938 1.594 1.875v2.656c0 .969-.626 1.719-1.594 1.969L98 56.469c-.156.437-.281.843-.531 1.281l1.594 2.688c.53.906.468 1.812-.188 2.5l-1.844 1.874c-.75.75-1.656.75-2.469.22l-2.687-1.626c-.438.219-.938.438-1.375.563l-.75 3.062c-.219 1-.969 1.563-1.938 1.563h-2.687zm1.344-10.938c2.812 0 5.219-2.312 5.219-5.187 0-2.844-2.407-5.282-5.22-5.25-2.906.031-5.187 2.406-5.187 5.25a5.155 5.155 0 005.188 5.187z" fill="#fff"/></svg>