<svg width="75" height="59" fill="none" xmlns="http://www.w3.org/2000/svg"><path d="M10.447 58.219C3.916 58.219.635 55 .635 48.562V10.376c0-6.438 3.281-9.688 9.812-9.688H64.51c6.562 0 9.812 3.25 9.812 9.688v38.188c0 6.437-3.25 9.656-9.812 9.656H10.447zm.063-5.032h53.937c3.094 0 4.844-1.656 4.844-4.906V10.656c0-3.25-1.75-4.937-4.844-4.937H10.51c-3.125 0-4.844 1.687-4.844 4.937v37.625c0 3.25 1.719 4.907 4.844 4.907zm6.062-36.75c-1.125 0-1.937-.843-1.937-1.937 0-1.063.812-1.906 1.937-1.906H43.01c1.125 0 1.937.844 1.937 1.906 0 1.094-.812 1.938-1.937 1.938H16.572zm-2.781 20.375c-2.594 0-4.125-1.624-4.125-4.187V26.25c0-2.563 1.531-4.188 4.125-4.188h47.406c2.594 0 4.125 1.625 4.125 4.188v6.375c0 2.563-1.531 4.188-4.125 4.188H13.791zm2.813-5.437h15.375c1.124 0 1.937-.844 1.937-1.938 0-1.062-.813-1.906-1.937-1.906H16.604c-1.125 0-1.97.844-1.97 1.907 0 1.093.845 1.937 1.97 1.937zm-.032 14.906c-1.125 0-1.937-.812-1.937-1.875 0-1.093.812-1.968 1.937-1.968H43.01c1.125 0 1.937.874 1.937 1.968 0 1.063-.812 1.875-1.937 1.875H16.572z" fill="#fff"/></svg>