<svg width="0" height="0" style="position:absolute"><symbol viewBox="0 0 24 24" id="arrow--down" xmlns="http://www.w3.org/2000/svg"><path d="M11.63 0c.661 0 1.131.457 1.131 1.118v16.733l-.089 2.706 3.8-4.167 2.896-2.846c.203-.204.495-.305.8-.305.636 0 1.093.482 1.093 1.105 0 .305-.102.572-.343.826l-8.436 8.449a1.15 1.15 0 0 1-.851.381c-.318 0-.61-.127-.852-.381l-8.423-8.45c-.242-.253-.356-.52-.356-.825 0-.622.457-1.105 1.093-1.105.305 0 .61.101.8.305L6.79 16.39l3.811 4.18-.101-2.72V1.119C10.5.458 10.97 0 11.63 0Z"/></symbol><symbol viewBox="0 0 25 24" id="arrow--left" xmlns="http://www.w3.org/2000/svg"><path d="M24.63 12c0 .66-.457 1.13-1.118 1.13H6.78l-2.706-.088L8.24 16.84l2.846 2.896c.203.204.305.496.305.8 0 .636-.483 1.094-1.106 1.094-.305 0-.571-.102-.825-.343L1.01 12.85A1.15 1.15 0 0 1 .632 12c0-.318.127-.61.38-.851l8.45-8.424c.254-.241.52-.355.825-.355.623 0 1.106.457 1.106 1.092 0 .305-.102.61-.305.8L8.24 7.16l-4.18 3.812 2.719-.102h16.732c.661 0 1.119.47 1.119 1.131Z"/></symbol><symbol viewBox="0 0 25 24" id="arrow--right" xmlns="http://www.w3.org/2000/svg"><path d="M.63 12c0-.66.458-1.13 1.119-1.13H18.48l2.706.088L17.02 7.16l-2.846-2.896c-.203-.204-.305-.496-.305-.8 0-.636.483-1.093 1.106-1.093.305 0 .571.101.825.343l8.45 8.436c.253.241.38.533.38.851 0 .318-.127.61-.38.851l-8.45 8.424c-.254.241-.52.356-.825.356-.623 0-1.106-.458-1.106-1.093 0-.305.102-.61.305-.8l2.846-2.897 4.18-3.812-2.719.102H1.75C1.088 13.13.63 12.66.63 12Z"/></symbol><symbol viewBox="0 0 24 24" id="arrow--up" xmlns="http://www.w3.org/2000/svg"><path d="M11.63 24c-.66 0-1.13-.457-1.13-1.118V6.149l.089-2.706-3.8 4.167-2.896 2.846c-.203.204-.495.305-.8.305C2.457 10.761 2 10.28 2 9.656c0-.305.102-.572.343-.826L10.779.381A1.15 1.15 0 0 1 11.63 0c.318 0 .61.127.852.381l8.423 8.45c.242.253.356.52.356.825 0 .622-.457 1.105-1.093 1.105-.305 0-.61-.101-.8-.305L16.47 7.61 12.66 3.43l.101 2.72v16.732c0 .66-.47 1.118-1.13 1.118Z"/></symbol><symbol viewBox="0 0 48 48" id="cancel" xmlns="http://www.w3.org/2000/svg"><path d="M8.84 39.46c-1.133-1.113-1.094-3.086-.04-4.14l11.173-11.172L8.8 13.015c-1.055-1.075-1.094-3.028.039-4.16 1.133-1.153 3.105-1.114 4.16-.04l11.152 11.153L35.305 8.815c1.093-1.093 3.008-1.093 4.14.04 1.153 1.132 1.153 3.046.04 4.16L28.351 24.148 39.484 35.3c1.114 1.113 1.094 3.008-.039 4.16-1.113 1.133-3.047 1.133-4.14.04L24.152 28.346 13 39.499c-1.055 1.074-3.008 1.094-4.16-.039Z"/></symbol><symbol viewBox="0 0 24 24" id="consulting" xmlns="http://www.w3.org/2000/svg"><path d="M.24 18.414v-4.14c0-.694.528-1.124 1.143-1.124.351 0 .722.157 1.035.47.42.429 1.016 1.034 2.168 1.034a2.639 2.639 0 0 0 2.656-2.675c-.01-1.495-1.181-2.686-2.656-2.686-1.152 0-1.748.605-2.168 1.035-.313.313-.684.469-1.035.469-.615 0-1.143-.43-1.143-1.123v-4.21c0-2.03 1.055-3.095 3.076-3.095h12.032c2.04 0 3.105 1.055 3.105 3.057V9.4c0 .205.156.284.352.147.508-.361 1.103-.654 1.875-.654 1.738 0 3.047 1.318 3.047 3.076s-1.309 3.076-3.047 3.076c-.772 0-1.367-.293-1.875-.654-.196-.137-.352-.059-.352.136v3.916c0 2.012-1.064 3.057-3.105 3.057H3.316C1.295 21.5.24 20.436.24 18.414Z"/></symbol><symbol viewBox="0 0 24 24" id="development" xmlns="http://www.w3.org/2000/svg"><path d="M2.563 21.512c-1.659-1.669-1.65-3.91-.018-5.531 1.18-1.172 2.559-1.632 4.715-3.047l-5.269-5.26C.613 6.287.613 4.815 1.954 3.465l1.322-1.322c1.35-1.35 2.84-1.35 4.219.038l5.175 5.203c-.497-1.819-.057-3.816 1.34-5.203 1.735-1.754 4.5-2.025 6.675-.666l-1.06 1.06-1.509 1.509c-.243.243-.225.534.029.797l1.059 1.059c.253.253.544.244.787.01l1.52-1.52 1.05-1.059c1.359 2.194 1.087 4.96-.657 6.703-1.603 1.604-4.003 1.94-6.019 1.04a43.4 43.4 0 0 0-1.331 1.388l4.162 4.154.938.056c.328.019.666.234.853.562l1.725 3.075c.169.32.206.591 0 .797l-1.266 1.266c-.215.215-.478.178-.787.01l-3.094-1.745c-.328-.178-.544-.515-.562-.825l-.057-.946-3.975-3.975c-2.55 3.28-2.925 5.1-4.406 6.6-1.612 1.622-3.853 1.63-5.522-.02ZM17.03 5.696c-.722-.712-.75-1.603-.056-2.297l1.265-1.265c-1.162-.15-2.362.215-3.206 1.068-1.547 1.52-1.481 4.079.14 5.7 1.632 1.613 4.173 1.688 5.7.15.863-.853 1.229-2.053 1.07-3.234l-1.285 1.284c-.666.666-1.556.647-2.269-.056l-1.359-1.35Zm-8.194 2.69c.169.179.469.15.61 0 .178-.187.187-.468.009-.637l-3.6-3.59a.422.422 0 0 0-.61 0 .422.422 0 0 0 0 .61l3.591 3.618ZM7.56 9.635c.178.178.46.178.628 0a.422.422 0 0 0 0-.61l-3.61-3.609a.439.439 0 0 0-.608 0 .456.456 0 0 0 0 .637l3.59 3.582Zm6.59.28a4.677 4.677 0 0 1-.459-.505C7.326 15.596 5.77 14.92 3.613 17.077c-.984.985-1.022 2.316.02 3.366 1.04 1.04 2.38 1.003 3.365.019 2.156-2.156 1.472-3.713 7.668-10.088a4.745 4.745 0 0 1-.515-.46ZM5.292 19.919a1.112 1.112 0 0 1-1.115-1.116c0-.609.497-1.115 1.115-1.115.62 0 1.116.506 1.116 1.115 0 .62-.497 1.116-1.116 1.116Z"/></symbol><symbol viewBox="0 0 24 24" id="education" xmlns="http://www.w3.org/2000/svg"><path d="M23.074 5.764c.6.269.912.764.912 1.276s-.313.998-.912 1.276l-8.48 3.88c-.912.417-1.659.608-2.388.59-.729.018-1.467-.165-2.378-.59L6.06 10.477l5.295-2.465c.269.078.573.122.885.122.99 0 1.936-.452 1.936-1.094 0-.625-.955-1.076-1.936-1.076-.99 0-1.953.45-1.953 1.076 0 .06.017.121.052.174L4.724 9.835l-3.377-1.52C.748 8.039.436 7.553.436 7.04c0-.512.312-1.007.911-1.276l8.48-3.88c.912-.408 1.65-.6 2.38-.59.728-.01 1.475.182 2.387.59l8.48 3.88Zm-17.04 6.085 3.264 1.502c1.05.477 2.006.711 2.908.703.912.008 1.867-.226 2.917-.703l5.66-2.605v2.76c0 2.7-3.473 4.897-8.577 4.897-2.534 0-4.67-.547-6.171-1.45V11.85ZM3.63 10.755l1.128.521v4.653c-.72-.764-1.128-1.667-1.128-2.422v-2.752Zm.373 8.264c0-.573.287-.99.755-1.146V15.93c.348.382.773.729 1.277 1.024v.92c.46.165.746.582.746 1.146v2.257c0 .73-.477 1.207-1.215 1.207h-.347c-.73 0-1.216-.478-1.216-1.207v-2.257Z"/></symbol><symbol viewBox="0 0 40 36" id="logo" xmlns="http://www.w3.org/2000/svg"><path fill-rule="evenodd" clip-rule="evenodd" d="M13.367 23.801H26.76s.706 1.857.587 3.342c-.118 1.472-.434 2.64-1.097 3.393-.884.986-1.862 1.675-2.934 2.066-1.071.391-2.933.587-5.586.587h-2.526c-2.228 0-3.554-.085-3.98-.255-.425-.17-.74-.434-.943-.791a2.054 2.054 0 0 1-.103-.238c.081-.647.362-1.528.842-2.645l2.347-5.459Zm-3.495 2.52L21.122 0h.893l12.041 28.776c.97 2.312 1.845 3.817 2.628 4.515.799.68 1.904 1.063 3.316 1.148v.944H0v-.944h1.301c1.463 0 2.509-.476 3.138-1.429.357-.544.535-1.802.535-3.775V6.913c0-2.16-.238-3.512-.714-4.056-.663-.748-1.65-1.122-2.959-1.122H0V.79h15.663v.944c-1.837-.017-3.129.153-3.877.51-.732.357-1.233.808-1.505 1.352-.273.544-.409 1.845-.409 3.903v18.82ZM20.18 7.934l5.867 13.98H14.158l6.02-13.98Z"/></symbol><symbol viewBox="0 0 32 32" id="mail" xmlns="http://www.w3.org/2000/svg"><path d="M28.738 5.333a1.777 1.777 0 0 0-.364 0H3.484c-.159.003-.317.027-.47.071l12.844 12.792 12.88-12.863Z"/><path d="M30.053 6.569 17.11 19.458a1.778 1.778 0 0 1-2.506 0L1.777 6.667c-.04.145-.06.294-.062.444V24.89a1.778 1.778 0 0 0 1.778 1.778h24.889a1.778 1.778 0 0 0 1.777-1.778V7.11a1.779 1.779 0 0 0-.106-.542ZM4.71 24.889H3.475v-1.271l6.462-6.41 1.253 1.254-6.48 6.427Zm23.654 0h-1.245l-6.48-6.427 1.254-1.253 6.462 6.409.009 1.27Z"/></symbol><symbol viewBox="0 0 24 24" id="message" xmlns="http://www.w3.org/2000/svg"><path d="M6.85 22.625c-.586 0-.938-.42-.938-1.055v-2.832h-.39c-2.833 0-4.522-1.68-4.522-4.58V6.58C1 3.68 2.65 2 5.59 2H18.04c2.94 0 4.59 1.68 4.59 4.58v7.578c0 2.9-1.65 4.58-4.59 4.58h-6.406L8.04 21.98c-.479.45-.791.645-1.191.645ZM6.654 7.703H16.88a.642.642 0 0 0 .635-.644.631.631 0 0 0-.635-.625H6.654a.623.623 0 0 0-.625.625c0 .351.274.644.625.644Zm0 3.223H16.88a.634.634 0 0 0 .635-.635.64.64 0 0 0-.635-.635H6.654a.631.631 0 0 0-.625.635c0 .352.274.635.625.635Zm0 3.232h6.66a.636.636 0 0 0 0-1.27h-6.66a.628.628 0 0 0-.625.645c0 .342.274.625.625.625Z"/></symbol><symbol viewBox="0 0 32 32" id="ok" xmlns="http://www.w3.org/2000/svg"><path d="M12.689 31c-.865 0-1.505-.363-2.11-1.107L1.622 18.69C1.19 18.153 1 17.65 1 17.133c0-1.193.882-2.058 2.092-2.058.761 0 1.28.277 1.781.95l7.747 9.943L27.645 2.107C28.165 1.294 28.665 1 29.513 1c1.21 0 2.04.83 2.04 2.023 0 .467-.138.951-.501 1.504l-16.254 25.35c-.501.743-1.193 1.123-2.11 1.123Z"/></symbol><symbol viewBox="0 0 22 22" id="other" xmlns="http://www.w3.org/2000/svg"><path d="M3.943 16.79C1.834 16.79.74 15.704.74 13.614v-9.95C.74 1.574 1.834.5 3.943.5h9.883c2.11 0 3.203 1.084 3.203 3.164v1.553h1.66c2.11 0 3.204 1.084 3.204 3.174v9.873c0 2.08-1.094 3.164-3.204 3.164H8.885c-2.11 0-3.203-1.084-3.203-3.164v-1.475H3.943Zm.118-1.915h1.62V8.391c0-2.09 1.094-3.174 3.204-3.174h6.24V3.83c0-.947-.508-1.426-1.406-1.426H4.06c-.909 0-1.407.479-1.407 1.426v9.629c0 .947.498 1.416 1.407 1.416Zm10.234 2.559c.195 0 .342-.147.38-.342.538-2.979.84-3.526 3.927-3.936a.385.385 0 0 0 .351-.39c0-.196-.146-.352-.351-.391-3.067-.41-3.467-.967-3.926-3.916-.03-.205-.186-.352-.381-.352s-.352.137-.4.342c-.528 2.989-.83 3.516-3.907 3.926-.215.04-.361.195-.361.39 0 .206.146.362.361.391 3.067.352 3.457.947 3.907 3.926.039.205.185.352.4.352Zm-4.063 1.66c.147 0 .254-.098.293-.244.264-1.475.186-1.534 1.787-1.788.147-.029.254-.146.254-.283a.302.302 0 0 0-.254-.293c-1.601-.254-1.523-.312-1.787-1.767-.039-.156-.136-.274-.293-.274-.146 0-.253.108-.302.274-.274 1.445-.166 1.494-1.778 1.767a.294.294 0 0 0-.244.293c0 .157.098.254.274.284 1.582.244 1.474.302 1.748 1.767.049.156.146.264.302.264Z"/></symbol><symbol viewBox="0 0 24 24" id="personal" xmlns="http://www.w3.org/2000/svg"><path d="M12.252 11.565c-2.129 0-3.936-1.895-3.936-4.327C8.306 4.855 10.133 3 12.252 3c2.12 0 3.935 1.826 3.935 4.219 0 2.45-1.796 4.346-3.935 4.346Zm-6.504 9.082C4.654 20.646 4 20.128 4 19.27c0-2.52 3.184-5.977 8.252-5.977 5.059 0 8.252 3.457 8.252 5.977 0 .859-.664 1.377-1.758 1.377H5.748Z"/></symbol><symbol viewBox="0 0 40 40" id="soc-habr" xmlns="http://www.w3.org/2000/svg"><path d="m1.9 15.492.283.421c-.566-.016-1.16-.071-1.273-.315 0-.011.003-.023.007-.035.316-.083.588-.088.983-.071Zm3.01 1.283.137.417-.32.013.076-.427c.036 0 .072 0 .107-.003ZM6 19.817c-.283.26-.502.433-.67.828-.233-.192-.355-.572-.43-.997-.083-.463-.11-.978-.173-1.363l.02-.197.328-.023.837 1.583.088.167v.002Zm-.423-3.904c.041-.284.084-.569.128-.853l.108-.007c-.08.287-.16.574-.236.86Zm-.229-3.87 1.5.407a3.272 3.272 0 0 0-.006.067c-.699.516-1.344.743-1.69 1.676l.131-2.076.065-.072v-.002Zm1.4-2.15c-.096.967.04 1.394.209 1.994.266.19.373.305.286.586-.45-.223-.926-.456-1.616-.42a4.566 4.566 0 0 1-.05-.058c.193-.762.57-1.23.861-1.833l.312-.27-.002.001Zm2.157-1.286.065-.005c-.207.713-.29 2.358-.652 3.011-.855-.405-.838-2.16.119-2.853l.468-.153Zm-.797 5.283.72.782c-.283.87-.818 1.525-1.045 2.533l-.425-.033c-.363-1.015.545-2.669.7-3.409l.667.077c.083.208.163.417.245.627l-.862-.577Zm1.97-5.29c-.073.845.114 1.283.164 1.937l-1.272.645a8.77 8.77 0 0 1 .622-2.545l.486-.037Zm.494-1.283.095-.007-.143.412-.282.018.216-.255.114-.168Zm.095 3.941-1.274.784c.027-.474.63-1.112 1.135-1.289l.117.064.022.441Zm.85-2.963c-.079.437-.155.872-.23 1.308l-.239.15-.126.139c-.23-.324-.289-1.117-.239-1.72l.834.123Zm.847-.983c0 .016-.004.03-.006.043l-.325.312c-.216.083-.243.08-.516.07.035-.142.075-.284.113-.425h.733Zm.85-1.72-.38.858-1.317-.095.005-.07c.541-.25 1.017-.547 1.69-.695l.002.002Zm-.687 2.233.14-.083.122.43-.425-.084.163-.265v.002Zm1.11 1.272c-.505.196-1.204.141-1.609.366l-.088-.516.264-.345c.428.166.856.336 1.283.505l.15-.01Zm-1.085.773-.577.022c-.013-.06-.023-.12-.035-.182.405-.165 1.085-.18 1.697-.248l-.645.355-.44.053Zm1.508 0c-.485.122-.95.55-1.268.883-.062-.39.687-1.076 1.045-1.291.158.141.175.126.223.408Zm.85-5.138-.007.066-.51.309-.756.055.006-.067 1.267-.363Zm-.687 1.29-.163-.242c.383-.322 1.229-.145 1.698-.097l-1.534.339Zm3.797-1.267c.709.058 1.357.225 1.85.533L20 5.28l-.078.11-.678.2c-.409-.057-.817-.117-1.224-.175l-2.686-.382.006-.055a8.958 8.958 0 0 1 2.68-.221v-.002Zm2.822-.227-.15.204a2.05 2.05 0 0 1-1.117-.43l1.274.161-.007.065Zm2.26 1.59.351-.133.366.313c-.05.359-.395.652-.66 1l-.204.014c-.553-.917-1.252-1.919-2.476-2.272l-.054-.108.495-.2c.832.29 1.525.73 2.297.983.1.242.068.16-.117.403h.002Zm1.023 2.039-.096-.095-.21.015.35-.334-.044.414Zm.375 4.746c.573.497.72 1.217.482 2.15-.247-.553-.492-1.108-.74-1.661.083-.124.162-.247.243-.37.005-.04.009-.08.015-.119Zm.167-3.866-.007.08-.302.345-.116-.229c.181-.325.05-.15.288-.183l.137-.013Zm.353-.005 1.343.498a1.75 1.75 0 0 1-.011.133c-.114.079-.227.154-.34.229l-1.345-.497.011-.135.342-.228Zm2.617 1.721-.745-.495-.104-.2c.324-.2.277-.19.619-.123.075.273.153.547.23.818Zm.423-.163-.15.163c-.18-.093-.212-.211-.273-.431l.388.17.035.098Zm-.316-1.232-.107.009c.116-.112.233-.224.353-.334-.083.109-.166.217-.246.325Zm2.015 2.164-.209.091-1.135-.638-.355-.483c.588-.434.61.07 1.165.345l.534.685Zm.423.38-.423-.155.255-.134.168.289Zm-.517.693c.154.308.154.222.517.175l-.652.563-.622-1.186.009-.074c.458-.098.605.067 1.053.134l.172.276-.477.112Zm.094.772.848-.464c-.17.384-.392.58-.654.86l-.194-.396Zm1.696 1.641c-.23.199-.38.262-.815.299l.35.038-.006.062-1.196.506-.03-1.533.824-.975.15-.072.723 1.675Zm-.425-2.353c2.343-.653 1.89.59.845 1.538-.283-.511-.565-1.025-.845-1.538Zm2.122.248c-.864 4.057-1.03 4.279-4.084 6.022a5.61 5.61 0 0 0-.16-.242l.109-.453c1.992-.567 3.123-1.61 3.005-3.972l.998-1.283.132-.072Zm.103 0c-.033-.14-.067-.28-.103-.42l.316-.01-.213.43Zm-5.195 3.945.03-.448.027-.383.293-.099c.015 0 .029-.003.042-.005.083.509 0 .884-.167 1.292-.143-.092-.172-.13-.225-.357Zm-1.697 3.764.007-.075.557-1.332.117-.28.98.067c.014.073.024.145.03.213.043.507-.132.912-.312 1.44l-1.379-.033Zm.425 1.726.012-.666.017-.167.716.053.104-.008c-.165.272-.329.543-.49.817l-.358-.029Zm-.42-2.783.044-.022.338-.175.038-.003-.05.178-.198.682-.177-.607.006-.053Zm-.661 2.142-.192-.192c.187.13.065.003.192.192Zm-1.04-.512c.238-.15.496-.103.85-.1l-.105.345c-.292.117-.334.073-.662.038l-.083-.283Zm.52 1.61.328.777c-.253.171-.508.341-.762.515-.226-.312.02-1.184.434-1.292Zm-.838-2.7-.107.008.14-.318-.034.31Zm1.221.12-.055-.035.187-.393.061-.002.177.413-.37.017Zm2.939-5.592-.024-.145c.112-.136.184-.221.375-.283l.05.253c-.083.055-.166.109-.248.165l-.153.01Zm-.024 1.05c-.076.102-.213.159-.31.24l-.115-2.15.425 1.91Zm-.778 2.884c.28-.157.32-.012.353.366h-.848l.015-.133.48-.233Zm-.417-1.189.192-.163.155.277-.072.153-.353-.042.078-.225Zm-.078 1.14-.442.417-.288-.048-.117.011c.067-.131.137-.263.205-.393l.642.013Zm-1.6-.245c-.177-.123-.05-.106-.083-.2l.083.2Zm1.337-1.92-1.434-.743c.067-.983.187-2.113.09-3.127 1.105.4 2.097 2.199 1.343 3.87Zm-1.009 0c.352.187.333.357.822.507.085.318-.045.445-.248.783l-.52-.02c-.107-.566.01-.891-.054-1.27Zm.097 2.782c-.178-.123-.05-.107-.084-.2l.084.2Zm2.872-4.14.005-.08.383-.282c.066.44.041 1.174-.059 1.72-.226-.176-.268-.923-.33-1.358Zm0 1.358c.086-.143.173-.286.256-.43l-.15.424-.107.006Zm2.475-1.285.071-.005c.02 1.649-.996 1.949-2.333 2.567l-.213.015.833-1.727 1.642-.85Zm-2.517-3.22c.013.044.028.085.04.129l-.105.076-.319-.43.384.225Zm-.384.717.012-.075.093-.007.32.43c-.246-.116-.286-.145-.425-.348Zm.424 1.1-.572.538-1.228-1.783-1.593-1.383.35-.274c.771.334 2.121.969 2.393 1.762.088.258-.217.472-.01.687.247.256.493.073.662.451l-.002.002Zm-3.58 2.688.13.052.056 1.24-.198-.047c-.187-.138-.317-.778-.146-1.056l.158-.189Zm-.94 2.157.136-.005.142.337-.216.083-.209.01c.05-.142.1-.283.147-.425ZM24 25.377l-.183-.629c.261-.075.521-.15.783-.228l.067-.003a.88.88 0 0 0-.009.058l-.658.802Zm-.608-1.72c.078-.254.133-.292.275-.432l.116.047.034.11-.262.256-.163.017v.002Zm.2.43-.2-.22.425-.21-.11.421-.115.009Zm-.447 1.95c-.06-.047-.116-.095-.177-.145l.13-.009.655-.506.064.516-.502.344-.17-.2Zm.034 4.926c-1.022.044-1.634-.216-2.467-.29l-.955-1.888-.184-.19c1.604-.19 2.612-.963 3.8-1.498.42.4 1.372 2.436.534 3.338-.2.308-.424.34-.729.528Zm-4.387-2.121.383-.025c.578.388.972 1.083 1.248 1.721l-1.698-.491c.127-.43.18-.867.067-1.205Zm-1.22-1.624 1.913-.551 3.007.293.053.152c-.895.403-1.913.743-2.94 1.263-1.111.088-1.38-.327-2.15-.6l.117-.557Zm-.119 2.027.039-.373.732-.055c.06.325.123.506.033.86l-.804-.434v.002Zm-.85.673.285-.156c.35-.232.612.076.989.198l-.15.147-1.123-.189Zm.825-.671a27.507 27.507 0 0 1-.276-.125l-.123-.305.424.026-.024.404Zm-1.248 0 .425.365c0 .225-.02.2-.072.495l-.353-.86Zm-1.1-1.612c.399-.122.929-.095 1.525-.108l-.555.43-1.142-.112.172-.21ZM14.06 6.08c.788-.753 2.765-.528 3.26-.05l.133-.012c-.658.615-1.678.685-2.304 1.294-.492-.327-.899-.537-1.089-1.232Zm4.333 1.232.334.378c-.297.017-.608.035-.92.062-.702.06-1.395.165-1.88.416l-.063.004-.106-.165a6.073 6.073 0 0 1 2.574-.69l.061-.005Zm1.654-2.15c.548.55 1.366.876 1.65 1.72-1.15-.535-2.92-.527-3.817-1.379.79.169 1.463.105 2.167-.341Zm.378 3.01 1.573.216.124-.01-1.262 1.084c-.2-.399-.247-.939-.435-1.29Zm2.022 1.84-.325-.05.423-.07-.1.12h.002Zm-.325-1.029.388-.381.035.43-.282-.062-.141.013Zm.77 14.234-.187.008-.16-.15.123-.162.3-.116-.076.42Zm-.338.786c.05-.06.103-.12.156-.18l.014-.166.246.391-.425.039.008-.084Zm-.169 1.374-.263-.317.848-.113-.405.416-.18.014Zm.16 1.29-.848-.102.6-.328.248.43Zm-.595-1.214.172.164-.615.156-.659.034.917-.43.185.076ZM19.577 6.882c.495.013 1.018.138 1.271.43-.341-.034-.956.021-1.111-.242l-.16-.188Zm.43 1.72c.241.211.326.461.283.86-.373-.129-.276-.537-.283-.86Zm.416 2.711.016-.073c.845-.183 1.026.11.641.373-.333-.046-.485-.171-.656-.3Zm1.089 11.052.185.047-.007.06-.417.323.174-.425.065-.005Zm-.233-10.49.316-.262.102.43-.424-.093.004-.075h.002Zm1.266 11.5-1.025.268-.247.012c0-.013.004-.028.007-.042.383-.076.63-.203.857-.388l.36.067.048.083Zm-.732-1.01-.116-.238.291-.192.134.072-.167.346-.141.012Zm-2.661 2.975.505-.393 1.563.133.053.117-1.056.61c-.392-.065-.73-.239-.933-.477l-.132.01Zm-.785.037.783.43-1.271-.225c.163-.067.324-.137.488-.205Zm-.064.878-.005.103-.241.134-.178.023.006-.103c.185-.245.153-.164.417-.157h.002Zm-2-17.505a9.753 9.753 0 0 0-.121-.128c.422-.23 1.087-.34 1.74-.392.538-.045 1.068-.05 1.448-.058l.207 1.29c-.555-.06-1.084-.134-1.655-.159a8.667 8.667 0 0 0-1.48.054 69.825 69.825 0 0 0-.139-.607Zm.624 17.258.103.184-.1.385-1.171.09c.124-.384.311-.569.513-.86l.655.201Zm-1.447-1.491c-.533-.03-1.263-.42-1.42-.86l1.698.431-.278.429Zm.597-.024-.319.024.01-.104.354-.326c-.017.135-.03.27-.045.406ZM14.91 8.765l.517-.163.332.416-.35.014-.499-.267Zm-.007 18.467c-.028.093-.053.188-.08.283a1.495 1.495 0 0 0-.123.012l-.215-.43.425.043-.007.092Zm.236-1.855.99.2.053.133-.768.957-.929-.137.654-1.153Zm7.406-13.48.192-.282.07-.002.533.134.053.076-.595.22a92.177 92.177 0 0 0-.253-.146Zm1.148-1.39-.3-.184c.305.112.13-.015.3.184Zm-.096 1.966-.204-.173.425-.257-.221.43Zm-.204 3.01.66.164c.179.07.174.088.189.266-.284-.108-.757-.183-.849-.43Zm.067-1.171.09-.117.268.428-.425-.083.067-.228Zm-8.595 14.151.045.114-.572.218-.278.022.007-.059.195-.305c.27-.125.277-.043.603.01ZM13.637 6.88c.37.277.466.617.408 1.722-.243-.312-.392-.974-.408-1.72V6.88Zm.243-.858-.03.311-.211.015.243-.326h-.002Zm-.243.43c-.012.103-.02.206-.034.31l-.391-.072.323-.232.1-.006h.002Zm0 24.946.21-2.19 1.487-.391-1.564 2.501-.133.08Zm.105-5.886.228-.135c.208.246.022.601-.175.86-.163-.154-.181-.25-.138-.599l.085-.126Zm-1.379-.21.489-.785.783.46c-.267.42-.538.84-.808 1.26-.243-.217-.393-.535-.463-.934v-.001Zm0 3.368.784-.713.368.033.122.2c-.034.21-.064.418-.094.627l-1.18-.147Zm-1.271-.583.933-.56.71.111.054.099-.749.65c-.373-.039-.621-.139-.816-.309l-.134.009h.002Zm-.125-.832.341-.158.147.031.06.07-.988.329-.284-.1.724-.172Zm-1.149-.403.25-.605c.464-.06.574.168.922.313l.1.153-.518.355-.422.029-.332-.245Zm-.85 1.765.619-1.09c.41 0 .46.033.628.25.075.126.01.058-.153.086l-.038.375.643.1c-.127.315-.147.274-.337.474-.633.033-.92-.087-1.362-.195Zm-.713-1.52 1.078.325.06.128-.691.837-1.005-.33.558-.96ZM4.1 25.933l.013-.128.602.463.052.124c-1.252.966.663 4.116 2.841 2.075l.937.376c-.36.642-.978.895-1.63 1.259-1.558.13-3.738-2.415-2.815-4.169Zm1.453.44.024.292c-.117-.088-.234-.173-.347-.262l-.078-.168.401.138ZM7.697 28.2l-.775.6c-1.527.16-2.145-.897-2.195-2.195l.298-.36.13-.01c.768.605 1.448 1.528 2.492 1.833l.05.132Zm-1.479-6.267c-.138-.1-.146-.15-.216-.32l.29-1.103.338-.297.218.32-.63 1.4Zm-.216.372.668-1.582.137-.08c.308.544.755.79.89 1.529L6.69 23.223a2.038 2.038 0 0 1-.69-.916l.002-.002Zm1.271 1.317.85-.829.422.862a158.61 158.61 0 0 0-1.272-.033Zm2.12-8.692c-.401.858-.936 1.442-1.256 2.273-.14-.755.703-1.84.975-2.506l.13-.075.151.308Zm0-2.367c.632-.195 1.055-.551 1.507-.951l.192.573-.537.717-1.162-.339Zm2.122.045-.23.294-.193-.034.003-.046.387-.35.033.136Zm-.333-1.853.066-.003.267.561-.1.299c-.388-.204-.373-.445-.233-.857Zm-.08 12.468.391.282-.401-.177c.002-.035.005-.07.01-.105Zm-.007.432.42.182a1.395 1.395 0 0 0-.007.05l-.9.628c-.258-.117-.29-.348-.366-.6l.008-.053.845-.207Zm-1.255-.862.403.164-.216.125-.209.023.022-.312Zm-.022-8.6c.51.144.349.047.37.429-.233-.137-.25-.2-.37-.429Zm0 7.682.035-.372c.199.139.267.22.39.43l-.425-.058Zm.85-5.372c-.16.205-.153.15-.425.269l.185-.43.24.161Zm0-1.73-.266.279c-.267-.15-.142-.09-.022-.369l.159-.061.13.151Zm-.034-.731-.39-.28c.3.115.23.045.39.28Zm-.816 7.891.425.339c-.216-.005-.333-.052-.425-.339Zm1.274-.016-.174.016-.148-.273-.103-.133.23-.024c.065.139.128.277.195.414Zm-.234-7.964-.191-.19c.187.13.063.004.19.192l.002-.002Zm.025 7.084-.216-.45.091-.37.054-.004.28.86-.209-.036Zm-1.111 5.005.046.056-.151.569a1.162 1.162 0 0 1-.697-.86l.802.236v-.001Zm-1.227.625.425.376c-.272-.12-.288-.115-.425-.376Zm.733-3.814.05.372-.358-.43.308.058Zm-.42 2.012-.313-.778c.372.141.662.566.85.86l-.537-.082Zm.334-7.657.105-.003-.31.43c-.05-.107.011-.208.183-.333l.022-.094Zm-.222 3.697-.085.17-.243-.188-.097-.205.333-.037.092.26ZM6 24.517c.85.553 2.295 1.066 2.545 2.15A7.057 7.057 0 0 1 6 24.517Zm2.205-.417.34.417-.848-.43.508.013Zm3.107 1.277-.645-.65 1.128-1.07.145 1.178-.628.542Zm.628.718.112-.28.15-.008.162.43-.424-.142Zm.572-1.578-.149-.43.309.056-.16.374Zm-.572-14.484.004-.038c.14-.033.28-.067.42-.103l-.294.43-.13-.289Zm-4.278 8.892-.389-.86c.499.108.417.463.389.86Zm-1.039.43c-.363-.252-.595-.753-.623-1.29.745.175.703.468.85 1.148l-.227.142Zm-.438-2.245c-.542-.512.247-2.558.593-3.03.184-.232.414-.227.717-.317l.202.052c-.51.903-.854 2.133-.975 3.39l-.537-.095Zm-.792 6.977.259.435-.232.541-.133.142c.19.027.233-.137.516-.368.55.891 1.39 1.745 2.317 2.23l-.505.89-1.533-.987c-.175-.325.066-.698-.215-.897-.255-.18-.584.08-.844.002l-.72-.66c.212-.473.415-.937.834-1.178l.256-.15Zm-1.466-4.744c.058-.429.14-.854.248-1.273l.057-.005.221 1.278.117.667c.333.93.67 1.858 1.007 2.785-.807-.44-1.305-1.458-1.234-2.828-.193.441-.033 1.136.03 1.526-.495-.42-.556-1.255-.446-2.15Zm-.737.442a1.568 1.568 0 0 1-.143-.517 3.385 3.385 0 0 1 .006-.725l.074-.153.328-.325-.185 1.202-.08.516v.002Zm29.537 4.3-.848-.327.823-.101.025.428Zm-22.45 7 .222-.117-.257.429.033-.31.002-.002Zm-6.399-14.74-.361-.033c-.45-.149-.872-.674-.91-1.257.688.062.921.388 1.261.787.004.166.009.335.01.503Zm-.05-.035c.05-.928-.658-1.508-1.578-1.483.157-1.304 1.29-1.97 2.3-2.409l.195-.015c-.168 1.637-.04 3.047-.652 4.464C3.642 17.91 2.04 17.89 2.127 19.5l.011.133c.229 2.14 2.555 2.575 2.877 4.457-3.45 1.755.755 9.13 3.483 4.798.49.07.925.292 1.534.079.283-.157.338-.284.448-.61l.975.505.05.123c-.893.693-1.523 1.645-2.483 2.295l.091-.263-.25-.045-.138.075-.125.583c.548.56 2.21-1.465 2.697-1.862-.275.962-.955 1.457-1.334 2.337l.117.12c.717-.513 1.595-1.967 1.729-3.072l1.073.179c-1.345 1.818-4.8 5.818-6.617 6.886.277-.868.717-1.531.94-2.245l-.13.01-.117-.12c-.441.87-1.17 1.482-1.3 2.655.078.117.176.218.29.299 2.16-.36 5.767-5.789 7.49-7.272-.466 4.683-2.976 5.413-5.153 8.25 1.979-.987 3.178-3.503 4.87-4.9-.186 1.955-.651 6.327-1.821 7.105l.193-.015c1.313-.817 1.39-4.175 1.828-5.892l.187-1.805 1.875-2.633.136-.075c.21.658 1.16 1.373 2.189 1.182l.738-.31 1.854.693c.243 2.667.15 4.162-1.539 6.192 1.725-.882 2.358-4.279 1.783-6.082 4.012.465 3.85-.888 3.09-3.81l.706.012c-.13-.195-.482-.05-.75-.2-.122-.079-.099-.064-.174-.18.954-1.075 3.25-.007 2.767 1.778.66-1.48-.798-2.797-2.203-2.267.6-.711 1.326-1.296 1.706-2.238l.137-.073 3.3 3.466.195-.015.15-.203c-1.05-1.243-2.098-2.488-3.145-3.733l.337-.154a.684.684 0 0 1 .581-.201 32.37 32.37 0 0 1-.166-.084c1.684.169 3.838 1.574 5.596 1.12.162-.281.17-.433.072-.708 1.873.047 5.243-.58 6.316-1.49-2.883.605-6.13.81-8.776.457l-2.345-.275-.132.01.632-1.134c1.933-.036 7.003-.085 8.028-1.298l-.227-.303-.883-.127a.656.656 0 0 0-.1.328l.7.075c-1.52.384-5.753 1.192-7.135.72-.145-.176-.038-.79-.032-1.231.003-.08 0-.159-.01-.237 1.987-.593 3.462-1.93 4.067-3.947.345-1.155.117-2.671.863-3.391.477.041.574.243.924.38-.185-.257-.45-.4-.782-.517l-.621.428c-.569.22-1.164-.355-2.129.094-.783-.67-1.225-1.729-2.283-2.134l-.108-.183 1.283-1.248c-.42.351-.849.766-1.277 1.183l-.86-.385-.05-.125c.98-.693 1.85-.95 2.965-.73.052.103.107.205.16.308-.052.089-.098.114-.143.139l-.375-.1c.162.095.33.125.498.155l.142-.139.021-.193c-.243-.217-.318-.373-.796-.39l.228-.337c-.546.377-1.656.477-2.2.804l1.257-.99.15-.202-2.325 1.387c-.497-.034-1.025-.267-1.294-.545a56.62 56.62 0 0 0-.128.01l2.76-1.867-.045-.188c-1.046.61-2.095 1.22-3.14 1.831l-1.003-.246.093-.902 7.195-5.65.128-.01-.101-.248c-.267-.127-1.362.761-1.775 1.026-1.593 1.022-3.002 2.294-4.568 3.217.646-.822 1.83-1.64 2.026-2.837l-.317-.04-.493.42.537-.233C26.95 3.92 25.38 5.803 24.494 6.4l-.104-.248c.577-.97 1.145-2.275.878-3.52l-.483-.284-.518.039c.332.131.556.163.8.325.155 1.206-.439 2.023-.759 3l-.136.073c-.213-.395-.2-.585-.639-.657l-.038-.253.3-.407.207-.143c.07.133.073.085.095.313a.646.646 0 0 0 .098-.326l-.245-.11-.648.686c-.542-.361-1.139-.741-1.9-.883.431-.895 1.743-2.333 1.066-3.468-.826-1.38-3.648.21-4.681 1.305-.12.122-.224.258-.31.406.102-.081.206-.161.31-.24 1.02-.76 3.735-2.58 4.323-1.125.617.812-.565 2.374-.886 3.009-1.1-.112-2.25-.217-3.434-.194a12.37 12.37 0 0 0-3.668.59c-.6.199-3.16 1.732-3.258 1.712L9.697 4.87l-2.44-1.225-.014.128-.143.139 3.127 2.646-.477.292c-1.287-.975-2.173-1.567-4.088-2.065l-.324.025c1.119.77 2.245 1.475 3.37 2.182l.225.303c-.803.338-1.143 1.042-1.821 1.478-1.06-.506-2.042-.966-3.327-1.355l-.09.264 2.407 1.55.13-.01-.415.286c-.192.645-.567 1.394-.88 2.304-1.2.976-2.755.918-2.997 2.908-.383.105-.653.138-1.003.395l-.027.258c.22.307 2.168 1.132 2.633 1.212l.287-.277-.002.002ZM18.062 2.55l.178.033-.238-.03c-.042 0-.083.004-.123.005.188-.35.741-.436 1.273-.398l-.037.253-1.04.052-.013.085Zm.743.462.5-.164c.217-.36.34-.741.23-1.09-.515-.101-.811.024-1.293.227l-.262.428-.1.167c.031.036.064.07.1.1.163.133.36.18.722.15.1.17-.017.095-.195.142l.3.04h-.002Zm12.338 3.871-.536.1.33-.023.378.163-.573 1.05c.295-.348.588-.595.713-1.123l-.311-.167ZM28.06 23.658c-.133-.238-.278-.395-.423-.431.128.121.276.265.423.431Zm-1.697 5.16-.423.247.325-.03.1-.217h-.002Zm1.697-5.16c.432.487.755 1.42.662 2.15.49-1.058-.069-1.718-.662-2.15Z"/></symbol><symbol viewBox="0 0 32 32" id="soc-linkedin" xmlns="http://www.w3.org/2000/svg"><path d="M0 2.292C0 1.026 1.052 0 2.35 0h27.3C30.948 0 32 1.026 32 2.292v27.416C32 30.974 30.948 32 29.65 32H2.35C1.052 32 0 30.974 0 29.708V2.292Zm9.886 24.496v-14.45H5.084v14.45h4.802Zm-2.4-16.424c1.674 0 2.716-1.108 2.716-2.496-.03-1.418-1.04-2.496-2.684-2.496-1.644 0-2.718 1.08-2.718 2.496 0 1.388 1.042 2.496 2.654 2.496h.032Zm9.816 16.424v-8.07c0-.432.032-.864.16-1.172.346-.862 1.136-1.756 2.464-1.756 1.738 0 2.432 1.324 2.432 3.268v7.73h4.802V18.5c0-4.44-2.368-6.504-5.528-6.504-2.548 0-3.69 1.4-4.33 2.386v.05h-.032l.032-.05v-2.044h-4.8c.06 1.356 0 14.45 0 14.45h4.8Z"/></symbol><symbol viewBox="0 0 25 25" id="soc-telegram" xmlns="http://www.w3.org/2000/svg"><path d="M14.709 24.953c-1.1 0-1.496-.85-1.848-2.006l-1.746-5.76c-.238-.805-.193-1.292.284-1.814L23.064 2.745c.148-.158.136-.351.012-.476-.125-.113-.306-.125-.465.012L9.993 13.98c-.556.51-1.01.52-1.803.282L2.307 12.46C1.196 12.131.39 11.723.39 10.646c0-.884.737-1.496 1.711-1.87l19.636-7.517c.51-.193.963-.306 1.338-.306.805 0 1.315.51 1.315 1.315 0 .386-.114.828-.306 1.338l-7.483 19.556c-.42 1.088-1.031 1.791-1.893 1.791Z"/></symbol></svg>