<svg width="25" height="24" viewBox="0 0 25 24" xmlns="http://www.w3.org/2000/svg">
<path d="M0.630493 12C0.630493 11.3393 1.08788 10.8692 1.74854 10.8692L18.4812 10.8692L21.1874 10.9582L17.0201 7.15934L14.1742 4.26257C13.9709 4.05929 13.8692 3.76707 13.8692 3.46215C13.8692 2.82689 14.352 2.36951 14.9746 2.36951C15.2795 2.36951 15.5463 2.47115 15.8004 2.71255L24.2493 11.1488C24.5034 11.3902 24.6305 11.6824 24.6305 12C24.6305 12.3176 24.5034 12.6098 24.2493 12.8512L15.8004 21.2747C15.5463 21.5161 15.2795 21.6305 14.9746 21.6305C14.352 21.6305 13.8692 21.1731 13.8692 20.5379C13.8692 20.2329 13.9709 19.928 14.1742 19.7374L17.0201 16.8407L21.2001 13.0291L18.4812 13.1308L1.74854 13.1308C1.08788 13.1308 0.630493 12.6607 0.630493 12Z" />
</svg>
