<svg width="24" height="24" viewBox="0 0 24 24" xmlns="http://www.w3.org/2000/svg">
<path d="M11.6305 24C10.9698 24 10.4997 23.5426 10.4997 22.8819L10.4997 6.14928L10.5887 3.44309L6.78984 7.61038L3.89307 10.4563C3.68979 10.6596 3.39757 10.7612 3.09264 10.7612C2.45739 10.7612 2 10.2785 2 9.6559C2 9.35098 2.10164 9.08417 2.34304 8.83007L10.7793 0.381152C11.0206 0.12705 11.3129 -8.69692e-07 11.6305 -8.41924e-07C11.9481 -8.14156e-07 12.2403 0.12705 12.4817 0.381152L20.9052 8.83007C21.1466 9.08417 21.261 9.35098 21.261 9.6559C21.261 10.2785 20.8036 10.7612 20.1683 10.7612C19.8634 10.7612 19.5585 10.6596 19.3679 10.4563L16.4712 7.61038L12.6596 3.43038L12.7613 6.14928L12.7613 22.8819C12.7613 23.5426 12.2912 24 11.6305 24Z" />
</svg>
