<svg width="24" height="24" viewBox="0 0 24 24" xmlns="http://www.w3.org/2000/svg">
<path d="M11.6305 0C12.2912 0 12.7612 0.457385 12.7612 1.11805V17.8507L12.6723 20.5569L16.4711 16.3896L19.3679 13.5437C19.5712 13.3404 19.8634 13.2388 20.1683 13.2388C20.8036 13.2388 21.261 13.7215 21.261 14.3441C21.261 14.649 21.1593 14.9158 20.9179 15.1699L12.4817 23.6188C12.2403 23.8729 11.9481 24 11.6305 24C11.3129 24 11.0206 23.8729 10.7792 23.6188L2.35574 15.1699C2.11435 14.9158 2 14.649 2 14.3441C2 13.7215 2.45738 13.2388 3.09264 13.2388C3.39756 13.2388 3.70249 13.3404 3.89307 13.5437L6.78984 16.3896L10.6014 20.5696L10.4997 17.8507V1.11805C10.4997 0.457385 10.9698 0 11.6305 0Z"/>
</svg>
