<svg width="25" height="24" viewBox="0 0 25 24" xmlns="http://www.w3.org/2000/svg">
<path d="M24.6305 12C24.6305 12.6607 24.1731 13.1308 23.5124 13.1308L6.77978 13.1308L4.07358 13.0418L8.24087 16.8407L11.0868 19.7374C11.2901 19.9407 11.3917 20.2329 11.3917 20.5378C11.3917 21.1731 10.9089 21.6305 10.2864 21.6305C9.98147 21.6305 9.71466 21.5289 9.46056 21.2875L1.01165 12.8512C0.757544 12.6098 0.630492 12.3176 0.630492 12C0.630492 11.6824 0.757544 11.3902 1.01165 11.1488L9.46056 2.72525C9.71466 2.48385 9.98147 2.36951 10.2864 2.36951C10.9089 2.36951 11.3917 2.82689 11.3917 3.46215C11.3917 3.76707 11.2901 4.07199 11.0868 4.26257L8.24087 7.15934L4.06088 10.9709L6.77978 10.8692L23.5124 10.8692C24.1731 10.8692 24.6305 11.3393 24.6305 12Z" />
</svg>
