<svg width="48" height="48" viewBox="0 0 48 48" xmlns="http://www.w3.org/2000/svg">
    <path d="M8.83984 39.46C7.70703 38.3467 7.74609 36.3741 8.80078 35.3194L19.9727 24.1475L8.80078 13.0147C7.74609 11.9405 7.70703 9.98737 8.83984 8.85456C9.97266 7.70221 11.9453 7.74128 13 8.81549L24.1523 19.9678L35.3047 8.81549C36.3984 7.72174 38.3125 7.72174 39.4453 8.85456C40.5977 9.98737 40.5977 11.9014 39.4844 13.0147L28.3516 24.1475L39.4844 35.2999C40.5977 36.4132 40.5781 38.3077 39.4453 39.46C38.332 40.5928 36.3984 40.5928 35.3047 39.4991L24.1523 28.3467L13 39.4991C11.9453 40.5733 9.99219 40.5928 8.83984 39.46Z"/>
</svg>
