<svg width="24" height="24" viewBox="0 0 24 24" xmlns="http://www.w3.org/2000/svg">
    <path d="M0.240234 18.4141V14.2734C0.240234 13.5801 0.767578 13.1504 1.38281 13.1504C1.73438 13.1504 2.10547 13.3066 2.41797 13.6191C2.83789 14.0488 3.43359 14.6543 4.58594 14.6543C6.07031 14.6543 7.25195 13.4727 7.24219 11.9785C7.23242 10.4844 6.06055 9.29297 4.58594 9.29297C3.43359 9.29297 2.83789 9.89844 2.41797 10.3281C2.10547 10.6406 1.73438 10.7969 1.38281 10.7969C0.767578 10.7969 0.240234 10.3672 0.240234 9.67383V5.46484C0.240234 3.43359 1.29492 2.36914 3.31641 2.36914H15.3477C17.3887 2.36914 18.4531 3.42383 18.4531 5.42578V9.40039C18.4531 9.60547 18.6094 9.68359 18.8047 9.54688C19.3125 9.18555 19.9082 8.89258 20.6797 8.89258C22.418 8.89258 23.7266 10.2109 23.7266 11.9688C23.7266 13.7266 22.418 15.0449 20.6797 15.0449C19.9082 15.0449 19.3125 14.752 18.8047 14.3906C18.6094 14.2539 18.4531 14.332 18.4531 14.5273V18.4434C18.4531 20.4551 17.3887 21.5 15.3477 21.5H3.31641C1.29492 21.5 0.240234 20.4355 0.240234 18.4141Z"/>
</svg>
