<svg width="24" height="24" viewBox="0 0 24 24" xmlns="http://www.w3.org/2000/svg">
    <path d="M2.56333 21.5118C0.903954 19.8431 0.913329 17.6024 2.54458 15.9806C3.72583 14.8087 5.10396 14.3494 7.2602 12.9338L1.99146 7.67433C0.613329 6.28684 0.613329 4.81496 1.95396 3.46497L3.27583 2.14308C4.62583 0.793086 6.11645 0.793086 7.49458 2.18058L12.6696 7.38371C12.1727 5.56497 12.6134 3.56809 14.0103 2.18058C15.7446 0.42746 18.5102 0.155585 20.6852 1.51496L19.6259 2.57433L18.1165 4.08371C17.8727 4.32746 17.8914 4.61809 18.1446 4.88058L19.2039 5.93996C19.4571 6.19308 19.7477 6.18371 19.9914 5.94934L21.5102 4.43058L22.5602 3.37121C23.9196 5.56497 23.6477 8.33058 21.9039 10.0743C20.3008 11.6775 17.9008 12.0149 15.8852 11.1149C15.3977 11.6024 14.9571 12.0619 14.554 12.5024L18.7165 16.6556L19.654 16.7118C19.9821 16.7306 20.3196 16.9462 20.5071 17.2743L22.2321 20.3494C22.4008 20.6681 22.4383 20.94 22.2321 21.1462L20.9664 22.4118C20.7508 22.6274 20.4883 22.5899 20.1789 22.4212L17.0852 20.6775C16.7571 20.4993 16.5415 20.1619 16.5227 19.8525L16.4664 18.9056L12.4914 14.9306C9.94148 18.2118 9.56645 20.0306 8.08521 21.5306C6.47271 23.1525 4.23208 23.1619 2.56333 21.5118ZM17.029 5.69621C16.3071 4.98371 16.2789 4.09308 16.9727 3.39934L18.2383 2.13371C17.0758 1.98371 15.8758 2.34934 15.0321 3.20246C13.4852 4.72121 13.5508 7.28058 15.1727 8.90246C16.8039 10.5149 19.3446 10.5899 20.8727 9.05246C21.7352 8.19934 22.1008 6.99934 21.9415 5.81809L20.6571 7.10246C19.9914 7.76809 19.1008 7.74934 18.3883 7.04621L17.029 5.69621ZM8.8352 8.38684C9.00396 8.56497 9.30396 8.53684 9.44458 8.38684C9.62267 8.19934 9.63208 7.91809 9.45396 7.74934L5.85396 4.15871C5.68521 3.98058 5.40396 3.98996 5.24458 4.15871C5.06645 4.32746 5.07583 4.59934 5.24458 4.76809L8.8352 8.38684ZM7.5602 9.63375C7.73833 9.81183 8.01958 9.81183 8.18833 9.63375C8.35708 9.46497 8.36645 9.20246 8.18833 9.02433L4.57895 5.41496C4.42895 5.25559 4.13833 5.24621 3.96958 5.41496C3.80082 5.59308 3.79146 5.87433 3.96958 6.05246L7.5602 9.63375ZM14.1508 9.91494C13.9821 9.75558 13.8321 9.58684 13.6914 9.40871C7.32583 15.5962 5.76958 14.9212 3.61333 17.0775C2.62895 18.0619 2.59146 19.3931 3.63208 20.4431C4.67271 21.4837 6.01333 21.4462 6.9977 20.4619C9.15396 18.3056 8.46958 16.7494 14.6664 10.3743C14.4883 10.2338 14.3102 10.0837 14.1508 9.91494ZM5.29146 19.918C4.67271 19.918 4.17583 19.4212 4.17583 18.8024C4.17583 18.1931 4.67271 17.6868 5.29146 17.6868C5.9102 17.6868 6.40708 18.1931 6.40708 18.8024C6.40708 19.4212 5.9102 19.918 5.29146 19.918Z"/>
</svg>
