<svg width="24" height="24" viewBox="0 0 24 24" xmlns="http://www.w3.org/2000/svg">
    <path d="M23.0744 5.76386C23.6734 6.03296 23.9859 6.52775 23.9859 7.0399C23.9859 7.55205 23.6734 8.03817 23.0744 8.31594L14.5936 12.1961C13.6821 12.6129 12.9355 12.8038 12.2064 12.7865C11.4772 12.8038 10.7393 12.6215 9.82787 12.1961L6.06055 10.4774L11.3557 8.01212C11.6248 8.09025 11.9286 8.13365 12.2411 8.13365C13.2307 8.13365 14.1768 7.68226 14.1768 7.0399C14.1768 6.4149 13.222 5.96351 12.2411 5.96351C11.2515 5.96351 10.288 6.4149 10.288 7.0399C10.288 7.10066 10.3054 7.16143 10.34 7.21351L4.72374 9.83504L1.347 8.31594C0.748047 8.03817 0.435547 7.55205 0.435547 7.0399C0.435547 6.52775 0.748047 6.03296 1.347 5.76386L9.82787 1.88365C10.7393 1.47567 11.4772 1.28469 12.2064 1.29337C12.9355 1.28469 13.6821 1.47567 14.5936 1.88365L23.0744 5.76386ZM6.0345 11.8489L9.29836 13.3506C10.3488 13.8281 11.3036 14.0625 12.2064 14.0537C13.1178 14.0625 14.0727 13.8281 15.1231 13.3506L20.7828 10.7465V13.5069C20.7828 16.2065 17.3105 18.4027 12.2064 18.4027C9.67169 18.4027 7.53625 17.8559 6.0345 16.9531V11.8489ZM3.62999 10.7552L4.75847 11.276V15.9288C4.03798 15.1649 3.62999 14.2621 3.62999 13.5069V10.7552ZM4.00326 19.0191C4.00326 18.4462 4.28971 18.0295 4.75847 17.8732V15.9288C5.10569 16.3107 5.53104 16.6579 6.0345 16.9531V17.8732C6.49457 18.0382 6.78104 18.4548 6.78104 19.0191V21.276C6.78104 22.0052 6.30361 22.4826 5.56576 22.4826H5.21853C4.48937 22.4826 4.00326 22.0052 4.00326 21.276V19.0191Z"/>
</svg>
