<svg width="40" height="36" viewBox="0 0 40 36" xmlns="http://www.w3.org/2000/svg">
<path fill-rule="evenodd" clip-rule="evenodd" d="M13.3673 23.801H26.7602C26.7602 23.801 27.466 25.6577 27.3469 27.1429C27.2289 28.6154 26.913 29.7834 26.25 30.5357C25.3656 31.5221 24.3878 32.2109 23.3163 32.602C22.2449 32.9932 20.3827 33.1888 17.7296 33.1888H15.2041C12.9762 33.1888 11.6497 33.1037 11.2245 32.9337C10.7993 32.7636 10.4847 32.5 10.2806 32.1429C10.2439 32.0717 10.2096 31.9924 10.1778 31.9051C10.259 31.2584 10.5399 30.3767 11.0204 29.2602L13.3673 23.801ZM9.87245 26.3208L21.1224 0H22.0153L34.0561 28.7755C35.0255 31.0884 35.9014 32.5935 36.6837 33.2908C37.483 33.9711 38.5884 34.3537 40 34.4388V35.3827H26.7857H26.352H14.1582H3.26531H0V34.4388H1.30102C2.76361 34.4388 3.80952 33.9626 4.43878 33.0102C4.79592 32.466 4.97449 31.2075 4.97449 29.2347V6.91327C4.97449 4.7534 4.73639 3.40136 4.2602 2.85714C3.59694 2.10884 2.61054 1.73469 1.30102 1.73469H0V0.790816H15.6633V1.73469C13.8265 1.71769 12.534 1.88776 11.7857 2.2449C11.0544 2.60204 10.5527 3.05272 10.2806 3.59694C10.0085 4.14116 9.87245 5.44218 9.87245 7.5V26.3208ZM20.1786 7.93367L26.0459 21.9133H14.1582L20.1786 7.93367Z"/>
</svg>
