<svg width="32" height="32" viewBox="0 0 32 32" xmlns="http://www.w3.org/2000/svg">
    <path d="M28.7381 5.33334C28.617 5.32085 28.4948 5.32085 28.3737 5.33334H3.48478C3.32527 5.3358 3.16681 5.35971 3.01367 5.40445L15.8581 18.1956L28.7381 5.33334Z"/>
    <path d="M30.0526 6.56885L17.1104 19.4577C16.7773 19.7888 16.3267 19.9747 15.8571 19.9747C15.3874 19.9747 14.9368 19.7888 14.6037 19.4577L1.77707 6.66663C1.73763 6.81155 1.71673 6.96089 1.71484 7.11107V24.8888C1.71484 25.3603 1.90214 25.8125 2.23554 26.1459C2.56894 26.4793 3.02113 26.6666 3.49262 26.6666H28.3815C28.853 26.6666 29.3052 26.4793 29.6386 26.1459C29.972 25.8125 30.1593 25.3603 30.1593 24.8888V7.11107C30.1522 6.92587 30.1162 6.74292 30.0526 6.56885ZM4.7104 24.8888H3.47484V23.6177L9.93707 17.2088L11.1904 18.4622L4.7104 24.8888ZM28.3637 24.8888H27.1193L20.6393 18.4622L21.8926 17.2088L28.3548 23.6177L28.3637 24.8888Z"/>
</svg>
