<svg width="24" height="24" viewBox="0 0 24 24" xmlns="http://www.w3.org/2000/svg">
    <path d="M6.84961 22.625C6.26367 22.625 5.91211 22.2051 5.91211 21.5703V18.7383H5.52148C2.68945 18.7383 1 17.0586 1 14.1582V6.58008C1 3.67969 2.65039 2 5.58984 2H18.041C20.9805 2 22.6309 3.67969 22.6309 6.58008V14.1582C22.6309 17.0586 20.9805 18.7383 18.041 18.7383H11.6348L8.04102 21.9805C7.5625 22.4297 7.25 22.625 6.84961 22.625ZM6.6543 7.70312H16.8789C17.2305 7.70312 17.5137 7.41016 17.5137 7.05859C17.5137 6.7168 17.2305 6.43359 16.8789 6.43359H6.6543C6.30273 6.43359 6.0293 6.7168 6.0293 7.05859C6.0293 7.41016 6.30273 7.70312 6.6543 7.70312ZM6.6543 10.9258H16.8789C17.2305 10.9258 17.5137 10.6426 17.5137 10.291C17.5137 9.94922 17.2305 9.65625 16.8789 9.65625H6.6543C6.30273 9.65625 6.0293 9.94922 6.0293 10.291C6.0293 10.6426 6.30273 10.9258 6.6543 10.9258ZM6.6543 14.1582H13.3145C13.666 14.1582 13.9492 13.875 13.9492 13.5332C13.9492 13.1719 13.666 12.8887 13.3145 12.8887H6.6543C6.30273 12.8887 6.0293 13.1719 6.0293 13.5332C6.0293 13.875 6.30273 14.1582 6.6543 14.1582Z"/>
</svg>
