<svg width="32" height="32" viewBox="0 0 32 32" xmlns="http://www.w3.org/2000/svg">
    <path d="M12.6888 31C11.8242 31 11.1844 30.6369 10.5793 29.8934L1.62248 18.6888C1.1902 18.1527 1 17.6513 1 17.1326C1 15.9395 1.88184 15.0749 3.09222 15.0749C3.85303 15.0749 4.37176 15.3516 4.8732 16.0259L12.6196 25.9683L27.6455 2.10663C28.1643 1.29395 28.6657 1 29.513 1C30.7233 1 31.5533 1.82997 31.5533 3.02305C31.5533 3.48991 31.415 3.97406 31.0519 4.52738L14.7983 29.8761C14.2968 30.6196 13.6052 31 12.6888 31Z"/>
</svg>
