<svg width="22" height="22" viewBox="0 0 22 22" xmlns="http://www.w3.org/2000/svg">
<path d="M3.94336 16.7891C1.83398 16.7891 0.740234 15.7051 0.740234 13.6152V3.66406C0.740234 1.57422 1.83398 0.5 3.94336 0.5H13.8262C15.9355 0.5 17.0293 1.58398 17.0293 3.66406V5.2168H18.6895C20.7988 5.2168 21.8926 6.30078 21.8926 8.39062V18.2637C21.8926 20.3438 20.7988 21.4277 18.6895 21.4277H8.88477C6.77539 21.4277 5.68164 20.3438 5.68164 18.2637V16.7891H3.94336ZM4.06055 14.875H5.68164V8.39062C5.68164 6.30078 6.77539 5.2168 8.88477 5.2168H15.125V3.83008C15.125 2.88281 14.6172 2.4043 13.7188 2.4043H4.06055C3.15234 2.4043 2.6543 2.88281 2.6543 3.83008V13.459C2.6543 14.4062 3.15234 14.875 4.06055 14.875ZM14.2949 17.4336C14.4902 17.4336 14.6367 17.2871 14.6758 17.0918C15.2129 14.1133 15.5156 13.5664 18.6016 13.1562C18.8066 13.1367 18.9531 12.9707 18.9531 12.7656C18.9531 12.5703 18.8066 12.4141 18.6016 12.375C15.5352 11.9648 15.1348 11.4082 14.6758 8.45898C14.6465 8.25391 14.4902 8.10742 14.2949 8.10742C14.0996 8.10742 13.9434 8.24414 13.8945 8.44922C13.3672 11.4375 13.0645 11.9648 9.98828 12.375C9.77344 12.4141 9.62695 12.5703 9.62695 12.7656C9.62695 12.9707 9.77344 13.127 9.98828 13.1562C13.0547 13.5078 13.4453 14.1035 13.8945 17.082C13.9336 17.2871 14.0801 17.4336 14.2949 17.4336ZM10.2324 19.0938C10.3789 19.0938 10.4863 18.9961 10.5254 18.8496C10.7891 17.375 10.7109 17.3164 12.3125 17.0625C12.459 17.0332 12.5664 16.916 12.5664 16.7793C12.5664 16.6328 12.459 16.5156 12.3125 16.4863C10.7109 16.2324 10.7891 16.1738 10.5254 14.7188C10.4863 14.5625 10.3887 14.4453 10.2324 14.4453C10.0859 14.4453 9.97852 14.5527 9.92969 14.7188C9.65625 16.1641 9.76367 16.2129 8.15234 16.4863C8.00586 16.5156 7.9082 16.6328 7.9082 16.7793C7.9082 16.9355 8.00586 17.0332 8.18164 17.0625C9.76367 17.3066 9.65625 17.3652 9.92969 18.8301C9.97852 18.9863 10.0762 19.0938 10.2324 19.0938Z" />
</svg>
