<svg width="40" height="40" viewBox="0 0 40 40" xmlns="http://www.w3.org/2000/svg">
    <path d="M1.90016 15.4917L2.18349 15.9133C1.61682 15.8967 1.02349 15.8417 0.910156 15.5983C0.910156 15.5867 0.91349 15.575 0.916823 15.5633C1.23349 15.48 1.50516 15.475 1.90016 15.4917ZM4.91016 16.775L5.04682 17.1917L4.72682 17.205L4.80349 16.7783C4.8391 16.7783 4.8747 16.7783 4.91016 16.775ZM6.00016 19.8167C5.71682 20.0767 5.49849 20.25 5.33016 20.645C5.09682 20.4533 4.97516 20.0733 4.90016 19.6483C4.81682 19.185 4.79016 18.67 4.72682 18.285L4.74682 18.0883L5.07516 18.065L5.91182 19.6483L6.00016 19.815V19.8167ZM5.57682 15.9133C5.61838 15.6287 5.66116 15.3443 5.70516 15.06L5.81349 15.0533C5.73349 15.34 5.65349 15.6267 5.57682 15.9133ZM5.34849 12.0433L6.84849 12.45C6.84604 12.4722 6.84382 12.4944 6.84182 12.5167C6.14349 13.0333 5.49849 13.26 5.15182 14.1933L5.28349 12.1167L5.34849 12.045V12.0433ZM6.74849 9.89334C6.65182 10.86 6.78849 11.2867 6.95682 11.8867C7.22349 12.0767 7.33016 12.1917 7.24349 12.4733C6.79349 12.25 6.31682 12.0167 5.62682 12.0533C5.61 12.034 5.59333 12.0146 5.57682 11.995C5.77016 11.2333 6.14682 10.765 6.43849 10.1617L6.75016 9.89168L6.74849 9.89334ZM8.90516 8.60668L8.97016 8.60168C8.76349 9.31501 8.68016 10.96 8.31849 11.6133C7.46349 11.2083 7.48016 9.45335 8.43682 8.76001L8.90516 8.60668ZM8.10849 13.89L8.82849 14.6717C8.54516 15.5417 8.01016 16.1967 7.78349 17.205L7.35849 17.1717C6.99516 16.1567 7.90349 14.5033 8.05849 13.7633L8.72516 13.84C8.80849 14.0483 8.88849 14.2567 8.97016 14.4667L8.10849 13.89ZM10.0785 8.60001C10.0052 9.44501 10.1918 9.88334 10.2418 10.5367C9.81849 10.7533 9.39349 10.9667 8.97016 11.1817C9.04879 10.307 9.25835 9.4491 9.59182 8.63668L10.0785 8.60001ZM10.5718 7.31668L10.6668 7.31001L10.5235 7.72168L10.2418 7.74001L10.4585 7.48501L10.5718 7.31668ZM10.6668 11.2583L9.39349 12.0417C9.42016 11.5683 10.0235 10.93 10.5285 10.7533L10.6452 10.8167L10.6668 11.2583ZM11.5168 8.29501C11.4385 8.73168 11.3618 9.16668 11.2868 9.60334L11.0485 9.75335L10.9218 9.89168C10.6918 9.56835 10.6335 8.77501 10.6835 8.17168L11.5168 8.29501ZM12.3635 7.31168C12.3635 7.32834 12.3602 7.34168 12.3585 7.35501L12.0335 7.66668C11.8168 7.75001 11.7902 7.74668 11.5168 7.73668C11.5518 7.59501 11.5918 7.45334 11.6302 7.31168H12.3635ZM13.2135 5.59168L12.8335 6.45001L11.5168 6.35501L11.5218 6.28501C12.0635 6.03501 12.5385 5.73835 13.2118 5.59001L13.2135 5.59168ZM12.5268 7.82501L12.6668 7.74168L12.7885 8.17168L12.3635 8.08834L12.5268 7.82334V7.82501ZM13.6368 9.09668C13.1318 9.29335 12.4335 9.23835 12.0285 9.46334C11.9994 9.29106 11.9699 9.11884 11.9402 8.94668L12.2035 8.60168C12.6318 8.76834 13.0602 8.93834 13.4868 9.10668L13.6368 9.09668ZM12.5518 9.87001L11.9752 9.89168C11.9618 9.83168 11.9518 9.77168 11.9402 9.71001C12.3452 9.54501 13.0252 9.53001 13.6368 9.46168L12.9918 9.81668L12.5518 9.87001ZM14.0602 9.87001C13.5752 9.99168 13.1102 10.42 12.7918 10.7533C12.7302 10.3633 13.4785 9.67668 13.8368 9.46168C13.9952 9.60334 14.0118 9.58834 14.0602 9.87001ZM14.9102 4.73168L14.9035 4.79834L14.3935 5.10668L13.6368 5.16168L13.6435 5.09501L14.9102 4.73168ZM14.2235 6.02168L14.0602 5.78001C14.4435 5.45834 15.2885 5.63501 15.7585 5.68335L14.2235 6.02168ZM18.0202 4.75501C18.7285 4.81334 19.3768 4.98001 19.8702 5.28835L20.0002 5.28001L19.9218 5.39001L19.2435 5.59001C18.8352 5.53335 18.4268 5.47335 18.0202 5.41501L15.3335 5.03334L15.3402 4.97834C16.2172 4.77003 17.1208 4.6953 18.0202 4.75668V4.75501ZM20.8418 4.52835L20.6918 4.73168C20.2851 4.70259 19.8963 4.55287 19.5752 4.30168L20.8485 4.46335L20.8418 4.52835ZM23.1018 6.11834L23.4535 5.98501L23.8185 6.29835C23.7685 6.65668 23.4235 6.95001 23.1585 7.29835L22.9552 7.31168C22.4018 6.39501 21.7035 5.39334 20.4785 5.04001L20.4252 4.93168L20.9202 4.73168C21.7518 5.02168 22.4452 5.46168 23.2168 5.71501C23.3168 5.95668 23.2852 5.87501 23.1002 6.11834H23.1018ZM24.1252 8.15668L24.0285 8.06168L23.8185 8.07668L24.1685 7.74334L24.1252 8.15668ZM24.5002 12.9033C25.0735 13.4 25.2202 14.12 24.9818 15.0533C24.7352 14.5 24.4902 13.945 24.2418 13.3917C24.3252 13.2683 24.4035 13.145 24.4852 13.0217C24.4902 12.9817 24.4935 12.9417 24.5002 12.9033ZM24.6668 9.03668L24.6602 9.11668L24.3585 9.46168L24.2418 9.23335C24.4235 8.90834 24.2918 9.08334 24.5302 9.05001L24.6668 9.03668ZM25.0202 9.03168L26.3635 9.53001C26.3613 9.57459 26.3574 9.61907 26.3518 9.66334C26.2385 9.74168 26.1252 9.81668 26.0118 9.89168L24.6668 9.39501L24.6785 9.26001L25.0202 9.03168ZM27.6368 10.7533L26.8918 10.2583L26.7885 10.0583C27.1118 9.85834 27.0652 9.86834 27.4068 9.93501C27.4818 10.2083 27.5602 10.4817 27.6368 10.7533ZM28.0602 10.59L27.9102 10.7533C27.7302 10.66 27.6985 10.5417 27.6368 10.3217L28.0252 10.4917L28.0602 10.59ZM27.7435 9.35834L27.6368 9.36668C27.7535 9.25501 27.8702 9.14334 27.9902 9.03335C27.9068 9.14168 27.8235 9.25001 27.7435 9.35834ZM29.7585 11.5217L29.5502 11.6133C29.1715 11.4012 28.7931 11.1884 28.4152 10.975C28.2965 10.8141 28.1782 10.653 28.0602 10.4917C28.6485 10.0583 28.6702 10.5617 29.2252 10.8367L29.7585 11.5217ZM30.1818 11.9017L29.7585 11.7467L30.0135 11.6133L30.1818 11.9017ZM29.6652 12.595C29.8185 12.9033 29.8185 12.8167 30.1818 12.77L29.5302 13.3333L28.9085 12.1467L28.9168 12.0733C29.3752 11.975 29.5218 12.14 29.9702 12.2067L30.1418 12.4833L29.6652 12.595ZM29.7585 13.3667L30.6068 12.9033C30.4368 13.2867 30.2152 13.4833 29.9535 13.7633L29.7585 13.3667ZM31.4552 15.0083C31.2252 15.2067 31.0752 15.27 30.6402 15.3067L30.9902 15.345L30.9835 15.4067L29.7885 15.9133L29.7585 14.38L30.5818 13.405L30.7318 13.3333L31.4552 15.0083ZM31.0302 12.655C33.3735 12.0017 32.9202 13.245 31.8752 14.1933C31.5918 13.6817 31.3102 13.1683 31.0302 12.655ZM33.1518 12.9033C32.2885 16.96 32.1218 17.1817 29.0685 18.925C29.0173 18.8431 28.9639 18.7625 28.9085 18.6833L29.0168 18.23C31.0085 17.6633 32.1402 16.62 32.0218 14.2583L33.0202 12.975L33.1518 12.9033ZM33.2552 12.9033C33.2218 12.7633 33.1885 12.6233 33.1518 12.4833L33.4685 12.4733L33.2552 12.9033ZM28.0602 16.8483L28.0902 16.4L28.1168 16.0167L28.4102 15.9183C28.4252 15.9183 28.4385 15.915 28.4518 15.9133C28.5352 16.4217 28.4518 16.7967 28.2852 17.205C28.1418 17.1133 28.1135 17.075 28.0602 16.8483ZM26.3635 20.6117L26.3702 20.5367L26.9268 19.205L27.0435 18.925L28.0235 18.9917C28.0385 19.065 28.0485 19.1367 28.0535 19.205C28.0968 19.7117 27.9218 20.1167 27.7418 20.645L26.3635 20.6117ZM26.7885 22.3383L26.8002 21.6717L26.8168 21.505L27.5335 21.5583L27.6368 21.55C27.4718 21.8217 27.3085 22.0933 27.1468 22.3667L26.7885 22.3383ZM26.3685 19.555L26.4118 19.5333L26.7502 19.3583L26.7885 19.355L26.7385 19.5333L26.5402 20.215L26.3635 19.6083L26.3685 19.555ZM25.7068 21.6967L25.5152 21.505C25.7018 21.635 25.5802 21.5083 25.7068 21.6967ZM24.6668 21.185C24.9052 21.035 25.1635 21.0817 25.5168 21.085L25.4118 21.43C25.1202 21.5467 25.0785 21.5033 24.7502 21.4683L24.6668 21.185ZM25.1868 22.795L25.5152 23.5717C25.2618 23.7433 25.0068 23.9133 24.7535 24.0867C24.5268 23.775 24.7735 22.9033 25.1868 22.795ZM24.3485 20.095L24.2418 20.1033L24.3818 19.785L24.3485 20.095ZM25.5702 20.215L25.5152 20.18L25.7018 19.7867L25.7635 19.785L25.9402 20.1983L25.5702 20.215ZM28.5085 14.6233L28.4852 14.4783C28.5968 14.3417 28.6685 14.2567 28.8602 14.195L28.9102 14.4483C28.8268 14.5033 28.7435 14.5567 28.6618 14.6133L28.5085 14.6233ZM28.4852 15.6733C28.4085 15.775 28.2718 15.8317 28.1752 15.9133L28.0602 13.7633L28.4852 15.6733ZM27.7068 18.5567C27.9868 18.4 28.0268 18.545 28.0602 18.9233H27.2118L27.2268 18.79L27.7068 18.5567ZM27.2902 17.3683L27.4818 17.205L27.6368 17.4817L27.5652 17.635L27.2118 17.5933L27.2902 17.3683ZM27.2118 18.5083L26.7702 18.925L26.4818 18.8767L26.3652 18.8883C26.4318 18.7567 26.5018 18.625 26.5702 18.495L27.2118 18.5083ZM25.6118 18.2633C25.4352 18.14 25.5618 18.1567 25.5285 18.0633L25.6118 18.2633ZM26.9485 16.3433L25.5152 15.6C25.5818 14.6167 25.7018 13.4867 25.6052 12.4733C26.7102 12.8733 27.7018 14.6717 26.9485 16.3433ZM25.9402 16.3433C26.2918 16.53 26.2735 16.7 26.7618 16.85C26.8468 17.1683 26.7168 17.295 26.5135 17.6333L25.9935 17.6133C25.8868 17.0467 26.0035 16.7217 25.9402 16.3433ZM26.0368 19.125C25.8585 19.0017 25.9868 19.0183 25.9535 18.925L26.0368 19.125ZM28.9085 14.985L28.9135 14.905L29.2968 14.6233C29.3635 15.0633 29.3385 15.7967 29.2385 16.3433C29.0118 16.1667 28.9702 15.42 28.9085 14.985ZM28.9085 16.3433C28.9952 16.2 29.0818 16.0567 29.1652 15.9133L29.0152 16.3367L28.9085 16.3433ZM31.3835 15.0583L31.4552 15.0533C31.4752 16.7017 30.4585 17.0017 29.1218 17.62L28.9085 17.635L29.7418 15.9083L31.3835 15.0583ZM28.8668 11.8383C28.8802 11.8817 28.8952 11.9233 28.9068 11.9667L28.8018 12.0433L28.4835 11.6133L28.8668 11.8383ZM28.4835 12.555L28.4952 12.48C28.5263 12.4775 28.5574 12.4753 28.5885 12.4733L28.9085 12.9033C28.6618 12.7867 28.6218 12.7583 28.4835 12.555ZM28.9068 13.655L28.3352 14.1933L27.1068 12.41L25.5135 11.0267L25.8635 10.7533C26.6352 11.0867 27.9852 11.7217 28.2568 12.515C28.3452 12.7733 28.0402 12.9867 28.2468 13.2017C28.4935 13.4583 28.7402 13.275 28.9085 13.6533L28.9068 13.655ZM25.3268 16.3433L25.4568 16.395L25.5135 17.635L25.3152 17.5883C25.1285 17.45 24.9985 16.81 25.1685 16.5317L25.3268 16.3433ZM24.3868 18.5L24.5235 18.495L24.6652 18.8317L24.4485 18.915L24.2402 18.925C24.2902 18.7833 24.3402 18.6417 24.3868 18.5ZM24.0002 25.3767L23.8168 24.7483C24.0785 24.6733 24.3385 24.5983 24.6002 24.52L24.6668 24.5167C24.6634 24.536 24.6606 24.5555 24.6585 24.575L24.0002 25.3767ZM23.3918 23.6567C23.4702 23.4033 23.5252 23.365 23.6668 23.225L23.7835 23.2717L23.8168 23.3817L23.5552 23.6383L23.3918 23.655V23.6567ZM23.5918 24.0867L23.3918 23.8667L23.8168 23.6567L23.7068 24.0783L23.5918 24.0867ZM23.1452 26.0367C23.0852 25.99 23.0285 25.9417 22.9685 25.8917L23.0985 25.8833L23.7535 25.3767L23.8168 25.8933L23.3152 26.2367L23.1452 26.0367ZM23.1785 30.9633C22.1568 31.0067 21.5452 30.7467 20.7118 30.6733L19.7568 28.785L19.5735 28.595C21.1768 28.405 22.1852 27.6317 23.3735 27.0967C23.7935 27.4967 24.7452 29.5333 23.9068 30.435C23.7068 30.7433 23.4835 30.775 23.1785 30.9633ZM18.7918 28.8417L19.1752 28.8167C19.7535 29.205 20.1468 29.9 20.4235 30.5383L18.7252 30.0467C18.8518 29.6167 18.9052 29.18 18.7918 28.8417ZM17.5718 27.2183L19.4852 26.6667L22.4918 26.96L22.5452 27.1117C21.6502 27.515 20.6318 27.855 19.6052 28.375C18.4935 28.4633 18.2252 28.0483 17.4552 27.775L17.5718 27.2183ZM17.4535 29.245L17.4918 28.8717L18.2235 28.8167C18.2835 29.1417 18.3468 29.3233 18.2568 29.6767L17.4535 29.2433V29.245ZM16.6035 29.9183L16.8885 29.7617C17.2385 29.53 17.5002 29.8383 17.8768 29.96L17.7268 30.1067L16.6035 29.9183ZM17.4285 29.2467C17.336 29.2055 17.2438 29.1639 17.1518 29.1217L17.0285 28.8167L17.4535 28.8433L17.4285 29.2467ZM16.1802 29.2467L16.6052 29.6117C16.6052 29.8367 16.5852 29.8117 16.5335 30.1067L16.1802 29.2467ZM15.0802 27.635C15.4785 27.5133 16.0085 27.54 16.6052 27.5267L16.0502 27.9567L14.9085 27.845L15.0802 27.635ZM14.0602 6.08001C14.8485 5.32668 16.8252 5.55168 17.3202 6.03001L17.4535 6.01834C16.7952 6.63335 15.7752 6.70334 15.1485 7.31168C14.6568 6.98501 14.2502 6.77501 14.0602 6.08001ZM18.3935 7.31168L18.7268 7.69001C18.4302 7.70668 18.1185 7.72501 17.8068 7.75168C17.1052 7.81168 16.4118 7.91668 15.9268 8.16834L15.8635 8.17168C15.8284 8.11672 15.7934 8.06172 15.7585 8.00668C16.5546 7.58905 17.4335 7.35338 18.3318 7.31668L18.3935 7.31168ZM20.0468 5.16168C20.5952 5.71168 21.4135 6.03834 21.6968 6.88168C20.5468 6.34668 18.7768 6.35501 17.8802 5.50335C18.6702 5.67168 19.3435 5.60834 20.0468 5.16168ZM20.4252 8.17168L21.9985 8.38834L22.1218 8.37834L20.8602 9.46168C20.6602 9.06334 20.6135 8.52334 20.4252 8.17168ZM22.4468 10.0117L22.1218 9.96168L22.5452 9.89168L22.4452 10.0117H22.4468ZM22.1218 8.98334L22.5102 8.60168L22.5452 9.03168L22.2635 8.97001L22.1218 8.98334ZM22.8918 23.2167L22.7052 23.225L22.5452 23.075L22.6685 22.9133L22.9685 22.7967L22.8918 23.2167ZM22.5535 24.0033C22.6035 23.9433 22.6568 23.8833 22.7102 23.8233L22.7235 23.6567L22.9702 24.0483L22.5452 24.0867L22.5535 24.0033ZM22.3852 25.3767L22.1218 25.06L22.9702 24.9467L22.5652 25.3633L22.3852 25.3767ZM22.5452 26.6667L21.6968 26.565L22.2968 26.2367L22.5452 26.6667ZM21.9502 25.4533L22.1218 25.6167L21.5068 25.7733L20.8485 25.8067L21.7652 25.3767L21.9502 25.4533ZM19.5768 6.88168C20.0718 6.89501 20.5952 7.02001 20.8485 7.31168C20.5068 7.27834 19.8918 7.33334 19.7368 7.07001L19.5768 6.88168ZM20.0068 8.60168C20.2485 8.81334 20.3335 9.06334 20.2902 9.46168C19.9168 9.33334 20.0135 8.92501 20.0068 8.60168ZM20.4235 11.3133L20.4385 11.24C21.2835 11.0567 21.4652 11.35 21.0802 11.6133C20.7468 11.5667 20.5952 11.4417 20.4235 11.3133ZM21.5118 22.365L21.6968 22.4117C21.6944 22.4317 21.6921 22.4517 21.6902 22.4717L21.2735 22.795L21.4468 22.37L21.5118 22.365ZM21.2785 11.875L21.5952 11.6133L21.6968 12.0433L21.2735 11.95L21.2768 11.875H21.2785ZM22.5452 23.375L21.5202 23.6433L21.2735 23.655C21.2735 23.6417 21.2768 23.6267 21.2802 23.6133C21.6635 23.5367 21.9102 23.41 22.1368 23.225L22.4968 23.2917L22.5452 23.375ZM21.8135 22.365L21.6968 22.1267L21.9885 21.935L22.1218 22.0067L21.9552 22.3533L21.8135 22.365ZM19.1518 25.34L19.6568 24.9467L21.2202 25.08L21.2735 25.1967L20.2168 25.8067C19.8252 25.7417 19.4868 25.5683 19.2835 25.33L19.1518 25.34ZM18.3668 25.3767L19.1502 25.8067L17.8785 25.5817C18.0418 25.515 18.2035 25.445 18.3668 25.3767ZM18.3035 26.255C18.3017 26.2894 18.3 26.3239 18.2985 26.3583L18.0568 26.4917L17.8785 26.515L17.8852 26.4117C18.0702 26.1667 18.0385 26.2483 18.3018 26.255H18.3035ZM16.3035 8.75001C16.2633 8.70688 16.2228 8.6641 16.1818 8.62168C16.6035 8.39168 17.2685 8.28168 17.9218 8.23001C18.4602 8.18501 18.9902 8.18001 19.3702 8.17168L19.5768 9.46168C19.0218 9.40168 18.4935 9.32834 17.9218 9.30334C17.4279 9.27886 16.9327 9.29671 16.4418 9.35668C16.3966 9.15425 16.3505 8.95202 16.3035 8.75001ZM16.9268 26.0083L17.0302 26.1917L16.9302 26.5767L15.7585 26.6667C15.8835 26.2833 16.0702 26.0983 16.2718 25.8067L16.9268 26.0083ZM15.4802 24.5167C14.9468 24.4867 14.2168 24.0967 14.0602 23.6567L15.7585 24.0883L15.4802 24.5167ZM16.0768 24.4933L15.7585 24.5167L15.7685 24.4133L16.1218 24.0867C16.1052 24.2217 16.0918 24.3567 16.0768 24.4933ZM14.9102 8.76501L15.4268 8.60168L15.7585 9.01834L15.4085 9.03168L14.9102 8.76501ZM14.9035 27.2317C14.8752 27.325 14.8502 27.42 14.8235 27.515C14.7822 27.5172 14.7411 27.5211 14.7002 27.5267C14.6287 27.3832 14.557 27.2399 14.4852 27.0967L14.9102 27.14L14.9035 27.2317ZM15.1385 25.3767L16.1285 25.5767L16.1818 25.71L15.4135 26.6667L14.4852 26.53L15.1385 25.3767ZM22.5452 11.8967L22.7368 11.615L22.8068 11.6133L23.3402 11.7467L23.3935 11.8233L22.7985 12.0433C22.7141 11.9943 22.6297 11.9454 22.5452 11.8967ZM23.6935 10.5067L23.3935 10.3233C23.6985 10.435 23.5235 10.3083 23.6935 10.5067ZM23.5968 12.4733L23.3935 12.3L23.8185 12.0433L23.5968 12.4733ZM23.3935 15.4833L24.0535 15.6467C24.2318 15.7167 24.2268 15.735 24.2418 15.9133C23.9585 15.805 23.4852 15.73 23.3935 15.4833ZM23.4602 14.3117L23.5502 14.195L23.8185 14.6233L23.3935 14.54L23.4602 14.3117ZM14.8652 28.4633L14.9102 28.5767L14.3385 28.795L14.0602 28.8167L14.0668 28.7583L14.2618 28.4533C14.5318 28.3283 14.5385 28.41 14.8652 28.4633ZM13.6368 6.88001C14.0068 7.15668 14.1035 7.49668 14.0452 8.60168C13.8018 8.29001 13.6535 7.62835 13.6368 6.88168V6.88001ZM13.8802 6.02168L13.8502 6.33334L13.6385 6.34834L13.8818 6.02168H13.8802ZM13.6368 6.45168C13.6252 6.55501 13.6168 6.65834 13.6035 6.76168L13.2118 6.69001L13.5352 6.45834L13.6352 6.45168H13.6368ZM13.6368 31.3983L13.8468 29.2083L15.3335 28.8167L13.7702 31.3183L13.6368 31.3983ZM13.7418 25.5117L13.9702 25.3767C14.1785 25.6233 13.9918 25.9783 13.7952 26.2367C13.6318 26.0833 13.6135 25.9867 13.6568 25.6383L13.7418 25.5117ZM12.3635 25.3017L12.8518 24.5167L13.6352 24.9767C13.3685 25.3967 13.0968 25.8167 12.8268 26.2367C12.5835 26.02 12.4335 25.7017 12.3635 25.3033V25.3017ZM12.3635 28.67L13.1468 27.9567L13.5152 27.99L13.6368 28.19C13.6035 28.4 13.5735 28.6083 13.5435 28.8167L12.3635 28.67ZM11.0918 28.0867L12.0252 27.5267L12.7352 27.6383L12.7885 27.7367L12.0402 28.3867C11.6668 28.3483 11.4185 28.2483 11.2235 28.0783L11.0902 28.0867H11.0918ZM10.9668 27.255L11.3085 27.0967L11.4552 27.1283L11.5152 27.1983L10.5268 27.5267L10.2435 27.4267L10.9668 27.255ZM9.81849 26.8517L10.0685 26.2467C10.5318 26.1867 10.6418 26.415 10.9902 26.56L11.0902 26.7133L10.5718 27.0683L10.1502 27.0967L9.81849 26.8517ZM8.96849 28.6167L9.58682 27.5267C9.99682 27.5267 10.0468 27.56 10.2152 27.7767C10.2902 27.9033 10.2252 27.835 10.0618 27.8633L10.0235 28.2383L10.6668 28.3383C10.5402 28.6533 10.5202 28.6117 10.3302 28.8117C9.69682 28.845 9.41016 28.725 8.96849 28.6167ZM8.25516 27.0967L9.33349 27.4217L9.39349 27.55L8.70182 28.3867L7.69682 28.0567L8.25516 27.0967ZM4.10016 25.9333L4.11349 25.805L4.71516 26.2683L4.76682 26.3917C3.51516 27.3583 5.43016 30.5083 7.60849 28.4667L8.54516 28.8433C8.18516 29.485 7.56682 29.7383 6.91516 30.1017C5.35682 30.2317 3.17682 27.6867 4.10016 25.9333ZM5.55349 26.3733L5.57682 26.665C5.46016 26.5767 5.34349 26.4917 5.23016 26.4033L5.15182 26.235L5.55349 26.3733ZM7.69682 28.2L6.92182 28.8C5.39516 28.96 4.77682 27.9033 4.72682 26.605L5.02516 26.245L5.15516 26.235C5.92349 26.84 6.60349 27.7633 7.64682 28.0683L7.69682 28.2ZM6.21849 21.9333C6.08016 21.8333 6.07182 21.7833 6.00182 21.6133L6.29182 20.51L6.63016 20.2133L6.84849 20.5333L6.21849 21.9333ZM6.00182 22.305L6.67016 20.7233L6.80682 20.6433C7.11516 21.1867 7.56182 21.4333 7.69682 22.1717L6.69016 23.2233C6.37713 22.9902 6.13764 22.672 6.00016 22.3067L6.00182 22.305ZM7.27349 23.6217L8.12349 22.7933L8.54516 23.655C8.12131 23.6422 7.69742 23.6311 7.27349 23.6217ZM9.39349 14.93C8.99182 15.7883 8.45682 16.3717 8.13682 17.2033C7.99682 16.4483 8.84016 15.3633 9.11182 14.6967L9.24182 14.6217L9.39349 14.93ZM9.39349 12.5633C10.0252 12.3683 10.4485 12.0117 10.9002 11.6117L11.0918 12.185L10.5552 12.9017L9.39349 12.5633ZM11.5152 12.6083L11.2852 12.9017L11.0918 12.8683L11.0952 12.8217L11.4818 12.4717L11.5152 12.6083ZM11.1818 10.755L11.2485 10.7517L11.5152 11.3133L11.4152 11.6117C11.0268 11.4083 11.0418 11.1667 11.1818 10.755ZM11.1018 23.2233L11.4935 23.505L11.0918 23.3283C11.0941 23.2933 11.0974 23.2582 11.1018 23.2233ZM11.0952 23.655L11.5152 23.8367C11.5127 23.8533 11.5104 23.87 11.5085 23.8867L10.6085 24.515C10.3502 24.3983 10.3185 24.1667 10.2418 23.915L10.2502 23.8617L11.0952 23.655ZM9.84016 22.7933L10.2435 22.9567L10.0268 23.0817L9.81849 23.105L9.84016 22.7933ZM9.81849 14.1933C10.3285 14.3367 10.1668 14.24 10.1885 14.6217C9.95516 14.485 9.93849 14.4217 9.81849 14.1933ZM9.81849 21.875L9.85349 21.5033C10.0518 21.6417 10.1202 21.7233 10.2435 21.9333C10.1019 21.9136 9.9602 21.8942 9.81849 21.875ZM10.6685 16.5033C10.5085 16.7083 10.5152 16.6533 10.2435 16.7717L10.4285 16.3417L10.6685 16.5033ZM10.6685 14.7733L10.4018 15.0517C10.1352 14.9017 10.2602 14.9617 10.3802 14.6833L10.5385 14.6217L10.6685 14.7733ZM10.6335 14.0417L10.2435 13.7617C10.5435 13.8767 10.4735 13.8067 10.6335 14.0417ZM9.81849 21.9333L10.2435 22.2717C10.0268 22.2667 9.91016 22.22 9.81849 21.9333ZM11.0918 21.9167L10.9185 21.9333L10.7702 21.66L10.6668 21.5267L10.8968 21.5033C10.9618 21.6417 11.0252 21.78 11.0918 21.9167ZM10.8585 13.9533L10.6668 13.7633C10.8535 13.8933 10.7302 13.7667 10.8568 13.955L10.8585 13.9533ZM10.8835 21.0367L10.6668 20.5867L10.7585 20.2167L10.8118 20.2133L11.0918 21.0733C11.0224 21.061 10.953 21.0488 10.8835 21.0367ZM9.77182 26.0417L9.81849 26.0983L9.66682 26.6667C9.48833 26.5926 9.33114 26.4751 9.20949 26.325C9.08784 26.1748 9.00558 25.9967 8.97016 25.8067L9.77182 26.0433V26.0417ZM8.54516 26.6667L8.97016 27.0433C8.69849 26.9233 8.68182 26.9283 8.54516 26.6667ZM9.27849 22.8533L9.32849 23.225L8.97016 22.795L9.27849 22.8533ZM8.85849 24.865L8.54516 24.0867C8.91682 24.2283 9.20682 24.6533 9.39516 24.9467L8.85849 24.865ZM9.19182 17.2083L9.29682 17.205L8.98682 17.635C8.93682 17.5283 8.99849 17.4267 9.17016 17.3017L9.19182 17.2083ZM8.97016 20.905L8.88516 21.075L8.64182 20.8867C8.60956 20.8184 8.57734 20.75 8.54516 20.6817L8.87849 20.645L8.97016 20.905ZM6.00016 24.5167C6.85016 25.07 8.29516 25.5833 8.54516 26.6667C7.53738 26.1634 6.66473 25.4262 6.00016 24.5167ZM8.20516 24.1L8.54516 24.5167L7.69682 24.0867L8.20516 24.1ZM11.3118 25.3767L10.6668 24.7267L11.7952 23.6567L11.9402 24.835L11.3118 25.3767ZM11.9402 26.095L12.0518 25.815L12.2018 25.8067L12.3635 26.2367L11.9402 26.095ZM12.5118 24.5167L12.3635 24.0867L12.6718 24.1433L12.5118 24.5167ZM11.9402 10.0333L11.9435 9.99501C12.0835 9.96168 12.2235 9.92834 12.3635 9.89168L12.0702 10.3217L11.9402 10.0333ZM7.66182 18.925L7.27349 18.065C7.77182 18.1733 7.69016 18.5283 7.66182 18.925ZM6.62349 19.355C6.26016 19.1033 6.02849 18.6017 6.00016 18.065C6.74516 18.24 6.70349 18.5333 6.85016 19.2133L6.62349 19.355ZM6.18516 17.11C5.64349 16.5983 6.43182 14.5517 6.77849 14.08C6.96182 13.8483 7.19182 13.8533 7.49516 13.7633L7.69682 13.815C7.18682 14.7183 6.84349 15.9483 6.72182 17.205L6.18516 17.11ZM5.39349 24.0867L5.65182 24.5217L5.42016 25.0633L5.28682 25.205C5.47682 25.2317 5.52016 25.0683 5.80349 24.8367C6.35349 25.7283 7.19349 26.5817 8.12016 27.0667L7.61516 27.9567L6.08182 26.97C5.90682 26.645 6.14849 26.2717 5.86682 26.0733C5.61182 25.8933 5.28349 26.1533 5.02349 26.075L4.30349 25.415C4.51516 24.9417 4.71849 24.4783 5.13682 24.2367L5.39349 24.0867ZM3.92682 19.3433C3.98467 18.9144 4.06759 18.4892 4.17516 18.07L4.23182 18.065L4.45349 19.3433L4.57016 20.01C4.90349 20.94 5.24016 21.8683 5.57682 22.795C4.77016 22.355 4.27182 21.3367 4.34349 19.9667C4.15016 20.4083 4.31016 21.1033 4.37349 21.4933C3.87849 21.0733 3.81682 20.2383 3.92682 19.3433ZM3.19016 19.785C3.11308 19.6223 3.06459 19.4475 3.04682 19.2683C3.02308 19.0271 3.02532 18.7841 3.05349 18.5433L3.12682 18.39L3.45516 18.065L3.27016 19.2667L3.19016 19.7833V19.785ZM32.7268 24.085L31.8785 23.7583L32.7018 23.6567L32.7268 24.085ZM10.2768 31.085L10.4985 30.9683L10.2418 31.3967L10.2752 31.0867L10.2768 31.085ZM3.87849 16.345L3.51682 16.3117C3.06682 16.1633 2.64516 15.6383 2.60682 15.055C3.29516 15.1167 3.52849 15.4433 3.86849 15.8417C3.87182 16.0083 3.87682 16.1767 3.87849 16.345ZM3.82849 16.31C3.87849 15.3817 3.17016 14.8017 2.25016 14.8267C2.40682 13.5233 3.54016 12.8567 4.55016 12.4183L4.74516 12.4033C4.57682 14.04 4.70516 15.45 4.09349 16.8667C3.64182 17.91 2.04016 17.89 2.12682 19.5L2.13849 19.6333C2.36682 21.7733 4.69349 22.2083 5.01516 24.09C1.56516 25.845 5.77016 33.22 8.49849 28.8883C8.98849 28.9583 9.42349 29.18 10.0318 28.9667C10.3152 28.81 10.3702 28.6833 10.4802 28.3567L11.4552 28.8617L11.5052 28.985C10.6118 29.6783 9.98182 30.63 9.02182 31.28L9.11349 31.0167L8.86349 30.9717L8.72516 31.0467L8.60016 31.63C9.14849 32.19 10.8102 30.165 11.2968 29.7683C11.0218 30.73 10.3418 31.225 9.96349 32.105L10.0802 32.225C10.7968 31.7117 11.6752 30.2583 11.8085 29.1533L12.8818 29.3317C11.5368 31.15 8.08182 35.15 6.26516 36.2183C6.54182 35.35 6.98182 34.6867 7.20516 33.9733L7.07516 33.9833C7.03641 33.9432 6.99752 33.9032 6.95849 33.8633C6.51682 34.7333 5.78849 35.345 5.65849 36.5183C5.73616 36.6346 5.83444 36.7358 5.94849 36.8167C8.10849 36.4567 11.7152 31.0283 13.4385 29.545C12.9718 34.2283 10.4618 34.9583 8.28516 37.795C10.2635 36.8083 11.4635 34.2917 13.1552 32.895C12.9685 34.85 12.5035 39.2217 11.3335 40L11.5268 39.985C12.8402 39.1683 12.9168 35.81 13.3552 34.0933L13.5418 32.2883L15.4168 29.655L15.5535 29.58C15.7635 30.2383 16.7135 30.9533 17.7418 30.7617L18.4802 30.4517L20.3335 31.145C20.5768 33.8117 20.4835 35.3067 18.7952 37.3367C20.5202 36.455 21.1535 33.0583 20.5785 31.255C24.5902 31.72 24.4285 30.3667 23.6685 27.445L24.3735 27.4567C24.2435 27.2617 23.8918 27.4067 23.6235 27.2567C23.5018 27.1783 23.5252 27.1933 23.4502 27.0767C24.4035 26.0017 26.7002 27.07 26.2168 28.855C26.8768 27.375 25.4185 26.0583 24.0135 26.5883C24.6135 25.8767 25.3402 25.2917 25.7202 24.35L25.8568 24.2767L29.1568 27.7433L29.3518 27.7283L29.5018 27.525C28.4518 26.2817 27.4035 25.0367 26.3568 23.7917L26.6935 23.6383C26.7679 23.5616 26.8593 23.5033 26.9603 23.4683C27.0614 23.4333 27.1692 23.4224 27.2752 23.4367C27.2195 23.409 27.164 23.3813 27.1085 23.3533C28.7935 23.5217 30.9468 24.9267 32.7052 24.4733C32.8668 24.1917 32.8752 24.04 32.7768 23.765C34.6502 23.8117 38.0202 23.185 39.0935 22.275C36.2102 22.88 32.9635 23.085 30.3168 22.7317L27.9718 22.4567L27.8402 22.4667L28.4718 21.3333C30.4052 21.2967 35.4752 21.2483 36.5002 20.035L36.2735 19.7317L35.3902 19.605C35.3283 19.7037 35.2938 19.817 35.2902 19.9333L35.9902 20.0083C34.4702 20.3917 30.2368 21.2 28.8552 20.7283C28.7102 20.5517 28.8168 19.9383 28.8235 19.4967C28.826 19.4177 28.8226 19.3385 28.8135 19.26C30.8002 18.6667 32.2752 17.33 32.8802 15.3133C33.2252 14.1583 32.9968 12.6417 33.7435 11.9217C34.2202 11.9633 34.3168 12.165 34.6668 12.3017C34.4818 12.045 34.2168 11.9017 33.8852 11.785L33.2635 12.2133C32.6952 12.4333 32.1002 11.8583 31.1352 12.3067C30.3518 11.6367 29.9102 10.5783 28.8518 10.1733L28.7435 9.99001L30.0268 8.74168C29.6068 9.09334 29.1785 9.50834 28.7502 9.92501L27.8902 9.54001L27.8402 9.41501C28.8202 8.72168 29.6902 8.46501 30.8052 8.68501C30.8568 8.78834 30.9118 8.89001 30.9652 8.99334C30.9135 9.08168 30.8668 9.10668 30.8218 9.13168L30.4468 9.03168C30.6085 9.12668 30.7768 9.15668 30.9452 9.18668L31.0868 9.04834L31.1085 8.85501C30.8652 8.63834 30.7902 8.48168 30.3118 8.46501L30.5402 8.12834C29.9935 8.50501 28.8835 8.60501 28.3402 8.93168L29.5968 7.94168L29.7468 7.74001L27.4218 9.12668C26.9252 9.09334 26.3968 8.86001 26.1285 8.58168C26.0857 8.58497 26.0429 8.5883 26.0002 8.59168L28.7602 6.72501L28.7152 6.53668C27.6685 7.14668 26.6202 7.75668 25.5752 8.36834L24.5718 8.12168L24.6652 7.22001L31.8602 1.57001L31.9885 1.56001L31.8868 1.31168C31.6202 1.18501 30.5252 2.07334 30.1118 2.33834C28.5185 3.36001 27.1102 4.63168 25.5435 5.55501C26.1902 4.73335 27.3735 3.91501 27.5702 2.71834L27.2535 2.67834L26.7602 3.09834L27.2968 2.86501C26.9502 3.92001 25.3802 5.80334 24.4935 6.40001L24.3902 6.15168C24.9668 5.18168 25.5352 3.87668 25.2685 2.63168L24.7852 2.34834L24.2668 2.38668C24.5985 2.51834 24.8235 2.55001 25.0668 2.71168C25.2218 3.91834 24.6285 4.73501 24.3085 5.71168L24.1718 5.78501C23.9585 5.39001 23.9718 5.20001 23.5335 5.12835L23.4952 4.87501L23.7952 4.46834L24.0018 4.32501C24.0718 4.45834 24.0752 4.41001 24.0968 4.63834C24.1583 4.54022 24.1922 4.42741 24.1952 4.31168L23.9502 4.20168L23.3018 4.88835C22.7602 4.52668 22.1635 4.14668 21.4018 4.00501C21.8335 3.11001 23.1452 1.67168 22.4685 0.536678C21.6418 -0.843322 18.8202 0.746678 17.7868 1.84168C17.6669 1.96378 17.5628 2.10039 17.4768 2.24834C17.5791 2.167 17.6825 2.08699 17.7868 2.00834C18.8068 1.24834 21.5218 -0.571655 22.1102 0.883345C22.7268 1.69501 21.5452 3.25668 21.2235 3.89168C20.1235 3.78001 18.9735 3.67501 17.7902 3.69834C16.5446 3.7092 15.3079 3.90811 14.1218 4.28834C13.5218 4.48668 10.9618 6.02001 10.8635 6.00001L9.69682 4.87001L7.25682 3.64501L7.24349 3.77334L7.10016 3.91168L10.2268 6.55834L9.75016 6.85001C8.46349 5.87501 7.57682 5.28335 5.66182 4.78501L5.33849 4.81001C6.45682 5.58001 7.58349 6.28501 8.70849 6.99168L8.93349 7.29501C8.13016 7.63334 7.79016 8.33668 7.11182 8.77334C6.05182 8.26668 5.07016 7.80668 3.78516 7.41834L3.69516 7.68168L6.10182 9.23168L6.23182 9.22168L5.81682 9.50834C5.62516 10.1533 5.25016 10.9017 4.93682 11.8117C3.73682 12.7883 2.18182 12.73 1.94016 14.72C1.55682 14.825 1.28682 14.8583 0.936823 15.115L0.910156 15.3733C1.13016 15.68 3.07849 16.505 3.54349 16.585L3.83016 16.3083L3.82849 16.31ZM18.0618 2.55001L18.2402 2.58334L18.0018 2.55334C17.9602 2.55334 17.9185 2.55668 17.8785 2.55834C18.0668 2.20834 18.6202 2.12168 19.1518 2.16001L19.1152 2.41334L18.0752 2.46501L18.0618 2.55001ZM18.8052 3.01168L19.3052 2.84834C19.5218 2.48834 19.6452 2.10668 19.5352 1.75834C19.0202 1.65668 18.7235 1.78168 18.2418 1.98501C18.1542 2.12752 18.0669 2.2703 17.9802 2.41334L17.8802 2.58001C17.911 2.61578 17.9444 2.64921 17.9802 2.68001C18.1435 2.81334 18.3402 2.86001 18.7018 2.83001C18.8018 3.00001 18.6852 2.92501 18.5068 2.97168L18.8068 3.01168H18.8052ZM31.1435 6.88334L30.6068 6.98334L30.9368 6.96001L31.3152 7.12334L30.7418 8.17334C31.0368 7.82501 31.3302 7.57834 31.4552 7.05001L31.1435 6.88334ZM28.0602 23.6583C27.9268 23.42 27.7818 23.2633 27.6368 23.2267C27.7652 23.3483 27.9135 23.4917 28.0602 23.6583ZM26.3635 28.8183L25.9402 29.065L26.2652 29.035L26.3652 28.8183H26.3635ZM28.0602 23.6583C28.4918 24.145 28.8152 25.0783 28.7218 25.8083C29.2118 24.75 28.6535 24.09 28.0602 23.6583Z"/>
</svg>
