<svg width="25" height="25" viewBox="0 0 25 25" xmlns="http://www.w3.org/2000/svg">
    <path d="M14.709 24.9531C13.6093 24.9531 13.2125 24.1029 12.8611 22.9465L11.1152 17.1874C10.8772 16.3825 10.9225 15.895 11.3987 15.3735L23.0642 2.74434C23.2116 2.58562 23.2003 2.3929 23.0756 2.26819C22.9509 2.15483 22.7695 2.14349 22.6107 2.27953L9.99289 13.9791C9.43739 14.4893 8.98392 14.5006 8.19034 14.2625L2.30654 12.46C1.19554 12.1312 0.390625 11.7231 0.390625 10.6461C0.390625 9.76182 1.12752 9.14963 2.10248 8.77551L21.7378 1.25922C22.248 1.06649 22.7014 0.953125 23.0756 0.953125C23.8805 0.953125 24.3906 1.46328 24.3906 2.26819C24.3906 2.65364 24.2773 3.09578 24.0845 3.60594L16.6022 23.1619C16.1828 24.2502 15.5706 24.9531 14.709 24.9531Z" />
</svg>
