<svg width="192" height="120" fill="none" xmlns="http://www.w3.org/2000/svg"><path d="M101.578 59c-11.11 0-20.25-9.938-20.25-22.031 0-12 9.047-21.422 20.25-21.422 11.156 0 20.297 9.61 20.25 21.515 0 12.047-9.094 21.938-20.25 21.938zm-54 .375c-9.656 0-17.531-8.625-17.578-19.219-.047-10.36 7.922-18.89 17.578-18.89 9.75 0 17.578 8.39 17.578 18.797 0 10.64-7.922 19.312-17.578 19.312zm54-7.453c6.891 0 12.703-6.563 12.703-14.86.047-8.156-5.719-14.437-12.703-14.437-6.984 0-12.703 6.188-12.703 14.344 0 8.297 5.813 14.953 12.703 14.953zm-54 .469c5.766 0 10.64-5.485 10.64-12.328 0-6.61-4.734-11.813-10.64-11.813-5.766 0-10.594 5.297-10.594 11.906 0 6.75 4.875 12.235 10.594 12.235zm-26.062 49.968c-6.375 0-9.563-2.578-9.563-7.78 0-15.61 15.938-29.86 35.578-29.86 7.735 0 15 2.062 21.047 6.047-2.11 1.453-3.797 3.093-5.297 4.968-4.547-2.671-9.843-4.078-15.75-4.078-15.328 0-28.593 10.875-28.593 22.5 0 .89.468 1.266 1.406 1.266h34.312c-.328 2.86 1.407 5.672 3.657 6.937H21.516zm91.031 0h-40.36c-7.828 0-11.53-2.343-11.53-7.5 0-12.28 15.515-30.046 40.968-30.046 8.484 0 15.844 1.968 21.891 5.156a28.863 28.863 0 00-5.297 5.39c-4.594-2.109-10.172-3.468-16.594-3.468-21.516 0-33.422 14.39-33.422 22.078 0 .984.516 1.312 1.734 1.312h41.485a25.402 25.402 0 001.125 7.078zm27.047 16.032c-1.453 0-2.625-.938-2.906-2.344l-1.079-4.594a10.061 10.061 0 01-2.062-.844l-4.078 2.438c-1.266.797-2.672.797-3.703-.328l-2.719-2.813c-.985-.984-1.078-2.39-.328-3.703l2.39-4.078c-.281-.656-.515-1.266-.797-1.922l-4.64-1.078c-1.406-.375-2.344-1.5-2.344-2.953v-3.984c0-1.36.938-2.438 2.344-2.813l4.594-1.125c.281-.703.562-1.36.796-1.922l-2.578-4.172c-.75-1.219-.468-2.672.516-3.656l2.766-2.766c1.031-1.078 2.531-1.218 3.609-.515l4.078 2.578c.703-.422 1.359-.61 2.156-.89l1.079-4.641c.281-1.36 1.453-2.344 2.906-2.344h4.031c1.453 0 2.578.937 2.906 2.344l1.125 4.687c.656.234 1.313.422 2.063.844l4.125-2.578c1.172-.75 2.578-.563 3.609.515l2.859 2.766c.985.938 1.126 2.438.376 3.656l-2.532 4.172c.235.563.516 1.125.844 1.922l4.547 1.125c1.406.375 2.391 1.406 2.391 2.813v3.984c0 1.453-.938 2.578-2.391 2.953l-4.641 1.078c-.234.656-.375 1.266-.797 1.922l2.391 4.031c.844 1.36.703 2.719-.281 3.75l-2.766 2.813c-1.125 1.125-2.437 1.125-3.703.328l-4.031-2.438c-.657.329-1.407.657-2.063.844l-1.125 4.594c-.328 1.5-1.453 2.344-2.906 2.344h-4.031zm2.062-16.407c4.219 0 7.782-3.468 7.782-7.78 0-4.266-3.563-7.923-7.782-7.876a7.882 7.882 0 00-7.828 7.875c0 4.313 3.422 7.781 7.828 7.781z" fill="#fff"/></svg>