<svg width="193" height="120" fill="none" xmlns="http://www.w3.org/2000/svg"><path d="M15.713 65.234h14.438l7.734-26.109a14.253 14.253 0 01-4.547-10.5c0-7.125 5.016-12.938 11.766-14.156V7.016c0-1.454 1.125-2.625 2.578-2.625 1.453 0 2.625 1.125 2.625 2.578v7.5a14.32 14.32 0 0111.766 14.156c0 4.172-1.735 7.875-4.547 10.5l7.734 26.11h14.438c1.687 0 3.094 1.359 3.094 3.046 0 1.688-1.407 3.094-3.094 3.094h-12.61l8.016 26.86c.328 1.078.094 2.156-.516 3.046l1.922 7.266c.375 1.312-.375 2.672-1.687 3-1.36.375-2.672-.375-3.047-1.735l-1.969-7.218a3.921 3.921 0 01-2.016-2.438l-8.578-28.781h-8.437v4.969c0 1.687-1.406 3.094-3.094 3.094-1.687 0-3.047-1.407-3.047-3.094v-4.969h-8.437l-8.578 28.781a3.848 3.848 0 01-2.063 2.438l-1.922 7.218c-.375 1.36-1.687 2.11-3.047 1.735-1.359-.328-2.062-1.688-1.734-3l1.969-7.266c-.61-.89-.844-1.969-.516-3.047l8.016-26.859h-12.61a3.09 3.09 0 01-3.093-3.094c0-1.687 1.359-3.047 3.093-3.047zm31.97-29.343c4.218 0 7.312-3.094 7.312-7.266 0-4.219-3.094-7.313-7.313-7.313-4.219 0-7.266 3.094-7.266 7.313 0 4.172 3.047 7.266 7.266 7.266zm3.093 24.328v5.015h6.61l-6.704-22.546c-.984.187-1.969.28-3 .28-.984 0-2.016-.093-2.953-.28l-6.703 22.546h6.61V60.22c0-1.688 1.359-3.094 3.046-3.094 1.688 0 3.094 1.406 3.094 3.094z" fill="#fff"/></svg>